<mxfile host="app.diagrams.net" modified="2022-12-27T20:48:26.721Z" agent="5.0 (Windows NT 10.0; Win64; x64) AppleWebKit/537.36 (KHTML, like Gecko) Chrome/108.0.0.0 Safari/537.36" etag="4rGVVtVvT7yIN0XDdpH3" version="20.7.4" type="github">
  <diagram id="C5RBs43oDa-KdzZeNtuy" name="Page-1">
    <mxGraphModel dx="6436" dy="2291" grid="1" gridSize="10" guides="1" tooltips="1" connect="1" arrows="1" fold="1" page="1" pageScale="1" pageWidth="2339" pageHeight="3300" math="0" shadow="0">
      <root>
        <mxCell id="WIyWlLk6GJQsqaUBKTNV-0" />
        <mxCell id="WIyWlLk6GJQsqaUBKTNV-1" parent="WIyWlLk6GJQsqaUBKTNV-0" />
        <mxCell id="_UJg27Rl1VnWqQIB9TGI-7" value="" style="edgeStyle=orthogonalEdgeStyle;rounded=0;orthogonalLoop=1;jettySize=auto;html=1;" edge="1" parent="WIyWlLk6GJQsqaUBKTNV-1" source="WIyWlLk6GJQsqaUBKTNV-3" target="_UJg27Rl1VnWqQIB9TGI-6">
          <mxGeometry relative="1" as="geometry" />
        </mxCell>
        <mxCell id="WIyWlLk6GJQsqaUBKTNV-3" value="Swish" style="rounded=1;whiteSpace=wrap;html=1;fontSize=12;glass=0;strokeWidth=1;shadow=0;fontFamily=Courier New;fontStyle=1" parent="WIyWlLk6GJQsqaUBKTNV-1" vertex="1">
          <mxGeometry x="1077" y="20" width="117" height="40" as="geometry" />
        </mxCell>
        <mxCell id="_UJg27Rl1VnWqQIB9TGI-13" value="" style="edgeStyle=orthogonalEdgeStyle;rounded=0;orthogonalLoop=1;jettySize=auto;html=1;" edge="1" parent="WIyWlLk6GJQsqaUBKTNV-1" source="_UJg27Rl1VnWqQIB9TGI-6" target="_UJg27Rl1VnWqQIB9TGI-12">
          <mxGeometry relative="1" as="geometry" />
        </mxCell>
        <mxCell id="_UJg27Rl1VnWqQIB9TGI-6" value="On boarding" style="rounded=1;whiteSpace=wrap;html=1;fontSize=12;glass=0;strokeWidth=1;shadow=0;fontFamily=Courier New;fontStyle=1" vertex="1" parent="WIyWlLk6GJQsqaUBKTNV-1">
          <mxGeometry x="1077" y="90" width="117" height="40" as="geometry" />
        </mxCell>
        <mxCell id="_UJg27Rl1VnWqQIB9TGI-12" value="User" style="rhombus;whiteSpace=wrap;html=1;rounded=1;glass=0;strokeWidth=1;shadow=0;fontFamily=Courier New;fontStyle=1" vertex="1" parent="WIyWlLk6GJQsqaUBKTNV-1">
          <mxGeometry x="1097" y="160" width="77" height="80" as="geometry" />
        </mxCell>
        <mxCell id="_UJg27Rl1VnWqQIB9TGI-19" value="" style="endArrow=none;html=1;rounded=0;snapToPoint=0;entryX=0.504;entryY=0.955;entryDx=0;entryDy=0;entryPerimeter=0;" edge="1" parent="WIyWlLk6GJQsqaUBKTNV-1" target="_UJg27Rl1VnWqQIB9TGI-12">
          <mxGeometry width="50" height="50" relative="1" as="geometry">
            <mxPoint x="1137" y="260" as="sourcePoint" />
            <mxPoint x="1137" y="240" as="targetPoint" />
          </mxGeometry>
        </mxCell>
        <mxCell id="_UJg27Rl1VnWqQIB9TGI-20" value="" style="endArrow=none;html=1;rounded=0;" edge="1" parent="WIyWlLk6GJQsqaUBKTNV-1">
          <mxGeometry width="50" height="50" relative="1" as="geometry">
            <mxPoint x="1087" y="260" as="sourcePoint" />
            <mxPoint x="1197" y="260" as="targetPoint" />
            <Array as="points">
              <mxPoint x="1137" y="260" />
            </Array>
          </mxGeometry>
        </mxCell>
        <mxCell id="_UJg27Rl1VnWqQIB9TGI-24" value="" style="endArrow=none;html=1;rounded=0;" edge="1" parent="WIyWlLk6GJQsqaUBKTNV-1">
          <mxGeometry width="50" height="50" relative="1" as="geometry">
            <mxPoint x="1196.62" y="280" as="sourcePoint" />
            <mxPoint x="1196.62" y="260" as="targetPoint" />
          </mxGeometry>
        </mxCell>
        <mxCell id="_UJg27Rl1VnWqQIB9TGI-25" value="" style="endArrow=none;html=1;rounded=0;" edge="1" parent="WIyWlLk6GJQsqaUBKTNV-1">
          <mxGeometry y="30" width="50" height="50" relative="1" as="geometry">
            <mxPoint x="1087" y="280" as="sourcePoint" />
            <mxPoint x="1087" y="260" as="targetPoint" />
            <mxPoint as="offset" />
          </mxGeometry>
        </mxCell>
        <mxCell id="_UJg27Rl1VnWqQIB9TGI-27" value="Returing user" style="rounded=1;whiteSpace=wrap;html=1;fontSize=12;glass=0;strokeWidth=1;shadow=0;fontFamily=Courier New;fontStyle=1" vertex="1" parent="WIyWlLk6GJQsqaUBKTNV-1">
          <mxGeometry x="1007" y="280" width="117" height="40" as="geometry" />
        </mxCell>
        <mxCell id="_UJg27Rl1VnWqQIB9TGI-31" value="" style="edgeStyle=orthogonalEdgeStyle;rounded=0;orthogonalLoop=1;jettySize=auto;html=1;" edge="1" parent="WIyWlLk6GJQsqaUBKTNV-1" source="_UJg27Rl1VnWqQIB9TGI-28" target="_UJg27Rl1VnWqQIB9TGI-30">
          <mxGeometry relative="1" as="geometry" />
        </mxCell>
        <mxCell id="_UJg27Rl1VnWqQIB9TGI-28" value="New user/Sign up" style="rounded=1;whiteSpace=wrap;html=1;fontSize=12;glass=0;strokeWidth=1;shadow=0;fontFamily=Courier New;fontStyle=1" vertex="1" parent="WIyWlLk6GJQsqaUBKTNV-1">
          <mxGeometry x="1177" y="280" width="117" height="40" as="geometry" />
        </mxCell>
        <mxCell id="_UJg27Rl1VnWqQIB9TGI-33" value="" style="edgeStyle=orthogonalEdgeStyle;rounded=0;orthogonalLoop=1;jettySize=auto;html=1;" edge="1" parent="WIyWlLk6GJQsqaUBKTNV-1" source="_UJg27Rl1VnWqQIB9TGI-30" target="_UJg27Rl1VnWqQIB9TGI-32">
          <mxGeometry relative="1" as="geometry" />
        </mxCell>
        <mxCell id="_UJg27Rl1VnWqQIB9TGI-30" value="Username/Pasword" style="rounded=1;whiteSpace=wrap;html=1;fontSize=12;glass=0;strokeWidth=1;shadow=0;fontFamily=Courier New;fontStyle=1" vertex="1" parent="WIyWlLk6GJQsqaUBKTNV-1">
          <mxGeometry x="1177" y="340" width="117" height="40" as="geometry" />
        </mxCell>
        <mxCell id="_UJg27Rl1VnWqQIB9TGI-35" value="" style="edgeStyle=orthogonalEdgeStyle;rounded=0;orthogonalLoop=1;jettySize=auto;html=1;" edge="1" parent="WIyWlLk6GJQsqaUBKTNV-1" source="_UJg27Rl1VnWqQIB9TGI-32" target="_UJg27Rl1VnWqQIB9TGI-34">
          <mxGeometry relative="1" as="geometry" />
        </mxCell>
        <mxCell id="_UJg27Rl1VnWqQIB9TGI-32" value="E-mail" style="rounded=1;whiteSpace=wrap;html=1;fontSize=12;glass=0;strokeWidth=1;shadow=0;fontFamily=Courier New;fontStyle=1" vertex="1" parent="WIyWlLk6GJQsqaUBKTNV-1">
          <mxGeometry x="1177" y="400" width="117" height="40" as="geometry" />
        </mxCell>
        <mxCell id="_UJg27Rl1VnWqQIB9TGI-39" value="" style="edgeStyle=orthogonalEdgeStyle;rounded=0;orthogonalLoop=1;jettySize=auto;html=1;" edge="1" parent="WIyWlLk6GJQsqaUBKTNV-1" source="_UJg27Rl1VnWqQIB9TGI-34" target="_UJg27Rl1VnWqQIB9TGI-38">
          <mxGeometry relative="1" as="geometry" />
        </mxCell>
        <mxCell id="_UJg27Rl1VnWqQIB9TGI-34" value="Add bank/phone number" style="rounded=1;whiteSpace=wrap;html=1;fontSize=12;glass=0;strokeWidth=1;shadow=0;fontFamily=Courier New;fontStyle=1" vertex="1" parent="WIyWlLk6GJQsqaUBKTNV-1">
          <mxGeometry x="1177" y="460" width="117" height="40" as="geometry" />
        </mxCell>
        <mxCell id="_UJg27Rl1VnWqQIB9TGI-41" value="" style="edgeStyle=orthogonalEdgeStyle;rounded=0;orthogonalLoop=1;jettySize=auto;html=1;" edge="1" parent="WIyWlLk6GJQsqaUBKTNV-1" source="_UJg27Rl1VnWqQIB9TGI-38" target="_UJg27Rl1VnWqQIB9TGI-40">
          <mxGeometry relative="1" as="geometry" />
        </mxCell>
        <mxCell id="_UJg27Rl1VnWqQIB9TGI-38" value="E-mail confirmation" style="rounded=1;whiteSpace=wrap;html=1;fontSize=12;glass=0;strokeWidth=1;shadow=0;fontFamily=Courier New;fontStyle=1" vertex="1" parent="WIyWlLk6GJQsqaUBKTNV-1">
          <mxGeometry x="1177" y="520" width="117" height="40" as="geometry" />
        </mxCell>
        <mxCell id="_UJg27Rl1VnWqQIB9TGI-44" value="" style="edgeStyle=orthogonalEdgeStyle;rounded=0;orthogonalLoop=1;jettySize=auto;html=1;" edge="1" parent="WIyWlLk6GJQsqaUBKTNV-1" source="_UJg27Rl1VnWqQIB9TGI-40" target="_UJg27Rl1VnWqQIB9TGI-43">
          <mxGeometry relative="1" as="geometry" />
        </mxCell>
        <mxCell id="_UJg27Rl1VnWqQIB9TGI-40" value="sign in" style="rounded=1;whiteSpace=wrap;html=1;fontSize=12;glass=0;strokeWidth=1;shadow=0;fontFamily=Courier New;fontStyle=1" vertex="1" parent="WIyWlLk6GJQsqaUBKTNV-1">
          <mxGeometry x="1087" y="620" width="117" height="40" as="geometry" />
        </mxCell>
        <mxCell id="_UJg27Rl1VnWqQIB9TGI-42" value="" style="endArrow=classic;html=1;rounded=0;exitX=0.5;exitY=1;exitDx=0;exitDy=0;entryX=0;entryY=0.25;entryDx=0;entryDy=0;" edge="1" parent="WIyWlLk6GJQsqaUBKTNV-1" source="_UJg27Rl1VnWqQIB9TGI-27" target="_UJg27Rl1VnWqQIB9TGI-40">
          <mxGeometry width="50" height="50" relative="1" as="geometry">
            <mxPoint x="1137" y="350" as="sourcePoint" />
            <mxPoint x="1067" y="630" as="targetPoint" />
            <Array as="points">
              <mxPoint x="1067" y="630" />
            </Array>
          </mxGeometry>
        </mxCell>
        <mxCell id="_UJg27Rl1VnWqQIB9TGI-46" value="" style="edgeStyle=orthogonalEdgeStyle;rounded=0;orthogonalLoop=1;jettySize=auto;html=1;" edge="1" parent="WIyWlLk6GJQsqaUBKTNV-1" source="_UJg27Rl1VnWqQIB9TGI-43" target="_UJg27Rl1VnWqQIB9TGI-45">
          <mxGeometry relative="1" as="geometry">
            <Array as="points">
              <mxPoint x="110" y="760" />
            </Array>
          </mxGeometry>
        </mxCell>
        <mxCell id="_UJg27Rl1VnWqQIB9TGI-50" value="" style="edgeStyle=orthogonalEdgeStyle;rounded=0;orthogonalLoop=1;jettySize=auto;html=1;" edge="1" parent="WIyWlLk6GJQsqaUBKTNV-1" source="_UJg27Rl1VnWqQIB9TGI-43" target="_UJg27Rl1VnWqQIB9TGI-49">
          <mxGeometry relative="1" as="geometry" />
        </mxCell>
        <mxCell id="_UJg27Rl1VnWqQIB9TGI-52" value="" style="edgeStyle=orthogonalEdgeStyle;rounded=0;orthogonalLoop=1;jettySize=auto;html=1;" edge="1" parent="WIyWlLk6GJQsqaUBKTNV-1" source="_UJg27Rl1VnWqQIB9TGI-43" target="_UJg27Rl1VnWqQIB9TGI-51">
          <mxGeometry relative="1" as="geometry" />
        </mxCell>
        <mxCell id="_UJg27Rl1VnWqQIB9TGI-54" value="" style="edgeStyle=orthogonalEdgeStyle;rounded=0;orthogonalLoop=1;jettySize=auto;html=1;" edge="1" parent="WIyWlLk6GJQsqaUBKTNV-1" source="_UJg27Rl1VnWqQIB9TGI-43" target="_UJg27Rl1VnWqQIB9TGI-53">
          <mxGeometry relative="1" as="geometry" />
        </mxCell>
        <mxCell id="_UJg27Rl1VnWqQIB9TGI-56" value="" style="edgeStyle=orthogonalEdgeStyle;rounded=0;orthogonalLoop=1;jettySize=auto;html=1;" edge="1" parent="WIyWlLk6GJQsqaUBKTNV-1" source="_UJg27Rl1VnWqQIB9TGI-43" target="_UJg27Rl1VnWqQIB9TGI-55">
          <mxGeometry relative="1" as="geometry" />
        </mxCell>
        <mxCell id="_UJg27Rl1VnWqQIB9TGI-43" value="Main Screen" style="rounded=1;whiteSpace=wrap;html=1;fontSize=12;glass=0;strokeWidth=1;shadow=0;fontFamily=Courier New;fontStyle=1" vertex="1" parent="WIyWlLk6GJQsqaUBKTNV-1">
          <mxGeometry x="1087" y="740" width="117" height="40" as="geometry" />
        </mxCell>
        <mxCell id="_UJg27Rl1VnWqQIB9TGI-59" value="" style="edgeStyle=orthogonalEdgeStyle;rounded=0;orthogonalLoop=1;jettySize=auto;html=1;fontFamily=Courier New;" edge="1" parent="WIyWlLk6GJQsqaUBKTNV-1" source="_UJg27Rl1VnWqQIB9TGI-45" target="_UJg27Rl1VnWqQIB9TGI-58">
          <mxGeometry relative="1" as="geometry">
            <Array as="points">
              <mxPoint x="-50" y="870" />
            </Array>
          </mxGeometry>
        </mxCell>
        <mxCell id="_UJg27Rl1VnWqQIB9TGI-61" value="" style="edgeStyle=orthogonalEdgeStyle;rounded=0;orthogonalLoop=1;jettySize=auto;html=1;fontFamily=Courier New;" edge="1" parent="WIyWlLk6GJQsqaUBKTNV-1" source="_UJg27Rl1VnWqQIB9TGI-45" target="_UJg27Rl1VnWqQIB9TGI-60">
          <mxGeometry relative="1" as="geometry" />
        </mxCell>
        <mxCell id="_UJg27Rl1VnWqQIB9TGI-45" value="Recent cards/See all" style="rounded=1;whiteSpace=wrap;html=1;fontSize=12;glass=0;strokeWidth=1;shadow=0;fontFamily=Courier New;fontStyle=1" vertex="1" parent="WIyWlLk6GJQsqaUBKTNV-1">
          <mxGeometry x="50" y="850" width="117" height="40" as="geometry" />
        </mxCell>
        <mxCell id="_UJg27Rl1VnWqQIB9TGI-73" value="" style="edgeStyle=orthogonalEdgeStyle;rounded=0;orthogonalLoop=1;jettySize=auto;html=1;fontFamily=Courier New;" edge="1" parent="WIyWlLk6GJQsqaUBKTNV-1" source="_UJg27Rl1VnWqQIB9TGI-49" target="_UJg27Rl1VnWqQIB9TGI-72">
          <mxGeometry relative="1" as="geometry" />
        </mxCell>
        <mxCell id="_UJg27Rl1VnWqQIB9TGI-77" value="" style="edgeStyle=orthogonalEdgeStyle;rounded=0;orthogonalLoop=1;jettySize=auto;html=1;fontFamily=Courier New;" edge="1" parent="WIyWlLk6GJQsqaUBKTNV-1" source="_UJg27Rl1VnWqQIB9TGI-49" target="_UJg27Rl1VnWqQIB9TGI-76">
          <mxGeometry relative="1" as="geometry" />
        </mxCell>
        <mxCell id="_UJg27Rl1VnWqQIB9TGI-99" value="" style="edgeStyle=orthogonalEdgeStyle;rounded=0;orthogonalLoop=1;jettySize=auto;html=1;fontFamily=Courier New;" edge="1" parent="WIyWlLk6GJQsqaUBKTNV-1">
          <mxGeometry relative="1" as="geometry">
            <mxPoint x="606.5" y="890" as="sourcePoint" />
            <mxPoint x="700" y="1010" as="targetPoint" />
            <Array as="points">
              <mxPoint x="607" y="910" />
              <mxPoint x="607" y="1010" />
            </Array>
          </mxGeometry>
        </mxCell>
        <mxCell id="_UJg27Rl1VnWqQIB9TGI-101" value="" style="edgeStyle=orthogonalEdgeStyle;rounded=0;orthogonalLoop=1;jettySize=auto;html=1;fontFamily=Courier New;" edge="1" parent="WIyWlLk6GJQsqaUBKTNV-1" source="_UJg27Rl1VnWqQIB9TGI-49" target="_UJg27Rl1VnWqQIB9TGI-100">
          <mxGeometry relative="1" as="geometry">
            <Array as="points">
              <mxPoint x="606" y="940" />
            </Array>
          </mxGeometry>
        </mxCell>
        <mxCell id="_UJg27Rl1VnWqQIB9TGI-49" value="Recent Friends/See all" style="rounded=1;whiteSpace=wrap;html=1;fontSize=12;glass=0;strokeWidth=1;shadow=0;fontFamily=Courier New;fontStyle=1" vertex="1" parent="WIyWlLk6GJQsqaUBKTNV-1">
          <mxGeometry x="548" y="850" width="117" height="40" as="geometry" />
        </mxCell>
        <mxCell id="_UJg27Rl1VnWqQIB9TGI-51" value="Profile" style="rounded=1;whiteSpace=wrap;html=1;fontSize=12;glass=0;strokeWidth=1;shadow=0;fontFamily=Courier New;fontStyle=1" vertex="1" parent="WIyWlLk6GJQsqaUBKTNV-1">
          <mxGeometry x="1087" y="850" width="117" height="40" as="geometry" />
        </mxCell>
        <mxCell id="_UJg27Rl1VnWqQIB9TGI-53" value="Main Screen" style="rounded=1;whiteSpace=wrap;html=1;fontSize=12;glass=0;strokeWidth=1;shadow=0;fontFamily=Courier New;fontStyle=1" vertex="1" parent="WIyWlLk6GJQsqaUBKTNV-1">
          <mxGeometry x="1520" y="850" width="117" height="40" as="geometry" />
        </mxCell>
        <mxCell id="_UJg27Rl1VnWqQIB9TGI-93" style="edgeStyle=orthogonalEdgeStyle;rounded=0;orthogonalLoop=1;jettySize=auto;html=1;fontFamily=Courier New;entryX=1;entryY=0.5;entryDx=0;entryDy=0;" edge="1" parent="WIyWlLk6GJQsqaUBKTNV-1" source="_UJg27Rl1VnWqQIB9TGI-55" target="_UJg27Rl1VnWqQIB9TGI-76">
          <mxGeometry relative="1" as="geometry">
            <mxPoint x="880" y="900" as="targetPoint" />
            <Array as="points">
              <mxPoint x="1359" y="950" />
              <mxPoint x="930" y="950" />
              <mxPoint x="930" y="870" />
            </Array>
          </mxGeometry>
        </mxCell>
        <mxCell id="_UJg27Rl1VnWqQIB9TGI-55" value="Give/Request" style="rounded=1;whiteSpace=wrap;html=1;fontSize=12;glass=0;strokeWidth=1;shadow=0;fontFamily=Courier New;fontStyle=1" vertex="1" parent="WIyWlLk6GJQsqaUBKTNV-1">
          <mxGeometry x="1300" y="850" width="117" height="40" as="geometry" />
        </mxCell>
        <mxCell id="_UJg27Rl1VnWqQIB9TGI-57" value="" style="shape=image;verticalLabelPosition=bottom;labelBackgroundColor=default;verticalAlign=top;aspect=fixed;imageAspect=0;image=data:image/png,iVBORw0KGgoAAAANSUhEUgAACtcAAAY/CAYAAADyFTDkAAAgAElEQVR4nOzdL3haeboH8JfZFcRNXeJA7Vw1qetVTV3GMaqMuoma4CYqqSKotGrjklWhKh2VuMYtVTNXlVV7r2rcxC0OzH24ouQsSSDh/wHy+TwPz3MOOX9efsDhtHx5T6bdbrcDAAAAAAAAAAAAAIhv0i4AAAAAAAAAAAAAAOaFcC0AAAAAAAAAAAAAdAjXAgAAAAAAAAAAAECHcC0AAAAAAAAAAAAAdAjXAgAAAAAAAAAAAECHcC0AAAAAAAAAAAAAdAjXAgAAAAAAAAAAAECHcC0AAAAAAAAAAAAAdAjXAgAAAAAAAAAAAECHcC0AAAAAAAAAAAAAdAjXAgAAAAAAAAAAAECHcC0AAAAAAAAAAAAAdAjXAgAAAAAAAAAAAECHcC0AAAAAAAAAAAAAdAjXAgAAAAAAAAAAAECHcC0AAAAAAAAAAAAAdAjXAgAAAAAAAAAAAECHcC0AAAAAAAAAAAAAdAjXAgAAAAAAAAAAAECHcC0AAAAAAAAAAAAAdAjXAgAAAAAAAAAAAECHcC0AAAAAAAAAAAAAdAjXAgAAAAAAAAAAAECHcC0AAAAAAAAAAAAAdAjXAgAAAAAAAAAAAECHcC0AAAAAAAAAAAAAdAjXAgAAAAAAAAAAAECHcC0AAAAAAAAAAAAAdAjXAgAAAAAAAAAAAECHcC0AAAAAAAAAAAAAdAjXAgAAAAAAAAAAAECHcC0AAAAAAAAAAAAAdAjXAgAAAAAAAAAAAECHcC0AAAAAAAAAAAAAdAjXAgAAAAAAAAAAAECHcC0AAAAAAAAAAAAAdAjXAgAAAAAAAAAAAECHcC0AAAAAAAAAAAAAdAjXAgAAAAAAAAAAAECHcC0AAAAAAAAAAAAAdAjXAgAAAAAAAAAAAECHcC0AAAAAAAAAAAAAdAjXAgAAAAAAAAAAAECHcC0AAAAAAAAAAAAAdAjXAgAAAAAAAAAAAECHcC0AAAAAAAAAAAAAdAjXAgAAAAAAAAAAAECHcC0AAAAAAAAAAAAAdAjXAgAAAAAAAAAAAECHcC0AAAAAAAAAAAAAdAjXAgAAAAAAAAAAAECHcC0AAAAAAAAAAAAAdAjXAgAAAAAAAAAAAECHcC0AAAAAAAAAAAAAdAjXAgAAAAAAAAAAAECHcC0AAAAAAAAAAAAAdAjXAgAAAAAAAAAAAECHcC0AAAAAAAAAAAAAdAjXAgAAAAAAAAAAAECHcC0AAAAAAAAAAAAAdAjXAgAAAAAAAAAAAECHcC0AAAAAAAAAAAAAdAjXAgAAAAAAAAAAAECHcC0AAAAAAAAAAAAAdAjXAgAAAAAAAAAAAECHcC0AAAAAAAAAAAAAdAjXAgAAAAAAAAAAAECHcC0AAAAAAAAAAAAAdAjXAgAAAAAAAAAAAECHcC0AAAAAAAAAAAAAdAjXAgAAAAAAAAAAAECHcC0AAAAAAAAAAAAAdAjXAgAAAAAAAAAAAECHcC0AAAAAAAAAAAAAdAjXAgAAAAAAAAAAAECHcC0AAAAAAAAAAAAAdAjXAgAAAAAAAAAAAECHcC0AAAAAAAAAAAAAdAjXAgAAAAAAAAAAAECHcC0AAAAAAAAAAAAAdAjXAgAAAAAAAAAAAECHcC0AAAAAAAAAAAAAdAjXAgAAAAAAAAAAAECHcC0AAAAAAAAAAAAAdAjXAgAAAAAAAAAAAECHcC0AAAAAAAAAAAAAdAjXAgAAAAAAAAAAAECHcC0AAAAAAAAAAAAAdAjXAgAAAAAAAAAAAECHcC0AAAAAAAAAAAAAdAjXAgAAAAAAAAAAAECHcC0AAAAAAAAAAAAAdAjXAgAAAAAAAAAAAECHcC0AAAAAAAAAAAAAdAjXAgAAAAAAAAAAAECHcC0AAAAAAAAAAAAAdAjXAgAAAAAAAAAAAECHcC0AAAAAAAAAAAAAdAjXAgAAAAAAAAAAAECHcC0AAAAAAAAAAAAAdAjXAgAAAAAAAAAAAECHcC0AAAAAAAAAAAAAdAjXAgAAAAAAAAAAAECHcC0AAAAAAAAAAAAAdAjXAgAAAAAAAAAAAECHcC0AAAAAAAAAAAAAdAjXAgAAAAAAAAAAAECHcC0AAAAAAAAAAAAAdAjXAgAAAAAAAAAAAECHcC0AAAAAAAAAAAAAdAjXAgAAAAAAAAAAAECHcC0AAAAAAAAAAAAAdAjXAgAAAAAAAAAAAECHcC0AAAAAAAAAAAAAdAjXAgAAAAAAAAAAAECHcC0AAAAAAAAAAAAAdAjXAgAAMJTLy8vI5/ORz+ejWq2mXQ4AAAAAAADARGXa7XY77SIAAABYHPl8Pq6uriIiIpvNRrPZTLkiAAAAAAAAgMnRuRYAAICh/Pzzz8l0q9VKsRIAAAAAAACAydO5FgAAgKFlMplk2j8rAQAAAAAAgGWicy0AAADAgqnX67G7uxv5fD4ymcyTv+Xz+ahWq2k/LQAAAAAAwJLQuRYAAIChdXeu/fjxY5RKpYiIKJfLsbW1lVZZMFFXV1dRq9Xi06dPUavV4urqKu2SeEA2m41ms5l2GQAAAAAAwBIQrgUAAGBo3eHaXC73YOgwl8vF3t5e7OzszKK0sdXr9Xj//n1cXFw82TBlLpeLFy9exMuXL2NjYyO+++67sbfZarXi999/j99//z3+8Y9/xO+///5kx5fp8d9cAAAAAADAJAjXAgAAMLTucO3h4WG8efMmxWqYd9lsNlqtVtplLJXV1dUoFArx+vXr2NjYSLucVHUfj/w3FwAAAAAAMAl/TrsAAAAAFtv+/n5EhIAtfS1qsDabzcbGxkbSwffFixdpl8QdJycnaZcAAAAAAAAsIZ1rAQAAGNqgnSJbrVaUSqWoVquzKGsidASNqNfrUavV4tOnT1Gr1aLRaExkuy9evIj19fX4/vvvY319XViVsa2trcX19XVERBSLxTg7O0u5IgAAAAAAYBkI1wIAADA0l2EH5kH3sajZbEY2m02xGgAAAAAAYFkI1wIAADA04VpgHjgWAQAAAAAA0/BN2gUAAAAAAAAAAAAAwLwQrgUAAGBo3Zder9frKVYCPFXX19dplwAAAAAAACwp4VoAAACGVigUkulKpZJiJcBT9e7du2R6fX09xUoAAAAAAIBlk2m32+20iwAAAGCx1Ov1eP78eTLvn5bArK2trSXda8/Pz2+F/gEAAAAAAMYhXAsAAMBIMplMMu2flsCsOQYBAAAAAADT8k3aBQAAAAAAAAAAAADAvBCuBQAAgCn68OFDvHr1Ko6OjtIuBZbG9fV12iUAAAAAAABL7M9pFwAAAADL6vLyMkqlUjQajajVatFoNOLg4CDtsmDhvXv3LpleX19PsRIAAAAAAGAZZdrtdjvtIgAAAFg8mUwmmfZPy97W1tbuddgsl8sCtjCm7vfW+fl5FAqFlCsCAAAAAACWiXAtAAAAIxGufVz3GHU7PDyM/f39GVcDy8PxBwAAAAAAmKZv0i4AAGCWqtVq5PP5yGQyD97y+XycnJykXS4AS2RzczOZrlQq0Wq1UqwGAAAAAAAA6Ee4FgBYKo+FZ7e3t+Pq6urR7VxdXUWpVIp8Ph/VanUGlQOw7M7Pz6NYLEZERLFYjGw2m3JFAAAAAAAAQC+ZtmvnAQALrF6vx/v37+Pi4mKg0OwostlsHB8fx9bW1lS2D7CoXJb9cb3G6Pr6OlZXV9MqCRbe9fV1rK2tJfOOPwAAAAAAwKTpXAsALJxGoxEHBweRz+fj+fPncXR0NFSwtlgsRrPZjHa73fPWbDZvBWlbrVaUSqVpPBQAniDBWhjPu3fvkun19fUUKwEAAAAAAJaVzrUAwNwbtjttsViM09PTsS+3/fbt23jz5k0y77QJ4Dadax9njGDy1tbW4vr6OiIizs/Po1AopFwRAAAAAACwbIRrAYC5NGigdnV1NQqFQrx+/To2NjYmXodQFEB/jpGPM0Ywed5XAAAAAADAtP057QIAAG5cXV3F3/72t/jw4cOjHWpzuVyUy+XY2tqaak3ZbDZarVZEfO1ku7+/P9X9AQAAAAAAAACQLp1rAYDUffjwId6/fx+Xl5c9/z7t7rQP2d3djaOjo4j4GrRtNpsz3T/APFtZWUl+gPDly5fI5XIpVzR/dNiEyfO+AgAAAAAApk24FgCYmUajEUdHR/H+/ftHO9OmGajt1mq1YmVlJZl36gTwb69evYparRYREaenp1PvJr6IhABh8ryvAAAAAACAafsm7QIAgOVUr9djd3c38vl8ZDKZyGQy8ezZs6hUKg8Gazc3N+Ps7Cz++OOPOD4+TjVYG/G1Wy0Avb18+TKZ/vTpU4qV3FatVm99/uTz+Tg5OUm7LAAAAAAAAGBB6FwLAIylXq/H+/fv4+Li4tFutP2srq7G1tZW/Pzzz3N5SXHd0QB6q9Vq8erVq4iIyOVy8eXLl5Qrijg5OYlSqdTzb4eHh7G/vz/TenyGwOR5XwEAAAAAANMmXAsADGQSIdqIr+Grcrm8UJcOF+AA6K3VasXKykoyPw/HyHw+3/dzKpvNxvHx8Uw/g3yGwOR5XwEAAAAAANMmXAsAJK6urqJWq8WnT5+iVquNFaJdXV2NQqEQr1+/jo2NjQlWOXsCHAD9zdsx8uDgICqVShQKhTg7O4uIiGfPnkWr1YqIrwHbZrM5s3rmbXxgGXhfAQAAAAAA0yZcCwBPSL1ej6urq6jX6/GPf/wjmR/HMoVo+xHgAOhvHo+R19fXsbq6msy/ffs23rx5k8zPss55HB9YdN5XAAAAAADAtAnXAsCCq9fr8f79+7i4uOgblP3222+j0WiMtZ+bEO3x8fFY21lEAhwA/S3KMTKtOldWVpKuuX/88cet0C8wmkU57gAAAAAAAIvrz2kXAAD82yBB2VEMGqzNZrOxsbERL1++jI2NjXjx4sXEagCAp2hjYyMuLy8jIuLi4iJ2dnZSrggAAAAAAAB4jHAtAE/e1dVV1Gq1+PTpU9RqtYmGWufN+vp65HK5+P7775Pp9fX1tMsCgKnLZrNJB9m3b9/G/v7+TPb7+vXrJFz766+/CtfCmGq1WjKdy+VSrAQAAAAAAFhmmbbr5wGQgqcUaJ221dXVKBQK8fr169jY2Ei7nKXk0sMA/S3KMXJ3dzeOjo4i4mvQttlszmS/jUYjnj17lszP8xjBIiiVSnFychIREfv7+3F4eJhyRQAAAAAAwDISrgV4gur1erx//z4uLi6EWueMoOx8WpTgGEAaFuUY2Wq1YmVlJZmfZa2LMkawCNbW1uL6+joiIn777bd48eJFyhUBAAAAAADLSLgWYESXl5dRKpXi6uoqcrlclMvl2NraenAdodb5lM1mY2NjI16+fBkbGxu+oOceoSiA/hbpGJlWrfMyRtVqNSqVSt/z0FwuF3t7e7GzszPjymBw8/J+AgAAAAAAlptwLcCIujsmRXwNaP71r3+NbDb7YGiB0eRyudjc3NTRlVQIcQD0t0jHyKcYrn0sUNuLkC3zbJGOOQAAAAAAwOISrgUYUfeXujDvhGTGI8QB0N8iHSNXVlai1WpFRMTnz59jfX19Jvud9RiNEqjtpVwux8HBwYSqgslYpGMOAAAAAACwuL5JuwCAp2R1dTV2dnbi3bt38e233w68XrFYjGazGe12e+q3z58/xy+//BK5XG6KI8GsXV1dRalUirdv36ZdCgCkplAoJNOVSiXFSqajWq1GPp+P7e3tvsHafueVzWYztra2bi1bqVSEawEAAAAAAHiSdK4FGFF3x6TDw8N48+ZNMl8sFuP09DSy2WzPddfW1uL6+jqZ39nZiePj4+kVuwTq9Xq8f/8+Li4uxu7C9pRls9n417/+1fe1SW86pAH0190N9suXL3P9A516vR7Pnz9P5md1TJ/258hjnWofOzft1mq14scff4zLy8vkvlE72F5eXkapVLpVVy6Xi3K5fC/IC4NyXgYAAAAAAMyCcC3AiEb9Uvfy8jJ++OGHZF6wlmlrtVqxvb0dHz58iK2trTg9PU27pIUjxAHQ36tXr6JWq0VExOnp6dyHJtM4pk9znwcHBz278A4TqL1rUgHbuz8ou5HNZqPZbA5dF0Q4LwMAAAAAAGbjm7QLAHhqtre3b80L1jJt2Ww2zs7O4o8//hCsBWDiXr58mUx/+vQpxUqelsvLy8jn8/eCtcViMZrNZpydnY3cqT6bzcb5+Xlsbm4m91UqlaHCtScnJz2DtRFfw7tv374dqbabx53P56NarY60DQAAAAAAAHiMzrUAIxq1Y1L3errWwmLQIQ2gv1qtFq9evYqIiFwuF1++fEm5ooctS+fau11h19fX47fffhs5UNvLOB1su+srFotxdnYWu7u7cXR0FBGjda+9vLyMn376KRqNRrKN4+Pjue+WzGQ5LwMAAAAAAGZBuBZgRKN8qXtychKlUmno9YB0CXEA9NdqtWJlZSWZn/fj5LKEa1dWVqLVat26L5fLxd7eXuzs7ExkHxGjBWzvnvM2m83IZrNjv1buBoojRgvpTku1Wo1KpRJXV1cRMZ3nA+dlAAAAAADAbHyTdgEAT0n3ZXuLxWKKlQAATMYkO6Uuq+4xuhsOHdTl5WXk8/nI5/NRrVajXC7fW+bq6ipKpVLk8/k4OTkZud5u2Ww2zs/PY3NzM7mvUqlErVbru87dc96bx5/NZm+NRb1eH6qWXmPXarXi7du3Q21n0qrVauTz+dje3k6CtRHTeT4AAAAAAACYDeFagAmoVqsDLdcdCDg9PZ1WOQAAzJGNjY1k+uLiYqRtlEqluLq6SgKbq6ur0W634/Dw8N6yN8tkMpmJBDtvArbdj2N7e/te59yIr11rHzrnLRQKyXR3CPcxdx/DL7/8MtJ2Ju3g4OBeqPaum+cj7RAwAAAAAAAAg8u0XUMPYCTdl+Id9HK0LmEKi8l7F+Bhi3ScTKPWarUa29vbEfE1aPv3v/996G28ffs23rx5k8zfPf9stVpRKpUe/dFXLpeLvb292NnZGbqG6+vr+I//+I9oNBoREbGzsxPHx8e3lllbW0vCtcViMc7Ozm79vV6vx/Pnz5P5QZ+Du9s9PT2NlZWVobczSQcHB/eCvTe1RcS952PQfzPwsEU63gAAAAAAAItLuBZgRHcDDoeHh7G/v993+evr61hbW0vmHX5hcQhxADxskY6TadTaaDTi2bNnY+/37vlnr+1MO2TbHRTuFRbtHt9msxnZbPbeNkZ5Dnptt/vHbo+di0/ayclJlEqlZH5zczPOz8/vPd5WqxXPnj1Lrc5ltEjHGwAAAAAAYHEJ1wKMYXd3N46OjiLi8U5U3cuur6/H58+fZ1IjX2UyGV++MzIhDoCHLdJxMq1au/e7sbERr1+/Hql77DD1DxK0HSXs+VANg9Q37HPQ70dqw5yLT1p3J91+wdobada5jBbpeAMAAAAAACwu4VqAMbRarYEvR9v9Bfz5+XkUCoWp18dX3V/AR/gSnuEJcQA8bJGOk/MQro0YPWQ5Tv29wraj1NGvY+ygV2oYtuNsvx+ppdkVdpAOvTeG+TcDD6vVavHq1auI+Np9+cuXLylXBAAAAAAALKtv0i4AYJHVarWBl70J1kaEYO0M3Q2ysDg8dwAss/X19ZnvM5vNxunp6a0waKvVirdv3w61ne6Ou5VKJZl+9+5dMv3Q4+u3fj8fPnxIpsvlcjKdzWaH3tYknJyc3Jp/KFgbMdy/GXjYr7/+mkwXi8UUKwEAAAAAAJadzrUAY8jn83F1dZXMP3RIXaSObsukV0DT+M+vfoHatJ8z71+Ahy3ScXIeOtdms9n4/PlzfPfdd2NtZ5z6u7vBDtu9tl8n1kGv1DBsJ9eHHvPd7rXlcjkODg4Gfiyj6H6cxWIxzs7O+i57eXkZP/30UzQajeS+eX+PzLPusf/tt9/ixYsXKVcEAAAAAAAsK51rAcbw888/J9N/+tOf+i53t7sVcN9DnWp1sQWYb92dO7tDhE9dtVqNfD5/73Ps+Ph4pGDtJB0eHibTN8HUQWWz2VvPeb1ej4jBr9Rwd/2HOud2b7Pftu52r72pZ1q6azo9Pe27XLVavRes7a6V4XWPvWAtAAAAAAAwTcK1AGPY399Ppv/v//6v73Ldl6h1+VK4b5DwrIAt8JQs2g9z1tfXk+nff/89xUrmQ6PRiN3d3dje3r51lYMbW1tbKVR1W3e4dRTd4dlKpTL0a/ZuILafd+/eJdPdr7Nuh4eHsbGxMdD2Jq3XON6Eqre3t+8Fa4+Pj2dWGwAAAAAAAKMTrgWYgUG7WzF9LsO72ARsgaeiVCpFJpOJfD6/EEHb7g6S0+4aOu9OTk4in8/H0dHRVLY/aMfXadvb20umLy4uhv4x2aCdcz98+JBMl8vlnstks9n461//equeg4ODR2uYtO5Q7d1QtWAtAAAAAADAYhGuBZixcbuEwbLpFZhtt9vJDeApu7q6ilKplEpQcBjff/99Mv3f//3fKVaSjkajEQcHB5HP56NUKt3qVrq5uRnNZvPWOWD3D6+GNWjH12m720V22B+TDXJOfH19fWu73d1ye9XT3RG4UqnM7H3zUKi2WCxGs9kUrAUAAAAAAFgwwrUALC1dTheTQC3AfZVKJUql0lihzGnqDlo+lc613YHaZ8+eRaVSuRWszOVycXp6Gh8/foxsNhsbGxvJ3y4uLkbe76AdXx8zzY7Ig/6YrHu5Xq+bd+/eJdN3w7y9HB8fx+bmZjJfqVSm3t33sVDt2dmZH9cBAAAAAAAsIOFagDEswmWa+TehzfkjAA3QW7vdjmazeSsoeHJyEvl8fuphwVF0Bx/vhgznweXlZeTz+XufO5lMZuRbr0DtjWKxGP/85z9vdVJ9/fp1Mv3rr7+O/FgmFdTs7npbLBYnVssgIdgb3Z1oe3Xh/fDhQzJdLpcHquf8/PxewHaahGoBAAAAAACWk3AtwBgGCSUI4D5t3SEcHicADfDV7u5uNBqNOD8/vxVAbLVa8ebNm7kM2M6zXp1FJ+2mU2273e4ZrOx+Hmu12lj76t72qK+F7i7Ip6enI22j+zHdGCQEe2Nvby+Z7tXNt7vGXvvq5SZgezNGrVYrDg4OBq7pITfdinsRqgUAAAAAAFgumbYUC8DIugOTzWaz5xfpa2trSTCgWCzG2dnZzOp76u4GWmf9kdcrUOtj97ZBnqO0n8e7NXgOgVnIZDKRzWZjZ2cn/vKXv8Tu7m60Wq3k79lsNprNZooV3jfPx8qVlZVb4zcpuVwuyuXyrQ61D5nUGO3u7sbR0VFEjPZaODk5iVKpNHYt9Xo9nj9/fuu+Ybf10JiMM17dYxTxNfQ7Tsj25OQk3rx5E41G49b9Gxsb8fHjR4HaGZnn4wwAAAAAALBcdK4FmJB+X6iP2xXs7iWIWQyeq+XS/f7ufk8vo+5Lp9+95fP5KJVKY3dcBAbTarXi6OgoSqXSvWDoNIKiy+ymm+rOzs6t+9vt9li3L1++DBysnaTDw8NkutVqRbVaHWr9Qa6+MIj19fWR173RrwvvuFd/ODw8jM3NzWS+UqlEPp8fabsHBwdRKpXuBWtvCNYCAAAAAAAsH51rAcYwSOekcbor6Xw6unkYu3moYZ4NOj7z0Ln2hx9+iMvLy4iIOD4+vhfOWib5fH7kS6fncrkoFAqxt7cXq6urE64MnpbHfqSxs7MTx8fHM6pmMIvSUTLNOrs76P7xxx9jHSu7tzVM99q7XWv7XX1hUON+TvfrwjuJqz+0Wq348ccfk8/wG4N2sa1Wq1GpVG59LuZyudjb25tI51+GtyjHGQAAAAAAYPHpXAswokG6Xo3T4VLn08ma5pfv/boK392nAMDD5nl8Xr9+nUz/+uuvKVYyfT///PPI615dXcXR0VGsra1FPp+P3d3dpe/0C2n4/Pnz3AVrGczGxkYyfXFxMda2brrxRnwNkQ4SFo2437U27a6rd7vw3hj36g8RX8O65+fn97oLVyqVpCN792dVtVq91b19e3v7VrB2c3Mz/vnPfy71j2wAAAAAAAD4SrgWYESDXE733bt3yfSwl82d56DhvJtFMPkmdNG9r14h2+5LR9N73BZBoVBIpmu1WoqVTN/+/v69y56fn58PfQzrDtreBJiAwd19D3733XfJ3wTXF9ckf6yxv78fv/zySzJfqVSiXq8/uM7BwcFEQquT1Cvce/dHbOMEgLPZbJyenkaz2YzNzc1bf7v7WXU3TNutWCzG+fl5Ukt3TYMGmwEAAAAAAFgcwrUAIxokmPDhw4dkuru72KD6BTIvLy8jn89HPp+ParU69HafmkkHWxctGDquSQViH1p/3sPH3377bdolpKpQKMTnz59HDtpGRN+wEvC4QqEQZ2dnyXytVot8Ph9v375NsSpGUSgUklBmrVaLRqMx1vYODw9vdcPt/vHXXQcHB3PXtfZGdx1v374d6Edso+yjVxfbxxSLxWg2m3F2dnarzu7utZVKZWHfj5eXl/Hq1Sv/pgAAAAAAALgj0573NAvAnOoOCvY7lA6yzKD7uPHx48f46aefkjBGNpuNZrM59LZn6eZxzOojp1f32Glst59l+mgddiz7veYfG7uHtjut53NY476fl0mr1YpSqdQ3iLOzsxPff/99/O1vf7vVRfGpjxuMq1Qq3evoubOzE+VyOVZXV1Oq6t8W5TiZdp2vXr1KuqCfn5/f6o4+inq9Hs+fP0/mc7lclMvlWyHSu8Hazc3NW11YxzGJz+nd3d04Ojrq+bdmszm1EPDFxcW9jr/FYjFOT08f3Wer1Yoff/wxLi8vI2I+z8kbjUYcHR3F+/fvH/2RyzzW30va718AAAAAAODpEK4FGMH19XWsra0l87MK17bb7VhbW7t3KejDw8PY398fevuz0CtUOe2PnmmEMccJh05aJpOZy6DyQ8sK1y63XuGkbDYbOzs7sbe3F99++22USqW5uPw4LLp+77dyuZz6ucDKykq0Wq2IiPjy5UvkcrlU6+kn7Ug24TwAACAASURBVON5d9B1a2trIsfG7rF/zCSDtb32PcqYtlqtePbs2b3HUCwWb3Vtnjd36y6Xy3FwcDCz/V9dXUWtVotPnz5FrVYbu0v8IpzfpP3+BQAAAAAAno5v0i4AYBG9e/cumR7l8uijOjk5uResjXj4EsBpGrTT67zr9zja7XZyG3f7g47VzXL91rm5f1nGnsVQKBTit99+u9V9sdVqxdHRUeTz+Xjz5k0cHh6mWCEsj37vtzdv3sw01NfLixcvkumbzqzct7GxkUxPapzK5fJAy006WBvxtXvyuG4C4nfN+48ybn5IcqNSqUQ+n7/XYXqSGo1GHBwcRD6fj3w+H9vb21GtVscO1k7ieQQAAAAAAFgmwrUAI/jw4UMy3S/M0CsEO67uUO/dUM08GjV0Oi/h0IfqmFSgtnv7jz3ux8bk7t/HHcdh1p2H54t0ZbPZOD8/j/Pz81s/OugO2QKT0e/9VqlUUg3Yvnz5Mpn+9OlTanXMu+4Q8riByBv7+/vRbrcf/CFDsViceLA24usVFIrFYkTcPj8d1v7+/q36d3Z2Jl7rNBweHsbm5mYyf3V1FaVSKTKZzFhB2+4Qbfd547Nnz6JSqQz82snlcnF6enrrR2G9bsfHxyPVCQAAAAAAsKwybdfRAxjaIJcj3d3djaOjo4j42t328+fPI+/jRrlcjkqlEoVCIc7OzmJlZeXROqZhlMuxDrpOr8c97GO7u41RxuahsOgkxnrU7fd7bI+FWycxBsM+b93rjFrfJF4Pk+IyxMPpdel64waT12q14scff4zLy8vkvllfmv5GrVaLV69eRcTXQN+XL19mXsMgVlZWkh8mffnyJXK53Mxr8JmyXFqtVpRKpahWqzPdbzabjY2NjXj58mVsbGzcCm4vK+8dAAAAAABgVnSuBRjSoB1pB+luO4x2ux0HBwfxxx9/DNR1rFdn1HH12t6g2+/ujPXQ9oe5f9xl+63/UFB0Hr/EX9ausfMUrGU4jUYj6vV6NBqNtEuBpXfTxba7c2alUom3b9/OvJZpdGSdhu46a7VaKjV0n8d1/wiBxZTNZuP09DSazWZsbW1NfX833WibzWZ8/Pgx9vf3n0SwFgAAAAAAYJaEawGG9O7du2S6+1LMd3WHcMe5RO5dq6urjy7TKwD72G3YbS6KYcKY0+5WO8h+bv4+aJB53p+XYV5fj70mBWvnR79LVY96yWpgPP0CtmnUsQhevnyZTH/69CmVGrrPDdN4rpiOm5Btu92eSND2JkTb/SO1drsdX758mUmIFwAAAAAA4CnLtCVVAIaytraWBGfPz8/7BmfHvWTp3XBhr23028c4gcvH9jPoOsOa1D4GGbdh9j+Lx/aQh57XdrvdN4Q66jh0G3Qbswj4zsPpylO8DHGj0Yijo6N4//79RIKyT2XcIC2tViuePXsWrVYrIiIODw9jf39/pjUswrGyVqvFq1evIuJrePHLly8zr6Fer8fz58+T+XkdK5g3i3CMAQAAAAAAloNwLcCQBv1Cd5bh2rt/GzfsOEpQd9yPk0H289g+xul2Oq2utbN+Lm6WF66dvKcQ5phkmDaXy0W5XNZZD2Zsd3c3jo6OIuJrF81msznT/S/CsfJuCDmtOhdhrGDeeN8AAAAAAACz8k3aBQAwWZMIOt5sY5LB2oe2NU4o9iHDbOOxoPQo4zqL0Gm3SQYMBq39qQRrl02j0YiDg4PI5/PJ6zuTycSzZ8+iUqkMFKztd6lql6yGdB0eHibTN+HRWcpms8n0JDpeT0M2m429vb2IiCgWi6nWcePt27ep1QEAAAAAAADcJ1wLMIeGCSwOEjzsF37rvo1awzDB2kFDqmmFKQftjNsdRuz3eGYdrB3UY3X3M+prZBKvTyajWq0mYdpJhGiFZ2E+dQc20/DixYtkularpVjJww4ODqLdbsfZ2VlqNezs7CTTlUolXr16FdVqNbV6AAAAAAAAgH8TrgVYAP0ChoMGF6fpsYDlvIZM+3ks0Nnr8Yza2XaQWia57N0aJ13zOCFtJqs7SHtz297eHilMK0QLi+Xk5CTV/b98+TKZ/vTpU4qVzL/Dw8MkDN1qtaJWq0WpVEq5KgAAAAAAACBCuBZgKGkHVhbRY4HLeQ1fjtI1ddCusKMEnscdp17rjxO8ntfn7am7CdUOEqTVkRaWz/X1dezu7ibzxWJx5jVsbGwk0/PcuXYeZLPZW91rI76GbAEAAAAAAID0/TntAgAWSaVSSabTCKw8ZhaBx3a7PfR++q0z6cDnIpiXxzfpYO28PK6n5vLyMkql0kAdaSO+HrdOT09Tv2w8MB2VSiUJZ66vr8fp6enMa3jx4kUyPeix6Sk7PDyMRqMR1Wo1IuJe2BYAAAAAAABIR6YtDQMwsO5QYbPZfDCg1r3sKB1Quw26/jihx0ECszfbGmU/gwZyu7czzDhMI/A56JgMEzYeZvmHxqLfcoMs32+dh9Yf9LkfJeC9KKci47ynJ+Hy8jLevXsX//Vf/xVbW1tRrVZjd3c3Go1Gz+UFaeFpOTk5iVKplMyfn59HoVBIpZa0j5fA8nJ8AQAAAAAAZkW4FmAIw3yZOw/h2mH2O0wYcxHCtbMI1nbvZ5jlFzFcO8l9D1PHPEk7zLG2thbX19ePLidUC0/P9fV15PP5pGvt5uZmfPz4MbV60j5eAsvL8QUAAAAAAJiVb9IuAID09QvLdt/u/m1c8/xleL9w6EM1z/PjuWtStfbbzt3XTq/XEMPr16E24utlxG/G+ezsTLAWnphKpZIEa9fX1+P8/DzligAAAAAAAAAWm3AtAPfMKgg5bGg3k8n0DL4O0yn1McMGa4fd9yRrjXg44DrM/cMuJyw7e+Vy+d59xWIxms1mHB8fp1ARMA8ODg7i5OQkmS+Xy6kH7Lv3/9APAwAAAAAAAADmVaYtHQMwsGEuQzrOJUvvBjAHXb9fB9pJr9NrvYfWeWwfmUym5/qDBl1HHa9eBhmPfvvrdf84Ydq7Y/TYMr2MOzajvj6mva00uAwxME8ajUZUKpU4OjpK7tvc3IyPHz+mWNVX//mf/xm///57RET89ttv8eLFi5QrApaF8zEAAAAAAGBWdK4FeMKmHZzsZ9iOtbMyzniMGn4ddrlh12m327duo+xj3G0AMFknJyeRz+fvBWvPz89TrOrf1tfXk+l6vZ5iJQAAAAAAAACjEa4FWAKZTKZvuHOY+4cJTgpZDq5fKFVgFYBhNBqN2N3djVKpFI1GI7n/JlibzWZTrO7f/vKXvyTT//u//5tiJQAAAAAAAACjEa4FWEA3YdqHQrUPLT/JjrXTNMuaBh2TYTr09treqIHaWXf71Wnwvu7QmvEBZq1Xt9pcLhenp6fx8ePHuQnWRkR89913yfT//M//pFgJAAAAAAAAwGiEawEWyKBh2mHNY7C2n1nVOuh+Zjl2s+x0W6lUpr6PRVMoFJJp4wPMSr1ej+3t7Z7dav/5z3/G1tZWitX1tr6+nkz7MQIAAAAAAACwiDLtRUpUAaSsO9j62OFzmGUfWnfaxvkYuFtnv20Nutwo606qC++4j2USdYwzTpOWyWTi8+fPtwJSk9jmXYt0GlKv1+P58+fJ/CLVDiyeWq0W29vbcXV1dev+XC4X5XJ5LkO13VZWVqLVakWE4yUwOeP8GwsAAAAAAGAYwrUAQ5jncG2vfTy2nXE/AoYJS05qPB4L1476mAbZzkOPd9nCtdOw6OHaCIEOYHZevXoVtVrt1n2bm5txfn4e2Ww2paoG53gJTINjCwAAAAAAMCvfpF0AAKNpt9u3boMsM8g6w9YwSr2j7GdSNY9q2MCzL/sBGMfLly8jImJ1dTV2dnbi73//e3z8+HEhgrURcavO6+vrFCsBAAAAAAAAGJ7OtQBDmFXn2rvrd5u3w3aa3VYn2Ql13PDsJMZhGTq7PmQZHp9uaQCD+eGHH+Ly8jIiIo6Pj2NnZyflioBl4FwMAAAAAACYFZ1rAebUtLrNLrNFH59Frx8Abrx+/TqZ/vXXX1OsBAAAAAAAAGB4OtcCDGGWnWsXxTx1rh1334N2r+23n0k852mO57TpXAvwdDQajXj27Fky75gJTIJzMQAAAAAAYFb+nHYBADAvbr6g7xeyfewLfF/wA8BX3377bdolAAAAAAAAAIxMuBaAicpkMgsfMl30+udVu90euDswAAAAAAAAAACk5Zu0CwBgsaUVRBXSBID5ls1mk+l6vZ5iJQAAAAAAAADDEa4FYCnoNgsA86VQKCTTlUolxUoAAAAAAAAAhpNpSyMBDKy7W+pjh89hll10d7vIzuLxprHPWVjWx3Vj0R/fU3pfA4yrXq/H8+fPk3nHTWAc3ceUb7/9Nv71r3+lXBEAAAAAALDMdK4FYCStVivtEgCAOba+vh7lcjkibnexBRhFrVZLpjc2NlKsBAAAAAAAeAqEawEYSTabTW3fd7ufAgDz6eDgINrtdpyfn6ddCrDgPn36lEy/fPkyxUoAAAAAAICnQLgWYAqur6/TLmFoP/3008J2o3WZ6cXhuQIAYBQ61wIAAAAAALMkXAswBe/evUum19fXJ779TCaT3KrVakREVKvVyOfzI3d1PTs7i2w2e2vbMA3tdju5AQDAIBqNRjI9jX9jAQAAAAAAdMu0JVsABtYdOH3o8Lm2tpZ0rz0/P49CoTDROlZWVh7tMjvK4f1uoHbQbYy63qhmvb9hDfo6eWzdUdZnusZ5bgEAGJ3zMAAAAAAAYJZ0rgWYgptgbURMPFgbEVEulye+zUUyz1+m6/gLAACTdXJyknYJAAAAAADAEyNcC7CA9vf34/Dw8N79xWIxms3mRLrWzrt2u53cAACA5VWpVJLpYrGYYiUAAAAAAMBTkWlLJQEMbNBLkS7iJUvvhmuHqXucdZfNJMdx2PWZvkV8bwMALLruc7BmsxnZbDbFagAAAAAAgKdA51oAmKJxOgILbwIAwG2CtQAAAAAAwCwI1wLABPUKxA4SsB0nhAsAAHfV6/XY3d2NfD4fmUxmIrd8Ph+7u7txfX09s8dxcHAws30BAAAAAADcyLS1xQMY2KCXhF/ES8ffDXcOU/c46y6jfkHZYYK3T30M59UivrcBgOXUaDTi6Ogo3r9/H1dXV2mXE7lcLgqFQuzt7cXq6upEtnlwcBCVSiWZLxaLcXZ2NpFtAwAAAAAAPES4FmAIwrWTX3dZjdOJ1vjNr0V8bwMAi69er8f79+/j4uJiLoK0g8rlcrG3txc7OztDrXd5eRmlUunWY93c3Izz8/PIZrOTLhMAAAAAAOAe4VqAIQjXTn7dZTdsyNbYzbdFfG8DAItjkt1oV1dXo1AoxOvXr2NjY2Mi9V1cXESlUol6vT6R7Q1KsBYAAAAAAJg14VqAITylcG3E4LUL1z5s0ICtcZt/i/jeBgDmx6Q70OZyuSiXy7G1tTWB6sYzreBtsViM09NTwVoAAAAAAGCmvkm7AIBlcXl5Gfl8fuhOpfNCUHB6Hhvbdru98OOfyWSSGwAMqvv8KZ/PR7VaTbskmIh6vR67u7vJ6/vm9vz58zg6Oho6WLu6uho7Ozvx97//PTl3bLfb8eXLl7kI1kZEFAqF+Pz5c1Jbs9kcu7adnZ04OzsTrAUAAAAAAGZO51qAITzUtTKfz/f8knyRDrOjdK8dp+Mty+OpdHR9Ko8TYFb6nT/lcrnY29uLnZ2dFKqCwU26E23EfHWjBQAAAAAAeKp0rgWYkJ9//vnefX/6058WqgNbr7DgsJ1IBQ4BgEH1On+KiLi6uopSqXSr4+dNd9uTk5MZV8n/s3e3YJJU59+AT+21okexURncoIJcOW4aB24dMfknUVlkVEDBKogKjsjwIpAg12VGgWMlLuMy6zaKcfUKqpvZoT/q41Sdc6ru+7r2omfZ6X7qs0+d+vXTpdrXPTbmn66daPd1oM21Gy0AAAAAAMBS6VwL0EGbrpWfffZZ+Oijj177u9K6T3XpRnv/33pbWZ7Ly8vwzjvvhBB+3tf/85//JK5oPDrXAoxj1/gpB2dnZ+HJkyfhb3/7Wzg9PU1dzl5jdE9lmNPT0/DkyZPw/vvvh/V6nbocAAAAAAAAOhKuBeigbbBuV0BktVqFn376abTaYmsTsO0SwmW+Pvjgg20XwQ8//DB8+umniSsaj3AtwPhub2/DBx98UFT3f5ZLiBYAAAAAAGCehGsBOugSrLsfsH369Gn44osvRqttDLvCs8d4W1meN998M9zc3IQQQvjuu+/C+fl54orGI1wLkI7QLV0JvgIAAAAAANCXcC1AB0sM1nUJ2C5lnfC6JR0XS1pWAEL49ttvw7Nnz8KLFy9Sl3KQECkAAAAAAADEJVwL0MFSg3VtArZLWh+8bknHxZKWFQAAAAAAAABgqR6kLgCA/B0KEdZ1LWQIAAAAAAAAAADMxsPUBQBQBgFaAAAAAAAAAABgCYRrASBD19fX4fLyMlxdXYXLy8twfX2duqRWqqpKXcJrzs7Owvn5ebi4uAjr9Tq8/fbbqUsCAAAAAAAAACBzVa0VIUBrd4ODTp/z9fz58/DBBx8UE2ilu7Ozs/Dxxx+HP/3pT51+zzkAAAAAAAAAAGD+hGsBOhCsW4a33npLsHYBVqtV+Omnnzr9jnMAAAAAAAAAAMD8PUhdAADk5i9/+UvqEsJqtQrvvvtu+PTTT8N3330X6rrO8s/p6em25m+++SZ5Pff//PDDD+Ef//hHePLkSXj06NFr67hr19p//vOfUbYtAAAAAAAAAAB507kWoKXnz5+H9957b/tz19Pn9fV1uLy8DFdXV+Hy8rJTZ9Szs7Pw7rvvhvfffz+s1+tOrwtjWlIn17sdjX//+9+Hr7/+OnFFAJDW8+fPw9///vfwxz/+sfOHVgAAAAAAACBnwrUALb355pvh5uZm+/Pd0+erV6/C559/Hr788stOodkpnJ2dhbOzs3B+fh7eeOONcH5+Hk5PT8Pbb7+dujRmYEnh2k8++SQ8e/YsPHnyJHz99ddhtVqlLgkAktqMj1erVfjpp59SlwMAAAAAAADRCNcCtHC/a+1crFarcHt7G0II2wDuxcVFWK/XwrczcX19Ha6vr8OLFy/Cq1evwtXV1fbv9jk7Owsff/zx0Q50Nzc34c0339z+vIQhxc3NTTg9PU1dBgBk4eTkZDuW/O9//+s9EgAAAAAAgNkQrgVo4e7Xwfe1Wq3Cer3ehlfPz89b/+6LFy/Cl19+Gb799tvJOuNuutvqeJufNp2SHz16FF69etX7Ndp0oPvrX/8aPv/88xBCCI8fPw4//PBD79cDAMrz3nvvhefPn4cQQvjiiy/C06dPE1cEAAAAAAAAcQjXArTw2WefhY8++ujgv2nb7XNqP/74Y7i5uQnff/99+N///he+//77cHNzE3788cfez3m34+0xOuK2kyJAfcjTp0/DF198sff/39zchLfeemu7H3zzzTfhyZMnU5UHAGTgX//6V/jzn/8cQghhvV6Hf//734krAgAAAAAAgDiEawFauhuwPRY8LNGLFy/C5eVluLq62gZwSxArvPvq1avw4sWL7X9fvnwZfvzxx3B9fZ1F2LWvs7OzcHZ2Fh4/fhzeeOONsF6vw6NHj8Ljx48HPa+utQDAq1evwm9+85vtz6YXAAAAAAAAmAvhWgB2GqPjbQ42YdON29vb8P333yesqJ/UnZLfeeedcHl5GULQtRYAlqyqqu1j0wsAAAAAAADMhXAtAKO62xH38vIyvHr1KnVJWTo9PQ1PnjwJ77//fliv16nLOeqTTz4Jz549C0+ePAnffPNN6nIAgESEawEAAAAAAJgj4VoAihYrvPvo0aPw+PHjcHp6Gn73u9+F09PT8Pbbb/+q0y0AAL8QrgUAAAAAAGCOhGsBAACAXoRrAQAAAAAAmKMHqQsAAAAAAAAAAAAAgFwI1wIAAAAAAAAAAABAQ7gWAAAAAAAAAAAAABrCtQAAAAAAAAAAAADQEK4FAAAAAAAAAAAAgIZwLQAAk6i+epm6BAAAAAAAAACAo6q6ruvURQAAAADlqapq+9j0AgAAAAAAAHOhcy0AAAAAAAAAAAAANIRrAQAAAAAAAAAAAKAhXAsAAAAAAAAAAAAADeFaAAAAAAAAAAAAAGgI1wIAAAAAAAAAAABAQ7gWAAAAAAAAAAAAABrCtQAAAAAAAAAAAADQEK4FAAAAAAAAAAAAgIZwLQAAAAAAAAAAAAA0hGsBAAAAAAAAAAAAoCFcCwAAAAAAAAAAAAAN4VoAAAAAAAAAAAAAaAjXAgAAAAAAAAAAAEBDuBYAAAAAAAAAAAAAGsK1AAAAAAAAAAAAANAQrgUAAAAAAAAAAACAhnAtAAAAAAAAAAAAADSEawEAAAAAAAAAAACgIVwLAAAAAAAAAAAAAA3hWgAAAAAAAAAAAABoCNcCAAAAAAAAAAAAQEO4FgAAAAAAAAAAAAAawrUAAAAAAAAAAAAA0BCuBQAAAAAAAAAAAICGcC0AAAAAAAAAAAAANIRrAQAAgF5Wq9X28fX1dcJKAAAAAAAAIB7hWgAAAKCX8/Pz7ePLy8uElQAAAAAAAEA8wrUAAABALxcXF9vHV1dXCSsBAAAAAACAeIRrAQAAgF7W6/X2sc61AAAAAAAAzEVV13WduggAAACgPLe3t+Hk5GT7sykGAAAAAAAA5kC4FgAAAOitqqrtY1MMAAAAAAAAzMGD1AUAAAAAAAAAAAAAQC6EawEAAAAAAAAAAACgIVwLAAAAAAAAAAAAAA3hWgAAAAAAAAAAAABoCNcCAAAAAAAAAAAAQEO4FgAAAAAAAAAAAAAawrUAAAAAAAAAAAAA0BCuBQAAAAAAAAAAAICGcC0AAAAAAAAAAAAANIRrAQAAAAAAAAAAAKAhXAsAAAD0tlqtto+vr68TVgIAAAAAAABxCNcCAAAAvZ2fn28fX15eJqwEAAAAAAAA4hCuBQAAAHq7uLjYPr66ukpYCQAAAAAAAMQhXAsAAAD0tl6vt491rgUAAAAAAGAOqrqu69RFAAAAAGW6vb0NJycn259NMwAAAAAAAFA64VoAAABgkKqqto9NMwAAAAAAAFC6B6kLAAAAAAAAAAAAAIBcCNcCAAAAAAAAAAAAQEO4FgAAAAAAAAAAAAAawrUAAADAIKvVavv4+vo6YSUAAAAAAAAwnHAtAAAAMMj5+fn28eXlZcJKAAAAAAAAYDjhWgAAAGCQi4uL7eOrq6uElQAAAAAAAMBwwrUAAADAIOv1evtY51oAAAAAAABKV9V1XacuAgAAACjX7e1tODk52f5sqgEAAAAAAICSCdcCAAAAg1VVtX1sqgEAAAAAAICSPUhdAAAAAAAAAAAAAADkQrgWAAAAAAAAAAAAABrCtQAAAAAAAAAAAADQEK4FAAAAAAAAAAAAgIZwLQAAAAAAAAAAAAA0hGsBAAAAAAAAAAAAoCFcCwAAAAy2Wq22j6+vrxNWAgAAAAAAAMMI1wIAAACDnZ+fbx9fXl4mrAQAAAAAAACGEa4FAAAABru4uNg+vrq6SlgJAAAAAAAADCNcCwAAAAy2Xq+3j3WuBQAAAAAAoGRVXdd16iIAAACAst3e3oaTk5Ptz6YbAAAAAAAAKJVwLQAAABBFVVXbx6YbAAAAAAAAKNWD1AUAAAAAAAAAAAAAQC6EawEAAAAAAAAAAACgIVwLAAAAAAAAAAAAAA3hWgAAAAAAAAAAAABoCNcCAAAAAAAAAAAAQEO4FgAAAIhitVptH19fXyesBAAAAAAAAPoTrgUAAACiOD8/3z6+vLxMWAkAAAAAAAD0J1wLAAAARHFxcbF9fHV1lbASAAAAAAAA6E+4FgAAAIhivV5vH+tcCwAAAAAAQKmquq7r1EUAAAAA5bu9vQ0nJyfbn005AAAAAAAAUCLhWgAAACCaqqq2j005AAAAAAAAUKIHqQsAAAAAAAAAAAAAgFwI1wIAAAAAAAAAAABAQ7gWAAAAAAAAAAAAABrCtQAAAAAAAAAAAADQEK4FAAAAAAAAAAAAgIZwLQAAQGaqqkpdAgAAAAAAAMBiCdcCAABkqKqqaH9gSqvVavv45uYmYSUAAAAAAADQj3AtAADAzMUM6grzcsx6vd4+/vbbbxNWAgAAAAAAAP1UdV3XqYsAAADgFwKq8DpTFwAAAAAAAExJuBYAACBDArYQj6kPAAAAAAAAuhCuBQAAmDlBXWjPNAkAAAAAAADCtQAAAEQlzMuSmFYBAAAAAACYH+FaAAAYkZDhz1x2MEf3j2/7+S/urpsY62Wu51L7DAAAAKnN9ZqbvJkTAQBK8DB1AQAAzF/11cvt4/oPv01YyXRMSr8udtAOWJah541cz8l96nIOBQAAYKhcr5NZDh9aBwBKIFwLAMBr9k2s9p3cuhusTcmEcT5ibAuTreSoqir7ZmO1WoXb29sQQgifffZZ+PDDD5PW02W75P5+0bU++yQAAOQj9rwb08j9OhHmYOrjzHkXAGjjQeoCAAD4taqqkv2JXVMOcqmDeHLav1guk/D7PX36dPv42bNnCSvprq7rTn9ylnt9AACwJG3n3ciDbQLzluN9DAAgP1XtTgsAwCRM0CyXIXe++3/sbbNZTtt8OXyF3W63t7fh5ORk+7P1stuY50brHAAA8jF07L/08X2u80pzsvR9jOnN5bh27ADAvAnXAgD0NJfJH8ZjqP1rOR83Q7fXrmWzD8yfcO1+Jycn4fb2NoRgvcTU9jxqnQMAQF5izIksaZyf8xzSXCxpfyJvczreHVcAMC8PUxcAAJCjOU3m8AsTW+nF2gZjHKOOe4jr448/Dh999FF4+vRp6lJmxXsZAACU6dBYvu2chLmLdFyLwXhSHF9jnU9zPU87hwFAPzrXAgCLleskx0aXYVrMZYkx0Z8jw975KWF/tN/Nn861AAAAxFLCXMeSuMaHZVjiudf5DQDaEa4FALIy90mMJQ69qq9evvZzay8JaAAAIABJREFU/YffJqoEfm2sc84Sj/WlEq4FAABgbHOfM23D9TaQI+fnedi8x7Tdnt6TAJbjYeoCAAA2SpyEcAENZes6aQYAAAAwtbquFzl3Ye4VyN3d89QSz9Nz0XXbbf699ymA+ROuBQCykOOkg4viuHSsJWeOdwAA6M5NZYDpONcC5C3n83SO9+DmwPUQwPwJ1wIAi+aCFwAAALq7e4P+2M16194AAJCODrvjErIFmK+qdnYHADKw62LeMAWA3N1///LeBQAsQewb8sZQAABAKvuub+5fp/hQIcDy6FwLAGShrmuflgUAAIAF6jsf4OY1AAAwVNt7lO5lAiyPcC0AAAAAANBa1w5OY+nzugK5/cTcxrYBAAC5aTtGvfvvBG0B5k+4FgDIVlVVbrgAAABA5o5du+d001kg97AptlXbr90FAAAASEm4FgDIhq9TAQAAgPkpKXy7S5f6SgyI5rL+d9VR4voEAGCZNA0CmB/hWgAAAAAAIJm+N6BzCYXe1aamHG6457judhG4BQAgV7uaBgnYAsyLcC0AAAAAAFCcPjetcwiV9q0hdQg5VkhgaD13f3/pwQXrAgAgLd/KCTBvwrUAAAAAAMAilBrIDWG6OsYOae57/j7LV0qn4D5y2e8AANjPmA1g3oRrAQAAAAAA9ugSziz95nrKIOqu146xPqfuFHxI6fsHAAC/MLYDmD/hWgAga1VVFdthBAAAAFiWNnMYbsK3N1bgtg3bCQAAAJZNuBYAyEpd125eAAAAALPV90PE5kt+tll/1sfPfCgdACAPxmUA8yNcCwAAAAAAkLm7N+vvBkuXehO/7XKXHMJd6rYFAACAHAjXAgAAAAAAFOJ+WLSqKiHMA3LrFGxbAQAAQBmEawEAAAAAAOAOIVgAAABYtgepCwAAAAAAAKAdoU8AAACA8QnXAgAAAAAAAAAAAEBDuBYAyF5VValLAAAAAAAAAABgIYRrAYDs+HpDAAAAAAAAAABSEa4FAAAAAAAAAAAAgIZwLQAAAAAAAAAAAAA0hGsBAAAAAAAAAAAAoCFcCwAAAAAAAAAAAAAN4VoAAAAAAAAAAIAWqqpKXQIAExCuBQCK4CIVAAAAAAAAyE1d16lLAGAEwrUAQJZchAIAAAAAAAA50RAIYDmEawEAAAAAAAAAADrSMAhgvoRrAQAAAAAAAAAAAKAhXAsAAAAAAAAAAAAADeFaAAAAAAAAAAAAAGgI1wIAAAAAABSiqqrUJQAAAADMnnAtAFAMN48AAAAAXlfXdeoSAAAAAGZHuBYAyJabQwAAAAAAAAAATE24FgAAAAAAAAAAAAAawrUAAAAAAAAAAAAA0BCuBQAAAAAAAAAAAICGcC0AAAAAAAAAAAAANIRrAQAAAAAAAAAAAKAhXAsAFKWqqtQlAAAAAAAAAAAwY8K1AEDW6rpOXQIAAAAAAAAAAAsiXAsAAAAAAAAAAAAADeFaAAAAAAAAAAAAAGgI1wIAAAAAAAAAAABAQ7gWAAAAAAAAAAAAABrCtQAAAAAAAAAAAADQEK4FAAAAAAAAAAAAgIZwLQBQnKqqUpcAAAAAAAAAAMBMCdcCANmr6zp1CQAAAAAAAAAALIRwLQAAAAAAAAAAAAA0hGsBAAAAAAAAAAAAoCFcCwAAAAAAAAAAAAAN4VoAAAAAAAAAAAAAaAjXAgAAQAR1XacuAQAAAAAAAIhAuBYAAAAAAAAAAAAAGsK1AAAAAAAAAAAAANAQrgUAAAAAAAAAAACAhnAtAAAA9FBVVeoSAABYGGNQAAAAgGkI1wIAAAAAABSoruvUJQAAAADMknAtAAAAAAAAAAAAADSEawEAAAAAAAAAAACgIVwLAAAAAAAAAAAAAA3hWgAAAAAAAAAAAABoCNcCAAAAAAAAAAAAQEO4FgAAAAAAAAAAAAAawrUAQJGqqkpdAgAAAAAAAAAAMyRcCwAUoa7r1CUAAAAAAAAAbGkIBDBfwrUAAAAAAAAAAAA9CNgCzJNwLQAAAAAAAAAAQE8CtgDzI1wLAAAAAAAAAABwRF3Xnf4egHI9TF0AAAAAAAAAAABACe4GaauqEqwFmCmdawEAAAAAAAAAADoSrAWYL+FaAAAAAAAAAAAAAGgI1wIAAAAAAAAAAABAQ7gWAAAAAAAAAAAAABrCtQAAAAAAAAAAAADQEK4FAAAAAAAAAAAAgIZwLQAAAAAAAAAAAAA0hGsBAAAAAAAKUNd16hIAAAAAFkG4FgAAAAAAoABVVaUuAQAAAGARhGsBAACgI6EGAAAAAAAAmC/hWgAAABjI1/MCAAAAAADAfDxMXQAAAAAAAAAAAGkd+7YmHzAHAJZE51oAAAAAAAAAgAU7Fqzd/Js2/w4AYA50rgUAAAAAAMicIAsAMJau4wwdbgGAJdC5FgAAAAAAoDBCKwBArnS4BQDmQOdaAAAAAAAAAABCCPs/xBO7wy3d+HAVMfQ9Lu1/wBIJ1wIAAAAAAAAAcFBd1wKzCd1f98KOdDXk+N38rv0OWBLhWgAAAAAAAAAAjmoTrBPAnYb1DADjepC6AAAAAAAAAAAA8lBV1aDgps6WAMAc6FwLAAAAAAAAAEA0Arbx6VRLLLuOT/sXwK/pXAsAAAAAAAAAsFCCsGWo63r7B/rat//YrwB+TedaAAAAAAAAAIAFq+ta58qCCEIyBvsVwOt0rgUAAAAAAAAAAACAhnAtAAAAAAAAAAAAADSEawEAAIDZqr56mboEAAAAAAAAClPVdV2nLgIAoI2qql772TAGgFS8JwEAMDVjUABgbMYbAAC/0LkWACjG/Umc+5M8AAC76F4LAAAAAABAF8K1AAAAwKzVf/itgC0AAADAwlVVpXELANCacC0AAAAAAAAAALN1N1QrZAsAtFHV979fGQAgY/cnOwxlAEjB+xEAAFMzBgUAxjaX8Ubb4GypywcATEPnWgAAAAAAAAAAXlNih9fS6gUA8iVcCwAAAAAAAABA0boEa3WtBQCOEa4FAAAAAAAAAFi4kgOngrUAQGwPUxcAAAAAAAAAAEB6dV13Cqqm1KZOQVq62uxX9h0AhGsBAAAAAAAAACiGYO3r7q6PJS13bHfXo5AtAMK1AAAAAAAAAAAU4VCwdolByFI6DefK+gNgnwepCwAA6GKJkyIAAAAAAAAI1t4nGDpMm/VXVZX1DLBQOtcCAAAAAAAAAJC1XQHHJQZqNwQ+h7H+ADhG51oAAAAAAAAAALIlWEtMOiAD0IbOtQAAAAAAAAAAZEmwlpj2BWs3+5T9DYANnWsBAAAAAAAAAMiOoCMxHepYu4/9DWC5dK4FAIrS56IXAAAAAACAsgjWEpP9CYCudK4FAAAAAAAAACAbgpCMzf4EwDHCtQAAAAAAAAAAZEGwFgDIgXAtAAAAAAAAAADJCdYCALkQrgUAAAAAAAAAICnB2uGsr2F27YMALJdwLQAAAAAAAAAAyQjWDmd97dc3NGudAiybcC0AAAAAAAAAAEkI1rJLVVVROsm23b90rQXgPuFaAAAAAAAAAAAmJ1jbz9yDoHeXb0jIdkiw1n4IgHAtAAAAAAAAAACTEmjsZ0nB2tjPI1gLQBcPUxcAAAAAAAAAAMByCDSyy6Fg7eb/9d1PSgzW3q0vp7oAlkK4FgAAAAAAAACASbqi5h5o3Di2LnKsuWQx9702z5X7fjj3DsUAJXiQugAAAAAAAAAAAPIzRdgwp0DjRttwpgDkeGLuF22eK6f90H4FkAfhWgAAAAAAAACAhRPo+1nX9ZDDesspGBpTn+Xq27U2FznXBrA0wrUAAAAAAAAAALxmjMBmCcHB0oKqpdW7z1jLUVLX2hKOD4AleZi6AAAAAAAAAAAA5m1XcDCXUON9x+q6vyxVVWW7LCVpsw6HrutcA6y51gWwZDrXAgAAAAAAAAAwqZLDqCXXXppd67pvELWkgDcA6QnXAgAAAAAAAABA5nLoblpV1eR1xAjACtYC0JVwLQAAAAAAAAAAcNDdgGqKkO0x++rJPVib23oE4GfCtQAAAAAAAAAATGpugcKxlyf1+kr9+sfsC9COHazdhIz7ho1zD/4CLJlwLQAAAAAAAAAAo9oVGMw9sHnI3JbnkBKXa6pg7a6/G7K+BGsB8iFcCwAAAAAAAADA6PYFUksMb4YwbhAyl/WSQw27HKtrrGDtkC61AJRFuBYAKJoLVwAAAAAAgHLsCzgKLO4ObqZcLzltj6GdgmMFawFYDuFaAKAovgoFAAAAAACgbIfu9yw1wJjbco/V+XWIvp2PpwrW1nW9/RPrOQFIR7gWAAAAAAAAAIBJzSVgO8eOqPuCtbnV2caUwdqhUoeX79vVSRlgSR6mLgAAAAAAAAAAgOW5Gya8H+Db/Jxb4HCXITXmFlzsEqwtYdsM7WrbNljbdX/tut2rqpp0fee2XwKkoHMtAAAAAAAAAABJ7QsO6pw5nS4B2hTB2jH2g0P7V5tg7v3gcZv9tc163rV+HQcA09K5FgAAAAAAAACA5PZ1SJ2jPss55vrJvTPt2PvF/c6zbddHnw60bZ538/dLOR4AcqRzLQAAAAAAAAAAWcgp0DmWvsHaKd19vRwCnlMt/77OszFef+oA82ZZcth+ACXSuRYAAAAAACBzu75udgnBEwBgmXZ17JzL+Ke0oGNOHW3bdnLtUt9U2yNFsBaAYXSuBQAAgIFMVAIAAABAXLuCh3Oeh0sZHO6yXvvUGbOD6rHX71rfkPU+ZHnmEBQHmDvhWgAAAOjIxCcAAAAAjG8JAdu6rrfLuW/eceoOpzFfb1cH4qFir4/NNtj1vPv+Puf9MOfaAEoiXAsAAAAAAAAAQJZKCjYe69Dap+6Uwdqh63ns4G5sbZc31/1vn5zXOUDOHqYuAAAAAAAAAAAA9qnr+migMVbgsW8QsU99KUOPfYK1XerNbXmPGTNYGzOMW1VVUYFzgJLpXAsAAAAAAAAAQLFihxenCCrmFpA8Fnydc7B2al3WRZv95NB+Y70D9KdzLQAAAAAAAAAARRk7iLqvQ+iYr3ffWK8/5rpbWrB2s2z71mmMdb2rc3Ob54253qc+HgByoHMtAAAAAAAAAABZSxHsy7mT7Jiv1Xe5Sw3Wtl3erusl5vro+ntD13sJ2w1gbDrXAgDF80lJAAAAWLbqq5eh/sNvU5cBEEXKIFcK5naBY7qcF2OcU3Z1CB3zXDX1ef/Y6/UNhM41WHvo/x9avjHWx64OtjGf/xj3ZIGlqWpnPQCgQPcvHA1pAOar7eTy1O8F3ovKJXwDAPNUffUyhBBm/T5vDAplWVpIdijnNEgvt7FG1/NozHr7BCMPrb99z9cnKDl0O/Wpc+jzjiVGgLXv+3XXbr+p989Yr5X6vAAwJZ1rAQAAGN0UNxTHeg2ThQAAZZhzqBZIS0gWYFo5nHePBV+7iBms3ff8Y3TsLUHM7dT1dcf891M/HwC76VwLABTJpyQB8lLixOsUvD8BAKQ3t462d8fexpvQj2vYPDmnQXo53Hvp8i1WY9e7r5Zdr3Ook+i+Ors8f5fX6/t7fesZshwxxO7ke0zbjsJ968lNDucFgFSEawGAIrmQA5iWG4/cV/p7b/XVy9kEbACA4zYB2xDKD9nOJVwbq1MbhDDPa9Y5HwdzDR/BHEx976XL+btNoDVVuPZY0LVtuHZoKLRPCLZNnV2er+3vxjRFuHbMwHPu3JMFlky4FgAokgs5gPhyvhnZd/KS8e26GeB9GQDIzd1w7SElBG9LG3cNGaeXsHxMo+TrPfvxr801fARzMOW9ly4dats+xxj1tjlnHatj1/+PcS7s+mGFQ3V2rWfqYO2hMXCM/SDW8pQ2Vm/DPVlgyYRrAYAiuZADOC63m4+lnqtzW4+5idVpAwCgj9Zjtf938/rP/3carYapxz253rAfY9yc0/IxrhKuu+yPcQjWQt5SdYLdpc+H7cc6n/QJzx76/7vEDIR2DdeWFKzd9TpjdK713vQL877Akj1MXQAAAABxpL4ZOddJtT6dHvb9GwAA2itlLDW0zhLH0aVsG9LKfT8p8dgrXe77BDCu2MHaXMQ4t/Vd3n0dcLuIFaydKtgc+7UEawE4RLgWAABgBqa4QWVSsbslr7Oqqha9/ABAN0sOXA1Z9tLXm/HiPOSyH9qfymS7wTJM3el0KjGCmUOXf1fAdvPzoc60+/6+a7B2zO031uvlMnYBIH8PUhcAAADAMDEnA+u63vsHDtG5FwBoq6qqX/0Z3f+djv8a7OUao1y7jtfJj9/GoetV+1OZbDdYhrkGa3fZtzxd/z7W63Z9r84pWLuLYC0AU6vquY1WAIBFaPNV3ABLsaQJ6px4L9rNegEAdhnzJnbq8YYb9L9IvS0YJvW+bP+ZtxxCWcBxsed19r23xDr+p5qH2ncOy20ebMh7eY7B2qk/xMNuue3nAFN6mLoAAAAA4jK5BQBALobeEC9hbDtW6CR3JWwbdhNUAWAOpn4/u/96OY7hdtXZ9vf2WcKHI+a2PADEI1wLAABQsBwncQEAIITuY9Wl3tTusty6RtHVVNeM9sX47m67Oa7fOS4TMJ0Uc6LHgqu5nNe6BGz31VzCcg41l+UAYFzCtQAAADNiUpDcVFVlvwSABTp2Q9/4AI5rO5YeO2DkeJ2eD9ICc9G3k2ppcnuvbLveN//mbv05BWvH2n9y214A5Eu4FgAAAIhmKTdNAIDDdo0J3MSG9jbHz9Rja8cpY3CNCMu2a1y4K9Q59DV43a51su983OY8nWodH3rdXXXbFwCISbgWACBDxyaW+k5Im1QAAABgKq5BoZ8pgoiOT1Ky/8Hy7Pswdp+QrcB+f30/FJ/refv+8uRaJwDlEq4FAEjo2CRG7Ekin+IFIIW2X2cLAADE/zYIY/GyCI0BcxXj/c05cri226GU8UMpdQJQJuFaAICRlDLJE/vrlwCWSoD0F7HDAABAWXSPSs/YtHyb7dd2XG1704fzNTC1IR1szTXFc2zuznsCAPxMuBYAFmAJEw5LWMaxufEG0I0AaTfeZwBgGYyP0ttsAx+mnQfbL77SAqVj1TjV+dr7AnDfoTm1LueMXM7hudTRVal1A8CUhGsBoCAmIrmrz8THsX1I8AmAWISPAQCmZ/wFux0LcS1tPizluWJp6xrYbei8Uapzyf26ndMAYN6EawEgE25+LNf9yZd9+0KMSZq2rwUAh7iJAADs4hozLeufNu7vJ3Mfz7c9LnL5wPmQ49h1GlCau+eqkjrWpn59AGA6wrUAMDE3OpalzyTLlJ983vXp8FxuJgCQp6E3e73HAADEM/fx1dLCgmNuz6V1bu1z3RJ7/bddt4f+Xdt6ds3v7fv9XetmbtsfKE/bTrbOVwDAlIRrAWBkuYRpTTiUZcrt5Wu7oVyOXXLnPQYAlkNYaxpTjK9y6Wy6tA8Db5Y3Zth1iWPxtsu8Wb/H/n3fgPfd32sbdO27vZa4nYF5mvP7PJTKOANYOuFaABjBmBcaJheYwtxvWMFcOW6XZWldvACAshifTG9X8Lbrdtg1pzXXzqY5GWMucWlBiNjdDoccC23XfYxt1CYc3Ga5zQUCAG0YLwBLI1wLABENnRB1QUIqOgsClMU5GwCA2GKF9GJZ0lxFzGVtGzKd07o9tiz79tt9vzfFuslx/XcJ0gvdA8D85TheAZiacC0ARND14sKkIwAQU0ldhkqqFQBoZ8ybroee25gCXtc3ZFqqMZa3y/ls17XNlCGUXa8VIzh97Jrt7vML2QLAcni/B5ZIuBYABor9lWMA0MZUN+yWdnOW+ObWFQsAOC7WGLFNJ9WYr1e6IWOutiE9H5TKV5cg+hzG50OC9zGWf/Mcd89DbZ93rPU/xbE5h30H2M8xDgDwOuFaABhA9xQAUth343uK12G+7m5v4xgAIDVj0W7aXCPsG+8d+t3cPigl3NtN23XVtktp2+e7v8/E3mZ952Rj7cuxg+xTPs/UvweUzXsuALB0D1IXAACl2jehWNe1CQcAiufGWT+lrrdS6wYA5snYZLi2nTun+uBeXznVkrMh27FLGLWqqtYdpbv+3lD352Q3r3loX+/7Oru0ef7Uwdq+r3EszOw4hXkw/gIA+DWdawEAAAoyxc3vtpPpbqDl18mrjy71l76sAED+unZg3fxsbBqH9ViePteIm+uY2F1epw59brQNkw/V5fgY41oxRcfeQw0mgHlznAMA6FwLAL0N6VIAALFMEazddKK5/wfsBwBATG1DczHHIOZxmJsxOta2UeKx1DUsG0Lc5Wzz+rE773apRbAWAABYOp1rAWCAOXSrA6AcY7/n5P6VsMRnmwMAQ435Nedjj0vuh9ZKHQeZmyKm3IO1fedjY4SOYxr6OofWw1hz1n1qdn4CAABKJlwLAAMJ2AIwV6WGC8ifr24GgPmKFb4a6yvODz3HXMYoc1iGQ+ayncYyZP3sOxZjHHNdajq2DLG2f9flij0HPPT5jq2jmJ1nY61zxy4AAFCSB6kLAAAAoB83pRhiyu5w9lUAoIuuY4eYQbElfYD6/rJ2+Vr4KRlLdhez++zU+8DdjtJTv/aUAdJ912Mxj8P7z7Xv+bs+DwAAwFLoXAsAI9BBA4DYxr6pmMNNc6aT4muXAQB2STkO3Yx/7tZQ+pho7PpLXz9ztK9D6ebvxt5mbY7htjXkfF2aQ20pgrGOeQAAYMl0rgWACEwyAjC1mO89gpbY3gBALtqMS2KPXTbPZ0xEqQ51JG3TAbZLcHSM4yRFl9ou+q6ftuvq/vZzLgIAAMiDcC0AQAKbmwY53zgA8lHqV2HCId4DAYAhNmG0Kb/Gfc5ifhU96Rzaj/d1tx07WHuspkOvn/q43Fdfl7qO/dt9/z/1sudSAwAAQEoPUxcAALA0bk4BQy3pBtecvqI3F33fh4a+f+37uloAYLnmMjaoqqr3WDXX8a5vtyjXZjvtC9Me+v9tnrfv7+TQHffY87ap8dBzxA7KTnnMzeV8DADEYWwA8DPhWgAAALJkAm8aJdzoBQCWocTxxWbMuvlv22XYF3zs8hz3jfl7uW2bIYHmpdgXou1zndW3s3Gs18rF3druf3gw57oBALrwQTuAXwjXAgAAZGzsgGlJAVY30IcraXsDAOQu1TcCjC3H+nwLwn7HAp4x1t0U6z72tV6b5e6ybvat2zlwbAEAh8xlzAPQx4PUBQAALJ0JbKCLsSeycpooy6mWOdBxAADISenXwvvqP7ZcYy13jK+77/vc5GPfdt63Deu63v5JJYfXP/b/HQMAAADLpHMt/5+9e7mCGknXhqushQXUgB4cZgcv2hXakDagDGlcKS84M75BMyhcyH9Qf0KS6BIRirv2XovV1ZCpaygUkp58BQAAAE2oRgwAPNQaE7Qaf4wSJh5lOdmW2sbPVrgN/X6P4/8el6kWxzwAAMA24VoAAAC61fvrX3tZttSH56FyrWfv+xMAmMtRddmagd41j/m3HB+FVO1kPGcCtmvTCv289jKWFn2PH1gCAAAjEa4FAADolBDi30Z68DbSsp5xlfUEAMooMc5Nmebrd0LHOEfzeg6PHQVre1Ly+uN52rnWXUjvb1s/YDvan6HbbuRt7Md97dkHAADAyIRrAQAGVeLBFNA3x/o5Mzx891ASAJjR2TFar2OknivWPi/HsqwvS8h+CRljewtCebbNttGvAUvRXgAAAI791noBAIA+ucHat9f9Y38BI2jZVz3mfbvdsi1H7fXR1wMA/Kp0tdWQ8WNsBdCcY9IzQtdv7/vP09n7DOXd7/dLVKOlDm0EAK7J+B3gZyrXAgC/eH44sixupvYmtZoMwKtaN8qe59Pi3LL1itSR+k43NQEA0ryO+fbGVXtjxNjx49YY9EitKrBnliF0OYxh29irYjvSNRDlODYBiNX7ucMY55ze9y9AS8K1AMBPZgggzUywFiipRH/S+sZcangiRcv+2LkaACBsPPYIHj5Xkc0177PTGmU8V3OMb5ybxjYjRo7+C4B5jHhOeF1mY6FwI+5vgJqEawHgIjyMAKC21jfmSs8/5gHkmYq9rbcjAEDPXsOyod8puSyx3yktZplyLU+OMWzIm5Xc72IEz8dD6/bq+hKIFdpvtO7fri5lDDrzOaHGfeGe5fwBIcDVCdcCwAWEPIwgnIAUwLHWryHdqvSdux+OfWWuczEAQH7PY6vSIbaj8WTomLPH8WDs2DZVSCB273riKvdWBIfn0Ht71caAPTF9mHte9Z05x/R+fupdTz+cebBPAcoQrgWAQYXeqFi7mNq7OX+lhxQpWgak7BdgFL0Ga1s423dfoe8XGgAAco0HXsdONcYZr9MvORYtOTbsbTx2xftTV1zn2dmfwMhS+7DWfV9vY5pXrbfPGT1v25bbdeR9+qrnfQzQinAtAAwoJuC5dWM+NmAr+NLfBfLV9wcwlpZ9Vo/9Zep5NecD91bndqEBAKDEeKDGD6xSlvnsMow4bgpZZveZmMUMbXnEfgZgi4qi5/Wy3WJsvckCAM4SrgWAwWxdFB6FZfe+u/UdF6A/tN4WrecPcEbNG7Iz9Ze518WPZwCAWZUK1ua4N3JmvFVqbDvCPZ/el29Ue9vVdUG8x/Ys9Xar3NMNPa60BWBNylsUW+txmUra20ev22Lmvr7Guo3QtmbexwA1CdcCwERiH9gI1JyjCiPAr3q7sVjiIWToNI+2Rex5OEcIYoQgBQDAWa2v12cdb4VWpC3BfZA0MfujVEB0ViHb9kx/EPPmslT2NZDTzGOgnunL20gpalSD9gCQn3AtAAzkSoGanm7o56iA03uQeZR2AYynp74vx0PNx/9PWa9ez8O9n6MAgGtIGZO0HlvF/OhqtHWjnBrjb+2nrNLbt8T0tQkgVewPw1sbob/rYTuRh30JML/fWi8AAJBu1ou218oMucJQuaYRWx349RVxI5i1bQE8u2pft7bee+eokc5fAMA4YsckoZ/tYYx3dhlyjr9Cp9XTmC92WXpa9iPP94hmEm5/AAAgAElEQVRKBShH2h4j6rnviTHa8gLlzdIv3O/3LtflsVw9LhsAsE3lWgCYTMnqFyNV1ngNtOZa7thgLQDpnvvRkP53rd/tvS/eOremLHfMeXqtim7o9z0EAABySa3sP2K4be/+xNE2KPEGhNzTLLntX6fd6xshjpRc5phpv27PEbdlKzX6nhxv0Do7P+C6eh5LxZppXQCAdoRrAWAQezdvS90Erf2w4qhqXszrFksvT61lyD0tgFHl/oFH7XPK83xTpjlCoAIAIIfUHx+VClDkHr/FTquXYEjIcu99xthz+wduj39LEbJNe2lDPcn5Y/zYacSGZ2sHa7UXAACAH35rvQAAQJq9G505XqM4qq31ybGebi4DzKFGf577/Frroeds4wIAoH9bQdrXP3vf7/V6/exy1V6vkceCoyz71j49audb3zma11EbarXdQo/vUvN+XY4S84iZ9t5nS20fwVoAAIBjwrUAMIGYG5+93iTt7SFIL1Vrl6XffQbMp9XDzVA9/VCiZMWxmtvfOQYA6EHqmGSEsUxv6/Y83VxvcziazlGg9DXsGGKEff8s97VWjum0ClfmqOicc94jzqOE0Y4pAACAGt60XgAA4FhPN2Vzv5Z7S8rrAktupzMPnEq8+rDWfgCuK+drMlPl6j977y+P+vTar9B1jgEAWogd89Qcr6wtW8oPnY8q8Pag5I/IUubby3YJ0dP9uz0tt/XeNsp1Dfo8j9zrtNYXPF8/5bp+3ZsHAAAA9QjXAsCAct9M3btBWyPQ01tgaJSHIQAjaPkQsNeHjznOrTnXrXZ4FwBgy1FArcT4LnQs1HIMlzrfGut1tqrtiFqPnVN/2N3jcsd+/8w9vVzrvxd+jelPUueRam/Zah+nwsIAAMAohGsBYFKtA7OhalV6fZ5XbCWMUjeuz07HjWigRz2dY84acT1ynRucYwCAVDnGEbXHITXuD+SUe8xdagz/vL1GHFu/GnEdcgQ9t6YZ870cwdqjedfcP0cB273lav12mFbzHfH4AQAA+K31AgAAefTygOes1jdbS1ZrOav1gwNgLkevpF17KEiYlL45tcKSfQQAtGY8Moej8X/s9UFKu+itLd1ut5/+nPV8nfX65/HvodMJUTJY+/jvkHnEbLve7n3FXovlDr2XnD4A1+H8AQDpVK4FAJZl6b9C3YivFG/5ukqAFD2fB2oLfUgcss3WPnOmIvmM55fexyEAADPIMdYMGTemBmt7ud9xZjlSx7Sx32tRHXpru+yN5WPeWNUyTBryY8eYULNrGwB6EXrOBQDWCdcCwEX19NBiT8mL/FY3u88Eqta4aQ/kkvJ6z6t4bJOjc2dsVabnz/e43UuNFUYZhwAA9KrleKrWuLX2+PhshdURnLn3lGv+odPa+lxqhd8Sx0zp4zD3PUQAcA4BgDi/tV4AAKCcUjd3c0336Cb5zBf5uSviCigBsWbuY3sSUvkr5HO9GGU5AQCu4H6/f/+z9e89CH0rRKyt+yOPP6HLFvP5ve3du9rB2rXvhQZmc9znWgulljBqewAAAOCYcC0ATOTszdyzFSHOep6PG9P7bB+Acmr/YGGtolLoZ9f4wQUAAA9HAdzSao5NY+cV8vnn7ddiG7auptvi2iJlnlvfiQ1Pb2l5H849QAAAgHbetF4AACCPvZvIexVMBHDy6GE7ei0ckEOpB7Ij90+9LLvzOQAAV1FqDB5TobaFkmP7UtdlZ9+w9Pz9nMHamPkCAADAGpVrAaBzpV6dV2NaIyj9SriS29NDAOCsUv3IVfunnH1+7W14tfM/AMBIRh1f770h6ezbGlKWJaZSLfWvEULn9/y5FsHa52q4OariAgAA0C+VawFgMGerOaxNL7UqxBUeNuRez9Lb7Cr7BRhPav90pnJTyjxTXiW7V1H2jLMPfM9Mw7kEAKAvM47Pzq7T0di99yq1M8i17faC2Gv/vrdv964ha+xr7QmAXvgBCACcJ1wLAANqcUF8lVdOj7aeoy0vQIrQh5Nn+8S1777Oe5Z+d4Z1AADg2nKMza8WhAz9AWKO7drq/uXz/7aa/56zP4QEgFTOPQAQ77fWCwAAxDm6Mb12cVzqZrZgzj7bB7ii3vq+lFeLPsTccO5tvfeMtKwAAIyp5zHn/X7//md2Je8THm2/5+28tb2PphFTfbjW/iz15pItPR9LAPTL+QMA8lC5FgAmUeu1Zr1ekG+Fol7//mgdSq7fFR7aANf26ENbnivW+vnn///cFx+9SjTU2WBuDqHn6JDPOF8BAHBGb9cDz//G30pX/N26BguZXug9vpjp5xYzz5j7qa7XACjF+QMA0gjXAsDgtqo+nH0t9kgX2mcfCJRY315DyGtGWlY40qo9j9RnlhL7ALSkvfnmeFjZ849Njhwtu7YMAEBJtX4czg85r19SKs0+7ruVDvT2LGTZR73GBAAAmJlwLQAMLNdN5ZFDQilVaLeqGj5eIVdiW4TeRO/hQUEPywApWvZjj3nPcPyk9EU9hjVT+/MZ9uGRK6wjAADwQ8lw69F0t77nuuSHUe/LAgAAzE64FgAG09uN55aB0Ngbz6HLWWt9Rg41QymjHxOl+qWSZu6LYtct16s9W+zXrcrBOfXQXgEA6Fvra4sef/jXi8f6p+4jP14sJ/Ta1fYEAACoS7gWAIjSSwgrR7WNnOvRW8gKRtRD31LbDBVve99vr9s2Z1/dy34rGaztZR0BAIA8Qsf4pSrdss72AgAA6I9wLQBEer6xPNJNz9gKsy0q0obOcytEFFudpERFv95DZlBaD8dAL1VDz3y/9fkl1zmg1LnkzLl4tr56a11qn8dbVrIHAKAPR+Ns48U0rcbaqddO9jMAAACz+K31AgDAyEqHc85MPyVsVFvsPG+32251vh5u3t/v91/+wFX0EFhsdczlnu9Wf0cf7YyfPfaJdgsAPBgTQLqe7iWF3t9yH4xYzhMAAMAIVK4FgAitb/r1eoO6dAWN2Iq0KZ/pRUqFYaihZlsb6Zh9lrLcox/Doy//w6htrgeztAEA4JytCpff3n9YlmVZ3n75XHuRuIiUNxmRxrbkjNneIgMAAFyDcC0ALIIhsdZuhuZ+hXjIPlmb3ww3akO35V4VX8hJsLacXvqsXP16L+tTmv43zWO72VYAcA2PYO3zfwvZAgAAADAK4VoALuEKQZ8QpSvMptgKdIV8L+XfRpAarIUccrSt0Y/B2va2V8/Hes/Ltufscm99v1Vw9Hl+Pe+T52XreTkB4OqeA7Gx/vqf/824JG09j1dc34TpaYx35X12lR88AgAAQA2/tV4AAMjtdrv98ueqzj5M6PG1evf7faqHJK/rcmbdZtoutCFY27+S57Sz++4K+/7KY4ozbDcAGMOZYO1MUn4AzK+ucH3Qq8e9M/sAAAAAzlG5FoDhtH6oMfON6djqFrm2Rch8Z9/uLb/PtbU45glXu+qQfbyt9fijV0dt1HYDgL60CNC+/fK5+jwfVKBtxziQI2tv2NJuAAAA6IlwLQBdaXkD1UOWth7b34OvMI8wk23EGYK1jObsOCH1+1vfWwuWhj4gvvIxtXbOf/z/K28XACjtysHax/8/GmsI9qUJ2W7GeaT8ME+7AQAAoCXhWgBOG+XBwww3Y68QOhEaDWcbkcJDT3IY5dxfyvMxklq59fH3JY+3GvM4mvermG0HAKQ7E6RNDcS+ntdbXlcYY7RlnEco7QQAAICeCdcC8N1MNzNnDobVDp62CObMvP+gJcFaSpm53ZwZH4V8N+Y8u/fZkIBvyPdCqrmlVnybuZ0AQE9qB2sf8/vrf/53+f3//V/yvHPJ/bYC4tmWbIkJXrt+AAAAoDXhWoBJzX4T+8o3V6+87kC6vfOCfoWSeq9GvrdsIa8lrTXmep7PmcDI8/LHTufx+ZYVcQGAfSHB2tTKtKHTf+h9HEg9tdvBjG1vpnUKCdjOsq4AAACMTbgWYACzB2VfuXm6zbYBUm09vNKvECtlXJIjjBkz37UHz7XGUyWOqZzL/tg2qcHao78DANrpKVjbiqq19fWw7VLGt72bcZ2ezb5+AAAAzEG4FqCCK9woFM4qI8eN5thpuLkN89JXU0LLdrU275LVVY+mdTY8vLc+qV7P6y3P8zNV2wKAXuwFXs8EaUOmzw+v462z0xl5zOS+EqFGbucAAABcg3AtQEYz3Dh2U7M/OfZJ7DQ8CAFgzdG5Ide5IzWcsFVdNeVcGrouj3NmSKXc2PNr7Pbcq1CdWrE2ZTkAgDoEa/M4O9YpMQYeOWRr7AgA0JbxGADkI1wLkEmPFyoj3oCnH9rPNfTYdwHjeJwrSgQK9v4u9LtH/xZzrtv7bIlz5tF6p/xwpqbcbQMA+FtI4DUlWJsapP1lXg3P/bl+RBTzg6Sj8WvoGCxkfj2+BcBYDwCgL1vjWwAgjXAtQAY1biS78AFq0NewLPleaco15BgH9VItrLXSgYncVWu3ArT6DQAoo7dg7fN3c1TKzS2lav/ZtyZsfWZvujHTSaloW7MK7tY2H7kSL1BOjz8aAJiNfhYAzhGuBcgg5Ga9ixcARjBLSJE6egjW9uhshYha2+R1DJurki8AkN9eADYm2JoSpH2e/pkgbm+2xlwlxmJnfoy0FVYNmcbzd2sEXGcc2wP5pPzoAQAAoCXhWoBMBAwAgBpaVXapETJ41vKh24wP+7bWyRgWAPrXS7B2dlvjohLjpRrjzRnHtFenyicAAADUJVwLEMlNTACgph4qu6TOP+X1t7HjrBrbpmbV2ZDv5xiLxlY6AwDqOgrCHoVeawVpj75T6z5a7Lil5JjteX1rjA1zfq8k91Pj9XAtCAAAAFf2W+sFABjJ42bm7XZzYxMAuITQsOfZh+Vr0zia5tqytXxoX2J8mGN9tl4l/Pyn9jIBANtSgrFnvx8arD36XC/jhNgfeeVa7tjxbAnuWf7NdgAAAADOUrkWIJAbsgDAFe1VS0oNC5QaV7Ws7NRrsDbUY/n35tlLWAYAZrYXjN0LtsYGalOq1Ob4bo96fHNCiFZv1+pl/V+p8goAAADkpnItAAAAUc5Uqo2pFBb6ut2Qz4fOM0XIfHMHlHtQ4m0OAhEAXFmtYO1sYsYPI481QsaNpdcvdPojj3EBAAAAHlSuBQik+gEAQH5nQ7ItjbCcscu4VwHt+d9yrbsxNvQhNJg3W7VK6MHR8bd13IUct1c9ZmOCna+fPTsuaVVNdkvOsZYxGwAAAHA1wrUAAABUcabC6xklApwhlWhfP9Oqsu7RfPbWZW0djpatt1AJsC222uXj81cN7EFuqRVnRwvW9jo2CFmmHsZkZ5ajRSDWj6cAAACAWQjXAgAAsKnkg/HcYYW1B/m551Ei9NDKSCENmMUsr25/XY+eQnzQu9RK0SMFansKV/a0LKWFrGeJ8XfOzwEAAAD05LfWCwAAs7rKwxsA5rV2LmvxYDx0nqXOvbfb7fufLWvL2HPYIOeybX3GWAh+Nkuwds239x+mXj/I5SqVamuqPd5oVQl2S60ffhnXAQAAAFekci0AZHKlaigAXFPpEGjuMG+N0OrRPPbGB8/fjVnWvVcrh4xHYrdLrjGOimXEENSsby+YF7o/YvfbVcOAXEtqMFagNs3WD55Kv92glphxmXtUAAAAAOfc7qPeRQJooJfqbfRrloc1XIc2yyttok+t9kvsfPc+fzSOiv33o2DB67KeXZeQeRx5nmZsmDZl3iGh3rXPxVSiPdqHKdPV7yBYW1doOK/kfhEQZFZXDtbWOr/nns/R9FLGiKFjpLNjt9w/sHoVOiZtef90xnu3M64T1+b6D6As/SwA5KVyLUAElUkBAPKIDcfWFlpxNnaauZelxDJsVcYNqdL7PI3Y+XJNgrR/qxmSu336+tP/Dz06c1S2Tf1+7yFCWJParh0P7aSMt3KN086OO1vcr+xxfDfjvdsZ1wkAKMOYAQDyE64FAADgF6VvxuYI1pZ+xW9PgYGUh+qh3yn9wL6n7UhfBGt/eGyLFqG557Dt/eO7pGm8/fK56P5suX0gRerxoF/sy8hjGIFMAABGHs8CQC9ud2dUgCiqcLFH+2A02iyvtIk+tdgvKfPc+07ow/2t+ZzZBl6leqxEG9uqgFtj3rSTMxiW+qp0fljbhq+Va9ekhmxj5d6fwre0dLbi7Nb3R23XNcdfz/M6M4+QMcnaZ47W9WgcHPvGhNTQbM5tszfN1mO71vMvYcZ14rq0Z4Ay3P8EWPfoH/WJpBKuBYjk5g97tA9Go83ySpvo01XCtUfzSA1OaNdhcgVTzsy39rzJS7C2X6/bMyRg+1A6aFtiv44aRmRcIe14r13ufX/k9jzaOT41XHv03dzh2pBphk7nSMiyH31euPa8GdeJ69KeAcrQvwL8qodrVMYnXAsQycUJewzQGI0+jVfaRJ9qn1/OzG8voBkbGshFu+6b8dMYrhZs/f2PP3/5u5Ih01G37+9//Fmlym2r7TNyqJF6zgZj174/S9sbcQx29GOj2HBt6A/MYsdDNcK1KT+O62FcN2K7OzLjOnFd2jNAGfpXgJ/F/lgUtgjXAkRyccIRbYSRaK+80ib6VWvf9PBAvIRWVVlJe3WxfdSXUYOfZ6yFa5dFwHbL8/YqtY1abp9Zgo7kJ1i7b8Zri5gQ7VpoNvTvnqcduix7Yrd96LRDKvQK15434zpxXdozQBn6V4CfpVzXwhrhWoBILk44oo0wEu2VV9pEv4Rr6V1KiHaLNtdOjgDj2y+fiwYhcwbPbp++Rn2+RpXWnGoHUmtX/H01SrtjDqnB2LOB3JHMOK7cG5OnVKk9CufGLs/WPGONPK67WruD0WjPAGXoXwF+VuONL1yDcC1AJBcnHNFGGIn2yittol8x++bsA2XtgD05wxZbtLk2rhCsDQ3TPgKhr58fLVy7LG0qvm5V/l2W8tuw5/bHPARrw802rswRrn189ui7odtqb765KtbuhYCPtNjnV2p3MBrtGaAM/SvAz1KfY+g/eSVcCxDJxQkhvHqaUejTeKVN9Ct033jVDbnUCNFu0T7LORM8fA5+pUwnJTgWW1n2rFLBz1nW41VoO2hd0TbV1vrNGoIkTGq7uGKwdlnmvL7Yu+dzJuh69l7S2W19FKzd+8yWVvt7tnY3YzVermu24xOgF/pXgJ8d9YtH17f6UR6EawEiuTgBZqJP45U20a+QfTNKJanR1Qydlt4/tdYlJkwS8nnSCNZuKxn0rB2sjZFjvWPaw1ZF256DtlcNRLLuTHu4alj7quf4Fut9Zp4hwdqjz4Z+v4YZ292M68Q1acsAZehfAX6W65ma/hThWoBILk6AmejTeKVN9Cu0WpFX3cRpWZ01l7NVjHO6ajvqUcsg7dp0YgnW1pVrG5xpL88eIdxeQrcCtizLejuI2f+v379K21Fxs57UbR0TrI2dlnBtPjOuE9fkvABQhrECwM9i+8Uzb6JhbsK1AJHc/AFm4oYLz5zj+leiGtWWGfb9DMHZXs3QPmY2erD2oVQwtXZgU8A23Wul25ZhWwHba8sdrI39/uhcd9aT4+Hhmf3Ty77uZTlymnGduC7tGSA/fSvAr577xjM/Pg39PnMSrgVI4AIFmIX+jAfB2jHkOmZzhU57aiOCtGX0tI/ZFxNo3At0nZnOWoi0l8qjV5MS6C25r3IGbpelfej26kHJq9lqv0f7XCD7B9ed9cRc15W4BuxlX/eyHDnNuE5cl/YMkJ/7+wB56Vd5EK4FSODmDzAL/RkP2sIYSuwnodQych1DNfaP4318rYO1e0FO4dp+ve630vsqd8B2WX6EbFu0MwHb60gJ1wrW/sy1Rl1HDwC3xpclri1a7uueliWH2daHa9OeAcoQBAPIS7/KsgjXAiRx8weYhf6MB21hDCX305VDtrHbcW0/tDyGvKroWnIFaWOnFxqmfSVc27fnfdnTvsoVxC0dYkytaMpYXvezirXxXGvUlTKuL/XDMOHafGZbn57kvha2b45pzwDl6GMB8ir5A1XGIFwLkMCFCTAL/RkP2sIYau6nWcK2JbZRb+FarqNVsHZZflQIDdVTUJMx5ax0WzLQKEg5t5QKxULXvzJOqi9mLF/yB3vCtfnMtj6luI4dg/YMUI4+FiA/BU6uTbgWIIELE2AW+jMetIUx9LafentwWWt7CNdSU65Abcp0YirUPgjVUkPO4O2e0DCkMOWcUoK1a9/TDvobw17J0Xg9977oaV/3tCw5zLY+Z/R2HcrPQtqm9gxQjj4WoAwB2+sSrgVI4MIE+lXjBvtMx/za9ppp/Qjn3DYG+6kPwrXU0iJYG1uh9kGoltpqBWyX5XwlaOHK8eQK1oZ+b3auO9uquf17GhP3tCw5zH4cba2fIO0cXtvqbMcnQE/0sQDlCNhek3AtQAIXJlDf6DfTe+4n9Gksi3YwitkfqI5CuJYajoKDqa8lX5MSqBWmZQSlArhbx58KtnMQrC3DWGl+vV2rzNjmRl2nEe7p5dyWI6xvK4/tPGpbBhiBPhagjq1xv353PsK1AAl6u1kMM3IjOtzZ/sfNFpZFOxiJfdWecC2lhQQCa1eqFaZlVCUr3K4dhyrYjk2wthxjpfn1uI+fl6mH5Tmr5jYe+b7cjPt6Jq6fAcrSxwLUo5LtNQjXAiRycQL5zXzjuLW9Pkp/xrJoByOxr9oTrqWk1MqXIQFCFWph2+3T1+///de//xn13dfj82zladqI7X8FqeMYK82vx30sXJtnPj2aYX/OKqT9vF5D258A+fQ4JgOY2dH4Vz88PuFagEQuTuC8UjfrSx+PIzxkOPK8jfRnLIt2MBIV9NsLfVhIe8/Bp9//+LP7oGhqUCtHsLb3bQM1nAnYLsvPx+nZCtTUFxOuFayN53pjfvZxeTW2cct7XtrMvNzHAKjHmAygPs+M5iZcC5DIxQmEyXlTfuTjbKRA7sjbmXTOa2Oxv9pyo2QMo72iO+eryJ+thWoFaSHMc9h2WdICtyF67puu5LU/VbE2L+PX+dnH5Y1cuVZ7QKVagDpajcnOjh+cG4BZbPWH+rlx/dZ6AQCA+dxut+9/zrjf7z/9GdnruuT8AwCECakk2ULNILBgLYS7f3z30zFzVAE61bf3H7rtn64ix/YXrOXV872RHPdIoBb3rijh0Q60B4C55BrnGi8Ds9ga7+rnxvWm9QIAAPPIMSB0gzVeyDYzWAeow3mMUGcrH4a+vlyLhPOeA7a35deAba6Kto/jWkizrrM/cLC/0sz8JoC9dVPBBrgyfR3AOFo9U4qdr3ML0KP7/b7Znz3+Xv81DuFaACBJrgtrA8c6nrezoC2Mb+/CHOhfqWAtUN5PQdtPX5dl+buiba6A7bII2ba2t931v3XVGO/mvieRusxelw4AQAkpIa6R7jsbRwO9OnqOJ2Q7jtvdXgJI8noi1J1yBakX1I6PvunPWBbtAGLsnQ8dO/14DUD9/sefP4XiWikZrBXEg74cBTEfx2zo5yjjdftvbe+zFW6vbqQH9L3rdbzpmrI82xgAOHL0poSS4/IzY5PW1wvGVUBp3mQzrt9aLwAA0Jfb7bb5J8b9fv/+h77ZRwBQh2AtXMvRcfnt/Yfl2/sPwZ+jHcHa81x35rN33yb1Hg4AAHPYG3eXGiPmeBbY+nrBOBoo6aiCrb6nb29aLwAAXNnaQKnkBeSIr1SkDvuNV7fbTbsAhvN4RfuyLMtfL//WqmptroqUW9MR7oK+PR+jW8fx4++PKtm+fo46BJvLObre8HDpnKPt53pvPEevFQUAWJb1MUPKGKL2eDFlfiXGRmemaYwNvArtUzyXbSNk/6hcC5CJG5vE2mozoRVIUv7k9lydVpVaQj0Hn+iH4xcYXY/nl1yBLMEumINKtv2xHdsKCX+W/nNlue8hXX171qL9AgA1jDLW6G1c5G0SwKuYPkq/UVbqvQ+VawESqRTAGSO3nZ4uUhlTq8qBAFDTXmArpuqkirUwl5hKtkdCgrhsW9vOIdvTNk/X4720Fvc4etsGW16XM2RbuWcEADCG2cZtZ9en1Bg913Rn219wNc/H8FG/MEsF21b3Pkrce1K5FgAa6H1ApKoLsCzjPPQF6E3pYC0whxwhTf1EPmv7w/alhBL3V2rcv6nxhiQAAPLwPC9O789AjcNhXq99T8990Z5e+qkS81a5FgAa2RoYlR5sjDogA8rrsZIUwCiOAlihIbpc0wHGEFLJ9vWzr59TwbYMwVpKOrruynHv5mgaOa79UqrbAgBQh7FZvF4r4LaaD2Eca5z1eD57pi3pF9IdbXeVawGgM3tVY3P8AQCY3V///mfV+eUKYAlywbUdBWS/vf+wGaTVfzAqD3/aKXH/qJdKNQAA0ILnsdfkLR+E2msbsf2GNhcv9f6HyrUAAADA8O4f3y23T1+7CtbGVJLMNR1gbKGVbN9++ayCbWW2bR7elvGrXrfJ8wOm1OVb+56gAQAAV5Bz3Nvj9QL7rrDPrnptl3vfztxWZmkjKtcCAAAAJBCsBUraOv5VsC3Pdqxr5gdJWx4PmEZ50KS6LQAAtKMiLj26SsXeK6xjLrO+UVnlWoCMbrfbVCcJAADgZ0eBq9gw7Nb0hGqBZVmW3//4c7ci91YF28e/EW+tX7Yty7viPbUZ1rdEddsZtgsAAJRivNwfgcsfbIu29A9lqFwLcIKTEwAA9OP+8V3R6eeuZKgyIhDi9z/+XP37vQq2z//Or2K2i2Btfu6nzUllWwAA4IpmrdZJ/7S9OlSuBQAAAKa3F0AL/f4eFWuBkvYq2ArQxlGZtg/3+11w8gLWHu7F7neVbQEAgJFc5Zrlytf0Mft4bTtdpY3MQuVaAAAA4BJSA2gq1gKtPFfk3qpgyznPwVr9c10qrFzT2f2uqi0AAEB7V7qmT11Xwdo53O72GsApqicAMBPnNTi29yDfMdNerQqzayG35xBc7PRUTQT23D59/f7fWxVs9+hjfnjthx/bRkVbWnId9kNKaPbK2xAuVAgAACAASURBVAsAAID+CNbOQ+VaAAAAgAxun77+FIB7pSIikOpsBVv9z9+2toNgLfQjpSKQSrYAAAD0TLB2XG9aLwAAAADAKGJDbXuBNsEtIMb947vvAf7nvii0ku239x8u3e9sBWgFj6Fvrw8ghWgBAACAWlSuBQAAAKaQOyB1dnqCtUBu94/vfqpiuyxxoX9B0h/0wzCmmIq2AAAAUJsfhc5F5VoAAABgeGuBsd//+DO4omPI9Na8htxCvi/QBZz16HueK9nGVLBdFn3RFtsFxiBgCwAAQG/WgrWuX8emci1AZn6FAgAA7cVUcnwVEqxdqx4Z8n2hLSCn574ott/79v6DSrYAAAAAkIFg7ZxUrgU46X6/C9QCAOAmyeD2AmbPgbWUQO2yCNUCZX2vZLv86K9SK3cDAAAAAOEEa+elci0AAACc5CbJ2EoHawFqee6nzlTwns1WP63/BgAAACA3z4zmIVwLAAAAXFZqsPbxOvWQirWq1gI1xQZsZw+Yrq3f2y+fN/8eAAAAAEJ50/XchGsBAAAggl8czyMkWHv/+G41WAvQs61K28uyHiC9Ur+2FaAVrAUAAADgLM+Q5vKm9QIAAAAA1LZVsfD26ev3/3//+C46cCacBfTi/vHdT33aw7f3HzYrtwIAAAAAYVStnZ/KtQAAAMCl7L0K/FHtMSVYC9Cb+8d3wZVq9XnQDw/nAAAAoG9r1+6q1s5H5VoAAGDT7XZzIQhMZS9Y+xATrFWpFhhBaKXax2f0bVDX/X4XqAUAAIBBCNZeh8q1AAW4GQ7AqNYu/JzX4FdukswjtKIjwGz2ArSz94Ozrx8AAAAA9XhmNC+VawEyUF0CgJk4r0EYN0v69te//xn0udunr0GfV8WRmdU+7+s/+/Dt/YfgirYzCalgDgAAAABrPEO9FpVrAQAAgKE9ArKpQoO4qb69//D9D/Smxc3g2+3mJnQDW5W63375PG24NKTfnXXdAQAAAChPIYG5CdcCAABAYY8gWes/M4oN1r798nn5/Y8/v///vWDtI3B2JngVG6g9GxSGZYnrc0ZZzl6WeXQx/dnoPwhQoRYAAACAnNybvB7hWgAAACiop5stswbUYirP3j59Dfp8qwDW/eM7AVuSzXZsb7nKeta2Vdl2FoK1AAAAAKRaux+pau383rReAAAAAJhV7+Gv1OXr6YZRTLA25vOvgbKaoaz7x3fLsvwdBH78N3PqqY+oeVznWu9S26+nPq6Gb+8/fO/j3n75PFWgFgAAAADOEqy9LpVrAQAAoJBZb67MWgF3z7f3H77/qUUV23n1duzU7qt67xt72z+5xVaord33AQAAAEAvBGuvTbgWAAAACrrf7938KeU1bBv6p7Tf//izyHRrBs1Urh1LL21/WeL6nhZ67MtepfZtI/wAITZgG/LvAAAAADATwVqEawEAAOAiWofpXpUMov3+x5/LX//+Z5ZpbRE041kvIcrUY7z3MOizXvqwUL1u162A7drfP/87AAAAAFzRaPclOe9N6wUAAAD6d7vdXDBCRr2ErFKP69LLHzP9v/7nf9f/PjBYu1nd9l//CJrPa9BsL5TG+Eq0/Zbn1176ohSlq3Ffxdsvn3/px14DtgK1AAAAAFzNle4Rsk3lWoBCnGgBmI1zG5zXW/XC1OXprQJuEf/5748/y7L8/v/+b/n9//3f4de+vf8giDap3Mdu62Oodl+kMm6/tirYjmxr+UdfLwAAAADauNo9Q/52u9vzANm8PiTUxQIwqq3gi3Mbsxsh9NWjlhVwtyrKPtusThvrqZptyHzXqGzbp5zH/gjnyqP1zbUOVx9PrK1/z+u+VYl7LZDac1+2tbxbwdqe14VrcV8RAAAA+jDafT3KUbkWAAD4hQtErmSkaoq96nn7ZQvWLssvlWyZw9WCtctSZzn3tmvPfUZOa9t5xPUevbKt8CwAAAAAZ4xy35f83rReAAAAoE8uFOnRiKGkLT0cYy23Z8l5/xKo/dc/vodis3gEbJ/+6q9//zPoq7fbrYt9P6sabXqW/fe8Hrm320x99Rmjb4dv7z98D6auVX59/vcRjbzsAAAAAJQx+j098lK5FgAAgO7NVOXwfr93E85rtRwl9+VaWOp+vy/3j+/+Dtn+6x9F5htTIXem9twTwVp6MuIxflShdvQKtgAAAAAQyz3ha7vdtQCAbF4fnuliAQDi9BBGMob7Veh+Cd12a9NL3e6vwa7YSoS3T1+T5rvn/vHd39MO2G5XbW89HOuvrrovliX/tezW9K5yzXzUvntf77XA7HPfevTvrW2dF86eL6C0nOMjAAAAIJ5rc16pXAsAAEAXWobtHtVk3SRZl3u75Jze2XDU/eO7739yC2lXV6xi2+P6XvnYz70/ety/tY3enlSwhTZG7zsAAABgZIK1rFG5FiCjq1ThAQBIlSN0ZYxFDTEVbWOCuTHHwIxtvUbwcsbtVkruG8ZH07vqNfOo631U6bXXCrYq1zKyUfsLAAAAGJlgLVtUrgUAAKCKs6E6lWWpKSowGxPEvWA7flTnvd1uxdf9atv2jNrBWsb37f0HFWwBAAAAmIr7mux503oBAAAAGF/uapRuXMzp0U5G2b/PAduYAG3QtO/3KlVcW3Njsk+CtW3VCJrX8vbL518Ctd/ef1AVFgAAAIDuua/JEZVrAQAAOOUKAUHOe24njyqmI7l/fPf9T7ZpXrCKLX2qEawd7ZgvbYTtERqQHaGCbW/LAzCrEc5vAAAAW9yv55VwLQAAAMlSHp4+AoV7f0Lmu/aHPs22b3IHbYVs69nqO3rrQ3pfvoczwVptfgyhwdnf//gz6HMt9LIcAAAAAPSjx/ut9Ee4FgAAgCSpwdqS8+01gHZ1M4foHgHb26evjZeEIyF9Qw99SK993GvI90xgduY+YUYjBWwFaQEAAABI4Z4la4RrAQAAiLYV7jpbkXZvfj2E3lgXUl1z5htTArbtHFWiHa3vCF3O2uvzOj+VaK/nTMC2lrXlWVvut18+r/49AAAAANcwyv1i2hOuBQAAIFrNEFXKTY6RwnSjW9vOV9z+Arb1zdbGYtcndf1LbDfB2msIDdj2QoAWAAAAgBDub7LlTesFAAAAxjdbwKl3vVzk11iOvbb1PP/R2+Bj+XvZt1tG386l3T++W26fvn4P2D4Ct5xXo+21PP5CK8Ge3Q4qznLW2y+fowO1j88LuwIhZj/nz862BQAAeuc5BzFUrgUoyEkZgJmN9qrtmfSy3Uu3gdBg7dr/H8nzevayb9f0uly9eQ7UXr2Kba42k7PtrfUV9/t9iGBtCa1/JMGcfv/jz9W///b+Q9eVboHynq8ftv70shzOXwAAANcw8vMlyhOuBcjISReA3oU+RPSgkSMlA7VbbewRgNsac5Uci+U+HnIfS7mPy5R1fN4/qWHFWfqX+8d33/9cVWxgNMfxtdYG19rkmXaa+5w4Q3vfE1ORN2a79jY2aT3/1tYCs1sB263PA3MbtZ90PQwAADAX13PEEq4FAIAL8ACQEcRUqq0p5NiJOcZyH4u5K9+mfD/H/hmlgm9NM22Do2BtDqW3V0jY84pijv+tYO2Wte3a2364Yt/19svnX/7ur3//86f/f//4bvVzD7UCtoK80NbM/aLALQAAwPgU0OPI7a6VAGT1eiNVNwtADiM8qHPOy6/XsOmy5BvzhFZETZ1eyeXakiNEGLrcW9PrZX8cTf8xrdzrMbJZridC1yO2Mu3Rd0ptr9Rj92g7xO7vs+0j9fup2zx2/Y/mkbsPPSu075q1j3sNru6Fadc+H/KdM8uzJuf8oITYyu+9Onv9Wnqda1xfj7jfAAAAZjbLNTd1qVwLAAAd670CzpnXv7Ov52BtLqWDtalKVX7t+VhelvLBWlgT2qZqtr3XCnQxx+7R91Knm/L53N9fU6MiMfNYC7bWrCwrWAvlxFRwfb6G3PpTWsgynF0OFW0BAAD65nkHIYRrAQCgobVXSZZ+CBf6ILGHh55XtfXr2Zm2+1F4OMe6pnw/NQxwdrq5xG63o/6m9TEvjHANseebx/8v0SZf29zRsRE6nZB/LxlULVGVIXZ5Q+YX29ec6fP0L/mlVo6tGbCF3rUc6x9dm569bh3xWibXtbDzDgAAQFuuyUglXAsAAI3UvpAb8WHmFV39tTS51rVEsDZVynRDHsD3WMUyRen1HJ0g4Lpe+sWt5YhdvtoVYGv/eGHt8z1U7g3ta9c+55hMD8oK2EKclArqpQKyKWa9Dk39wZ0fegAAALQ343UqZQjXAgBAAykP0VSZvaar7LuclWpzBmvPHkepVS9TphtbvbEHVw+Tx7Bd2juqpLv3+VJVpUeVI1j7WP+QaaX2eVvfiwnk9tLfliJgC+eEhi3XPjNCUHPkc1UKVW0BAAD645qLM4RrAQCgstiLuNEDNKSz3+P1VLG25nxHCNaGzFebX2e71LHXRmvug9zHaKkq1y0ruu7tj9d/Cw3fqkybTsCWGZyp+NqiWmzvfdTVr2HP/rCm58A0AADA6K58vUo84VoAACgo5OGYirM8O1N9lXi1q0I+pttzwPUh5/qrUEvvWgZrn6d/dIymBHX25pfy/ZS/P5K7Ovjev4e+tps4a0HZ1O8J2JJLjZDrbHK8EcUY72c53lihrQIAAKRxHcVZb1ovAAAAzEqVRlJdsV08jpcR1z13yCx1fjnVCBO6qcUIegrW5p5fTi2O55Tg7PMPWFL7bn1Xfm+/fBaoJYrjcF/Nc9ez2+025Fi+lrVtk9KWU75jvwAAAFek6Ac5qFwLAAAFjBasrVUFR7UdjrRuI7mqQpa6aTPLzaBZ1gPOOqpEN3o1+1LLnaMPiQk5pVYdP1r/2cdEZwKzwrZcqcpsSLXYmD8t14M4tfZZTBXnGY8xAADgejyDIBfhWgAAyCj0YVRPF3DPy1vyYVqt+TCGo2OgRhs5O/2YmzOlqlPmCJOVlqNP1GfQM20zTontlasaYAujLGeIt18+//J3oSHZte9yHb2E+3KHXHsPw9KP3tpHbBhXUBcAAOid629SCdcCAMAJIQ+OenlAtqbWwy4P1VgTciyUeih79lfLqd/v4dfSNefn2GdUoefrUsd0b+OFZ6HLFRp4PbueteazNe+16fa8/0rbCtimVKJVvXZ8PYTvhFwZ3ehttHUfAAAAAGcI1wIAQKLSFWpnedg0+vL3bvR2EnqMlF7HlsHavfV6Xu+WFW9TnFneUcMDMHvbfazf0XqeCeCmLE/K50Y9b45gqwrtUcj2TOVb+tFbaBZmMmt15JGvZwEAgP64viAn4VoAAIgQ87D4bLC2hdwP31zA1jXq9o55ANz6wWvqvLe+Fzq9Wq9Rz9UHxCzv1vxGCALUMuqxzbFRQzDL0uYYfd4+I46zrmQrYLss+4HZve/xqx5e015y2iOHBaEno4RxnZ8BAIAS3EfgDOFagMLcFASYQ8zD4tYPpGobvXLqbGbZD0fHUIs2VyMIe6W+Y1mut75nzHJsz6T3fVJj+baO4TN9dOkfMFFPasCWMGeO8dRQbsmgbk8BP7i61Aq5OY7j3sdXAADAWNxf4CzhWoDMnJwBxpby0NhD4B88CKtv5jbXw3G11w+sLV+OEH7I+rbeLq3oY+hFSlus2X63+qyz01gTUm18qx8tXVGT9t5++fz9z6vQgK0g7q9GP1YEaeE6eq6UCwAAzCnHm6/gQbgWAAD+fykPqV2Y/eqxHUd/6E9fSlRHPLI33RzH/qzHSO4qdiWnD1dRerwy0nioZEXdFCNtu7NCA7ZngrhXMMJ58OyPiAAAAADOcP+BXIRrAQC4pDOV0lRY+Vlo+K3E9lLl7lqOqiPmENInnG3L9/u92jFSy1GF3zWh67vVx6h0SUlHlVZfHY0LRmunqT84KjU+yjXd3oK1VyQ4m27vnFf6Ne1HQqc/8lgHAAAAgOsRrgUAYHixAavUgEStQG2tAEfNoEipYO3zfwu+XEOp8FpoGzo7/9BgbavwScqxFBJELr1++gDOCqmOrY2F6zFA1+P+63E71RASsBXC/VnuH/3EhnG90h0AAACAKxKuBQBgaFsPmtcq08aE51o9NJ4xWFvC3n5nbHvHbsgxHPL9HCHc1GnGVsle+7taIf+z23ItUCuEcw2j9sUzVZ7tQchYqtaY66jaZyx92Xm1A7Zr0xpFyWr6NY20rAAAAACwLMvypvUCAABATmfDLx769i8kXBkakDqzv3NNhx+E1361Vem29+nnPiZKbwfKGqmPnKGtWf7zZmgHvbp9+vr9v+9fPv8Slv32/kP2IOyMwdpR+tVRlhMAAAAA1qhcCwDAZcVUShvlleO5q3TmkPOh+tq6xEw/17Z4nU7rbTyDmbZhTJsMqX5YuuJrrunWWE6vpe7fDMdySFvqte2dPU+2Vqv9PPbb3jhppO02iudg7cNR8HXkYGwp2iYAAAAA1CFcCwDA0FIfLqcGMnsIq27ZW67n5c69/C1fVdtDsDZ2OfhVr8dUikdbGK1NnF3e0daXekZtG6Mu96uU9eixTy4x/upxPa9mLWzLz2bpiwAAAABgRMK1AAAMb+2hc67qhqMEL0KX86rBFMHa8YRUKd07pmO/n+tP7DL0JNd6wyy0+Z+VWO/clfZDp9Pyh0FXdv/4Luhz395/OPXvAAAAAAA5CNcCAMCG2sHR1PmNEnA9q/V6Ctb+0HpfhOi5yjTAaHo53+317Tn6/F7W80pun74ub798/uXvnwO0a/9+FcYyAAAAANCOcC0AAKw4epB99kH3a6W23MHa2SrrtQ62Cjb8UGJfrH1fOJYatDNa67H99TJ+2FuOXOOo53mFrPds46sWtqrXxgZoVa8FAAAAAEoTrgUAgBehAY3WlWZLB4BrSA3EPAdbZtgOI8sVMtqaTmgbEXYi1nO7GiVkmytISF963J+l+tTQ6T4+17pvL32O42+3T18PP3Pl6rXPtCVgNj2OgwAAAODhTesFAACAnuxVgt3797PTzzWdM8uZ+2F9jYf/R1VUSz2oE2wo436/F33dNzxoT/FG2Wa3200fnUnrgO3z52PbX85lzxmwHeU46sW39x+EagEuxjgOAACAnqhcCwAAldQMVKQEV2rMv/SDshLBWkGYujxMhTA1KtjmqJRbejnX+oyr9tszr3fv54bel68394/vfvm726evq0Hab+8/1FgkAAAAAIBfCNcCAMCO+/2eJTCxV2k2x/TXptMq4Hqkh4q2Z6ZDeY/2fLattG7rjCO0vT2HTXMG+M9MM9cyvU5npP5PwDbfea9nz+eGoz+tl49jawHbZVmiKtUK3gIAAAAAJQnXAlRwtQe7AKMq1V8fTTd2vqGfHylokxLk2vr8SOudw+zjjNR9N/M+p421Yy1HoDW3tZBsyJ/Rhf7ApJXay9Pb+sMZ395/WL69/6CyLcBkZhiDAgAAMDfhWoACPMgEGM9eUPNsRcEz/54yva1lnen8FBOsTZnOlt4q0s2+nx9iqhX2to+YQ6kQ7OhCjr2ax+RjPr32Ab0uF7SyVb12j4AtwLyMlQAAAOjN7e5qFaCI14fluluAss70u2cDTnvzyhWeesxja3r3+313Xq/LuDedGGemk2N5Qz1PLzSQOkJwtcV4wxiH0cUe2yH9T+pxMHLAdmud9RHHSpxfbPcx2E/h1gKzz8HamEDtWiB3BCOMRQHOcF4EAACgdyrXAgBwaTmCTTlfqZ1a4S8mqFpSzPIfhdnOvq58q5LiVpB2tlekA7/KHaw9W5U1tPLr0fey+c9/l+U//71UdegWff5M2w9KOQrEhgZmRw3WrtF3AAAAAEBdb1ovAAAAtHRU8TXG7Xbr7qH31vLkWu+z08m5/V+nC3Bklr4i53rcPn3NNq3ePZ9/Hv9dq03kPv+VOp/CyGYK1gIAAAAA9alcCwDApW0FUUpV6tubTq5AT+jy5lq/HN/PqUQwarZKjWxTuZg9s1ZvvaKt47xmH5C7LWmbzO7b+w+tFwEAAAAAuBDhWgAAiBATWNkL7qRONyQwO6KcwaKa82Mur1UsSwfsHvMQ5q3DduYhpC04NqG9tcqzzwFblWkBAAAAgJKEawEAGF7u1yqnBFhfv7cVoM2xrFtVdUcPjO6tV+ifUvNjXq0Crq/zu1qI73m711j3q21ftp35gcsMhIYZzVUDto5TAAAAAGhPuBYAgOn0GJJJCX4CZbUKrgj3/br+JQJ/KgPzau/Yu8IxWLs6N+RyFLC9giv0UQAAAADQG+FaAACGdiYYUjNUshVi2auMqnIq5BcSuCx57LUO1r5WjK0dsCs9L4Fathwde7O3mdnXr5RWfSW/mrVCLcBVOa8CAAAwAuFaAACmciakdtUQq9DI31K3g+03jpB9VLIf6CFYu/dvNYKvI0//Ku4f37VehOxCjr3ZxwCzr9+y5D8f16qyzXmCtwDju8JYBQAAgPEI1wIAcEklXj8eq4eHRwIif0vdDrZf/1pXqn1ejrX51tK6rZaaf+1we+vtSLyYY++5LwjtE7aqQbeuEr2mh3FHLWe3det9RTwBWwAAAAAgN+FaAABY4gMna59/DmIcTe9KAZfeCdDMq3Wl2r3lSJnvmerKLZUM1pZ21Nfn1npfzaZ0qD1lf/UQsr0K+2d+395/WL69/9B6MQAAAACASQnXAgBAopAAbWwFPPblDr0I0MyrdaXaveVIDdbmnH/L9X9ehpTp5apEHDr/ln2380a6HoO1OfVUEbcXZ/ZvyHY0nhuP4C0AAAAAcIZwLQAAl9QiGPEc2uglDDNSQKS37dd6/mw7Cl62XI6e5p+rDdcK+MVWIi7ZDnrog4jTW7D2TBta+542ma6XKucce/vlc/R3BGwBAAAAgFTCtQAAXFYP1Rt7MEIltq3tdyaYtFdRM3V5auphGXqUu1JqzuXoaf45g7UxzlSsPZpmifWDV0fVoLf+lJz/TEpUqD/6s2WE8dEVrQVsjwK0ArYAAAAAQArhWoBKZn8ICnBVowQxR3a0/WK3by9VTXMbedlnUyJYm/P7tYK1Nfq+Wu3e8TWW3G3vKIh5pvJpTJh09vFETxXqHfN9E7AFAAAAAGp403oBAGZ1v9+nf/gJwN/2Ahilqlc+pjtr+KPUObTUdGvvB2OMcD3sm1zLcGY6R20mdtopwdqc+6JF39fT+P52uxXdBrdPX5f7x3fFpl9S7raXc5+faUO9tL2HM9XfY6YX+u85zTq2ms3bL5+nDcz2drxDa7dPX1svQrJRx1MAAADA34RrAQCgkNLB2uf/nikIIlAQb6b9f0aPbafFvpltO+SsTj2aR4i2drD3/vHdkAHbGsHarX0Rej5O2Ze9tem95UkZl/QUrH3Mz3mVnmiPbfQY6BztvLylx21bSsq6zrKfAQAAYAbCtQAAkNFeACR3sLaF1/nnftgfuv1ab4dXVwni9Lbdn5WulNqrs/uk920Uu19jwpA5tDz2r9LvhKpZsfZsm4r5/tF6vf57qR/dtKoon2u+W9uj5/Ma8LMrBTK35NgGtYKb9lc6gVwAAADox+3uSQxAMaUDSAD01de2DNbWWO/U+T9/LzYUt/W9lP0eEqA5W2mvVvtr1e57Ot6e9RSsrbmNcoTCUpYvJXQYGmw7CtGnBGuP5hOrdHuL2SZF21dC5dqZ+sWtdh76Q4+j+Ycsb8j2POoHap0/j+aba7qpYsO1pdptr+fRETyHzZ77pm/vP0RP6+2Xz1mWqZQrtBPBy3k8qt0zplah3J6u3wAAAGCPyrUAAJBBi2BtzYdPqQGYM5X5liXfOpYI8NR+TXtrva5r62PjWc1tFDqv2tUrz+6PRzXW2G1ZO6RXcn6j9i09HYslrK3L3r6KrSz8+vlc2zP1PLwVTN9anhrH7NkfwDCP5/D/2y+fkwK25CNYeW219v+olVl7Pz5Cl6/09p9pzAgAAMBchGsBAKCgUg+JRg3WlnpdNfX1ug97Wq6Sy9IigFkiDLe2Hj0Ha2vpqR2nmmEdQqQGbLfa/t7nS9k7X2+pvX9Ljqdm7EOuIKW6Nul6DwiWUquNXXX7Ppv1eE5Zrx7bw+syzbq/AAAA4NXtfpWnHQANXOFVfgCt9dLXll6OVuuZWh2z9Guqz34+dLmO9LJfasy3l2PtVem2k7ocOad9ZjlKr1+uAF7qdEK3e+7tcoVjPza41rqP6GUf5+qTQqeTUnG2hpT1zrkPY6ZVs/9ufZyMbi1wdv/4Lrpy7dsvn3MtUhE9tJMew33LMlagr9dtOKKR9nsrrdtb7D7qoZ8DAACAECrXAgDASaUDLDkqx/b8sKrX7cd8alZTzjm9Ho/lXpbjVa/LRVmz9fM51qeHiqxbfVfIcjmWWXP/+G41QPb2y+fogC0/axHMmyUw2TrUeNZjP/S8HinLNkv7CpW6vrn2+9aPHwAAAGB0KtcCFORX+ADlte5rS1c7S51+ru2Ss5rk2vdKr9/ecuSokneF6pUt5xkiV9XGnBUSz05vb9q9VOYN2c4x887V15z9XKhWlYpVrj2eb655t6pcuyam6mrqeTmnvfPr0f663W5N9l+tY7rXc+lI9l5NHhOw7bl6ba12kjNMOVOIrueQ6aset/so26/HbdezHPv1eZs7HwIAADAKlWsBACCjHoK1e9NqEf6KUeuhWg8V/Sin9b5t9XC41HqnTLf3vuastT4kVyiQc0oEM1vK1aaOzntn/z32c8+f3/v/tTimxxXyQ4C1yrbf3n/oOmCby5UDtHvrvlUFuaXRtu+W1hVUc8xvln2R00/B2MR91dsxBwAAACFUrgUoyK/wAcpr3dcezT9X5buY7259P3Yae9PZml5sBb7S26d09dIrVK9sOc8QrYOftatXx1SlLBUyDHm9e6m+JrVSbu2KvqWoXFt+vmfbdM7KtSUq1ceOW0KXY+/7z9OoVpGzUuXhWL2eS0ez9frxrcq1jxDt67/3Gq49005mDNOOHMjrZRuOrqc2YJ/+6vT++dc/nA8BAADolsq1qyC6LwAAIABJREFUAACQ6CgMtvbvqRVkUz5/tvJeicp9IaG8VK8V5mpUHlTprq3WwdoW0w9VI1hb29kQIoykRZsuFayF3HqsOtpSrm1RMzQ40/4TtiwvZRuXamNH071ie9ha5+B98J//fv/sFbcfAAAAfROuBQCABFsBlJ6CJSnLE/r5EpUBc4UB96ZTonJeb/v9KmKrJBMn9RitVYWyxjwZkx84pCn5g5wS+yP1x0rM6/bp6/JX5He+vf/QbfXaI70EamcKyT4T8Bvf0T5sEb69Wrt6Xt/Q7b31uattOwAAAPpxu7sLDVCMVz4ClNeir80RrD372uZQMdM5u/yhYcdcwdqU19WXei31zK+GbznPPUftbdRX0qdOP+dyxB6jz5/P1VeFavmq9xaVfXs7Dp+tLVuOtpEy79T55QiIxu6jrXmGzC9lvbeW78xyxHw/RxsOWe/U+fTSpxPmNYT117//ufq55wDtt/cfdv+9B6v96Ykg4OmqkgMTyCNFq2PjKu01x/a9yrYCAACgPeFagIJ6e5UuwIxahxpD5AiOlA7Xnq1Ye6biXY2KtWufz7kcrduhcO0PtZerdhBrax6l+oyz0zs73y2xy5MraHdkxmM/VOvA+9ltk2v5c4RrSwVr176X60cntcK1pecjXDuWlHDtsvwasO06XPuf/56a1v3juylCtIJ09KLl8TTTcfC9nzvZxy3LXNsFAACA/gjXAhTm4RlAWa1DjUdqVJzNNZ3QyrOp342ZXg05A7at2+EVw7XL0scPmWpsl5JVGo/mc2Z6uea9pka4ttaPKWL0eBw+CNfGL8eZPix3ePTM9ovpO4Rr+z2GR7QWctsK2C7LjxDtMOHaDKGzngnEMSNVb8PkrtD9fTqDbQcAAAD6J1wLUJiHZwBltQ41bjm7HC3CtWe+F/ua6ZhlKalktc+ar0C/arh2WdovV619f7SeOatfxnw/l9J9a45qokeufBwui3BtbNXns1WiewnXxm633PMJ3b5n5pOz7fZ8DI8qJmDbe7h21AqzwmwQRtXbv6Wca1O2XU/rDAAAwLjetF4AAADgZ6lVYFs5Cuf1UF20tLX1vN1u060n/Uppg70Eax/z66nvi10ex/q+Ftvnsf9yVSnem15PbXdPj8sZsp9il/vMejqfU1vrQK3wGdRzdLyV7A+Opt2yLwg5xz4vX+h2ev6cvg4AAIBUwrUAAJDJCMGLXAGRmFDeCNslh97CgbTTKoi1FQpLmU4Le8dQq+3ZO6G/Y6nHwNb3Soaua1Y8Lz2/XNOP/RFAjvV0Pqe0GoFaQTIYT0/h2577EEFbAAAAarrdPYUBKMprHwHKqtnP1qrymDsAk/TaxZ3t2lO1y7Nyt59a7bHF+KLXMU3rMGaN+cccw2cDYT3s1xIhwNbtJCfHYvwyxAg938VMZ83Z/Rj7/aPPpyxP6ngg9BhPmX6u46PUcdbr8Tu6tXDVX//+5y9/9/bL52VZluXb+w+rf19SiVCcgBjwUDq0n7O/KXaOjdwG+lAAAABCCNcCFObhGUBZrcKMLeaXM2AbG8IJMeI5Tri273mGaB3omyFc28u+LKl1O8nJsRgm17EQO53Q9R01XJtre6QGl0uHlnNPp9Z0r24rUPUasK0Vrs0dchMAA84qGb6N7aNqnAtD11f/CgAAwBHhWoDCPDwDKOtK4doz88tdke7VqOe30uHaXNM9ms+Vw7XL0uZ150fzz7kcset3hWM3Ret2ktPzuvSwDr1WNM91LJQ6ps7ux5jvx4Zr1z6Xu5JvqR8D5Dg+hGvHE1K9tnS4Nlt47V//+On/aidAaTV/FFD7XChoCwAAwBnCtQCFeXgGUNaslUJ7CNfuLceZZelJie2yRri2vNbLVzpY3Xr9ZjHLduwhXBvaD466jWeTGq4Ncb/fD79/toLtLNXIZ+mDehQSrl2Wv4O0OcO1ZwJpW0Eu7QRorWTYtmUfJ2gLAABALOFagMI8FAEoa9Zw7do8z8z3zPLPVO1xTWxIrVSlvRg9tMfe2kAPy1f6WOkhUDmDGbZj63VQHXk8IX3k2fNb6g9yQubbatyVe/49nKtm9RqYWgvWbgkJ1+YKmoUEtrQToCe5g7avagdZY9dH0BYAAODahGsBCvNQBKCsmcO1OY2+/L1IrewnXFteL8vXy3Iwt5bh2taVu0kT2jf1EnStLbXy7tn5zLgtW3kOS+UM1p4NlaWEsrQTYCQlwrc1Aq1CtgAAAIQQrgUozEMRgLKEa8O1rnQ4C5Vr680zRk/L51ijtNZtTOXa8cT0kTUquPZI5drxnQ3Y1qxOu0c7AUY2Ytg2dJkFbAEAAK5HuBagMA9FAMoSruWKrhyuDQ31OUaZ2Ujh2liO3TJ66cOvzn4o6zUcFRqw/f2PP7MtQ47glXYCzKRE2PZZ7sCroC0AAADP3rReAAAAGNHjobeH3VBPyUAf0Afn1zLu97s+FAoqGbK63W76RGBYr/3jL+OR//z31PTXwrBn+uTn7+4FbZ//TdAWAABgXirXAhSm4ghAWa0q15aeH+y5YuXa2FCYY5OZta5c+7oMMxi9zxBKHkPrc+nsjirX5qxQuyzlA7U/zUtbASZx1L+VrHSb0m/HLI+QLQAAwHyEawEK80AEoKya/exakEi/TgtXDNeuLcMexyaz6yFMOVvA9mG0/sP4ZBw9nEtntxewzRGurRWc0laAWcX2byXDtssS3q/HLoegLQAAwByEawEK86AToKzaD5496KYHVw3XAj/r6VXhufqIWQO7V9FLe+yVc2l5JUJYLQJS2gowq9z9W+5+P6TPF7QFAAC4DuFagAo8FAEop3XIUJ9OC63bfa15Avt6CtcuS77zo4DtHHpqm71wLi0rZ8CqdRBKWwFmVaN/q3k+CJ1X6/MKAAAAaYRrASrwUASgHH0sVyRcCyxLf+HakQn0tnWVduxcWkauEFVPwSdtBZhVq/6tdGXzkOn3dJ4BAAAgjHAtQAUeigCUo4/lioRrgWURri1ByLa9mdu0c2l+MwZrl0VbAebVU/9WKnAraAsAADAP4VqACnq6aQgwG30sVyRcCyyLcC399c21wsmt1zNVb/trBmeDUb2Gm7QVYFY9928lwrYhej0XAQAAIFwLUEXPNw0BRqeP5WrWgkvCtXBNwrX02jfXrADcyzqH6HV/9a70q7x71Gq8B1DaSOfC2mHb3s9NAAAAVyRcC1DBSDcNAUajj+VKWgYtejvWrvrq9tbbnb4I19Jb35yqdJ/ey3aZZX/VljPcNFJwSXsBZjRT3xZ6frp/fBd1LhvpXAUAADA74VqACma6aQjQG30sV9Kyvfd0rF01WPtMXwcsS199cw41+veezl+j76/Srlix9pn2Asxo5r5t67z1eu4JOb+NdL4CAACYmXAtQAUz3zQEaE0fy5X0GK4VdO2bPrGsHtq/fXxtVx0H1Tr2cm/Pq+6vFKVexT1SWGmtvTz/nfYDjMi58GdH57uRzlsAAAAzEq4FqKDlK5wBZufBDFfSW7i2h2Ah4fSPefXU/u3b67r6OGi0kO3V91eoXMHa0QNJR+1b+wFG5Fy4TsgWAACgT8K1AJW4cQhQhv6VK+kpXNuDKx7vtffDFbfxsvTZ3vdcdT9hHBQq1zF9dvs+lsN+Wpe7Wu3oQSThWmBGxi7bQs6Do5/bAAAARiNcC1CJG4cAZehfuRLh2h+ufKy32BdX2t69tfUQV9o//Mw4KE7O49u2zmcvTHT/+O6yYSPhWmBGxi7HVLEFAADoh3AtQCVuHAKUoX/lSnoO1zr2+jBiMHRNansSPOZqjIPKCulTbPNzzlSrvUK4aK8NanvAiIxdwh39+AQAAIDyhGsBKnHjEKAM/StX0qq9CxeNY6uNjBq6jWlXt9ttWf7z3x9/8a9/FFiin2n3tGYcVJ5zYDmpwdorBYqEa4GWalxD6MuObZ0vr3Q+BAAAaEW4FqASDz0BytC/ciUt2rtQx1hyt5GhQrnPwdpniSFb7ZsRGAfVtdUn2u5xVKsN1+s4LGZ84PiAPg01zt9xlT5GFVsAAIA2hGsBKvHQE6AM/StX0lO41rHWpxJtZJgH71vh2oeIkK32zSiMg9q43W62dQKh2nitw7U5xwCOGWhvmHF9ITP0Q6rYAgAA1CVcC1DJ2s1LXTDAeUIlXEkP4VrHWN9m2V/RD/6PgrWLB87MaZZjnrkJ1Z5T84dOJYN3+ieo6+pB2lgj9VECtgAAAPUI1wJU5MEnQH6qanIlrcYSz/N1bPVtpvFmcCAgIFi7LB42Mx8/4GQEqcFaffYPJa53WoTu9E9QRunjOfexO3rot5e+TMAWAACgDuFagIpmCjsA9GL2cO3oD556M3q7MJbgyBXbSExwy8NmZiFYywgEa/OIvd7p9fpBHwX55DrOWx2XodcsIZ9r1ef10qcJ2QIAAJT1pvUCAADAGff7vdsHyKlmW5+eqMAKc/vr3//8/t+///FnwyWBupzT6IlQbbqY64Ba1wxnQ7z6J4gzWiXaUkr0MTPea7l/fLd63r19+uq8CgAAkIHKtQAVXbGSGMDsZnw4w3mlzvHGEhy5Yht5PEx+DtY+ew7ZesDMLK54rNO/q4ZqZ7seCO1PZn+DCLwa8Vjv9XhM3ZYl1yd2mXrbtirYAgAAlCFcC5DR0YMFD0AB5jHigzXayHm+N5bgyFXbyLf3Hw4/8/sff3q4zDSueqzTp5RQbe/98RXG+voNCNd7nzDi8TxSmHVtWXvc5gK2AAAA+b1pvQAAIwu9Cdj7DVgAfuixz+7xoc2oWuzfkHnaxwDAaEYO1fY45s/J2BLSPPcNW8USenGl47ynda29LGttcsv947vVc/Pt09duzr8AAACjEa4FCNTrjVQA8uitn+/p4dFMen1A+lge+x0AGEFssLZlqKe3cd+Rq44HYwJkUMJrX3G73Zb7/b7c7/fq/cgVjoHQ7drDtngsa+tlCVmGx/n29TwtYAsAAJDmdm99NQgU1/IhQs9dTA8PV3rePgCzy3ke0J/zKlf7em1bXgPOkSu3kW/vP/zyd7//8ef3//YwmZlc+VinvZhgbc2+1/2vsenXaGmt/9AG6cGZvvH1fO16CAAAIJ5wLWTSQ1CTPqx1q1vtQxcMUJ9QLTXlDtkKHXDkym3kNVz79svn7//9/GDZQ2VmcOVjnbZCg7U1+trS9+IcV3UJN9KKtkfPcoZrl8W1EAAAQKzfWi8A9OB2u53+w3U9Xg/2+BPymb3PApBXyjl7q9/WjxMrVxsy5oR8Yl9lDsDfWgRrS96LM9bvi21OL7RFehZz/ls7H7sWAgAAiCNcy/QEY8nJwxaAcaSc5/Xt1Ka9AQAjqBWsLXXPzv0cYI1nA/Tu7PlKwBYAAOCcN60XAFK58RWn1UOD3veThykA80g55zgP0IO9dtj7WAoAmFvJUG2JcY7x/Vxut5t9SlXaGyOI7RvvH9/9cj6/ffqatdI8AADArG53dwvo3EiBAofTutd9aDsBkFtKhVoYxV771pZ5deWx97f3H376/2+/fP7+32vhMA+TGdXaeeFKxzp1lArV5r7Pp+3PRx9HTVceOzOWHG3VNREAAEC831ovADy8vvYt9+vfjqy9Hi72DwBQT8x4wTmbkWm7cJ6HxsxC6IwaQoK194/vovrWM/f53Iu7FvuVWkYq6gE5rJ23Q39MAwAAcFXCtRSzFZZtEaIVjG3HTUoASgg9vzjPMxvtGcJ9e//hl2q2zzxIZgbOC+QWGqwNnl7CfT/37IAW9DdclesiAACAbcK1nNay4qyKsgBwPXvjDGMArkAbhzSq1wJsu336mhysfb0feOYNE8Y3AHAsuRq8ayIAAIAowrVE6ylEy3jsNwDOOArWAvx/7N3LsdxGmgZQVIcsoBbqxXA39EKuqA2RATKk6Yq84Ow4i+ZCdKFmwSmxWBePTCDfeU7EjZkWq4AEkHglvvrBvN59/hT9nVGqNI2yHMQrOTbDuEKPIVvB2r3/vTodY3sAECXlOXP1fO5+AgAAYJVwLbtKV6QVogUAtmxdh7heAODhKGDrQTLAj0Kr1aaodOe6nbP8iAAgLfdFAAAAYYRr+VuOIO1WWFaIFgCI5VoBgBS8ChXgm9Bg7VXG/YilvwDkJ2ALAABwTLh2Imvh2VRBWmFZAKAE1xsA5OAhMjCbEsFa1+sA0DY/PAQAANgnXNupo6Bsjiq0z4RaAAAA6NVoVZo8FJ+D16KTSspg7da4oPFCAOhTz/dFAAAAqQnXdqj0wxQV4gAAABjNaAFbxiZYSyqlKtZCao6DAHn4oR4AAMA24drO5B5EFKQFAABgZgK2wKhKBGshFePSlNZKgDvHmwgBAACAc4RrO3N1UHEtPCtICwAAwKi+vv+w+W9CZPTOeA4hbh+/CNYCvGjt/PkaqhWypSY/OAQAAPhGuLZDRwFZ4VkAAAD4TsAWmFVoOMaxEKAeIVpqW7sOELAFAAAQru3G41fKBlkAAAAgLw+S82l1fOO5XS3+9dru2utndoK1AO1zHqMVArYAAABvCdd2wOAKAAAA5CNYVsbr+Ebt8Q7hzHHYjm8J1gK0z7mL1rguAAAA+NFPtRsAAAAAwNhyh0eEU1iW7/3gfr9XbkldIcFa4Rl6dLvdpt+/GYdrF64qdUy8ffziugEAAJiWyrUAAADAMN59/pRkOl6Bmo5gLaXtVbIdvWKxYC0jEaRlVFvnIH2ePaX6h+sEAACA74RrAQAAgKGcCdh6iFzW/X4PCgg8ByG3/lK3qce/0ZYnZjljjBqoffCjAIB+CdbSMtcYAADArIRrAQAAAFZ4iJxPSDC2RBAyZXCzNSMGSUfcTqmEHq/8kACgrrXzs/MbrXG9AAAA8I1wLQAAAMCy/hBZwDavlBVpa1RCpTzb9zxBGYC6BGvnlepHT6/9peSPqdwXAQAAMxKuBQAAAPh/ArZ9EkxhZiHHKMFagPa4fpnDIwB79gdktbh2AAAAEK4FAACAIfT0oLaGr+8/BH/29UGyB8t1qVAaz3qZh2Ats3G9Q69C+q7+PZ61bWo7AwAA9EO4FgAAAAYkWPfWmYCtUFpd+vExAQ32OIbRO+cBRhXSt/X/cfV6/eaNHgAAwGyEawEAAKBzvT6cbZ1QWn65KtL29trds2ZYRrYdBVwcwwD64ZxOi1xLAAAAsxOuBQAAgMGocrUs7z5/qt0EKnkOp8wSsgUA2nXmWqS16/nHNZVrK1SvBQAAZiJcCwAAAAxJwLYNKSrRHjkKewiBMJoZq9YKdQGjaC04u2fruOt4HOaxrXva5q9GvKYAAAAIJVwLAAAATOPr+w/L1/cfajeDhEKDHaUCIKUCgAIt85o1WPv6v+0DQA9CjlWtHs9abdcVqa/TQir6bgVrU7ahNNVrAQCAWQjXAgAAANClvTBBjQphJQO8MIu9/m5fmJPtTi/O9tUWqpzG/HgpxT5ZYr9O+UONMxV9U23XGv1jxB/uAAAAhBCuBQAAAGAoLYRSaMsoYbyZKsWFhp5G2bZsc0xnJK/9ucVjWOk2PeaXsyp5yum2uM1qmOmaBAAAmNdPtRsAAAAA0Lrnh8cqN7Vr9gDW7Mu/ZaYQzCjHp5m2GTCmFqrWvrYhZNpr7b7f712EXkvMY+bz0/23XwRqAQCA6ahcCwAAAEzn6/sPy9f3H4I++/oQ2UPlNrQWbijVntaWm3KOjj2jB2vv9/vffwAjyBlYXZv2UWXYrWDt4/9uHX/PHpcFawEAAGidyrUAAAAAdKW1cEPP1dygB6/BrZxVFFtzpvIk0KcU+/fZY+NesDbmM1fmF/r50HnWOE84RgMAAIxF5VoAAACASKrXtq/34F3v7S/lUYVv9PU1c9XavUqJo1ay3evXM/R3mEGO/bh0sPasK8Ha1G25Yu2HHwAAAIxFuBYAAABgx1ZoTcC2Ha8Bu9Shi+eg29rfUXvOzIdj1tNYUlZETKXG/hg6P/0f2nW0f+Y43m3N82i6VyrWljhGpwwMr7myDLfb7e/v1z5f1eJ+CAAAGJ1wLQAAADCsd58/JZnOXsDWQ+WyWg269TKfUVhf341StfZV7aDScx87qiKbqj/q1+GsK3q11Xev9Omz4dejYG3qHxiETC/02J+iXbHnmbXPPwdsayp1TBz1mgMAAGCLcC0AAAAwtL2A7df3H4Kns/cwWci2jLPBgSuVZEsQEosz2/pybCnvTB+72i9n69exWgivQYgWfgR0tZp/SAj2qKp/SKX/vXaHtvOss8eUrYBtSiHrrKVjousUAABgZMK1AAAAwNRSBWwZi2AtlDP7fjD78sNM9kKRsceCM8HaM9Vsc9v6EVRIW84Eea8EU0NCx1em3cP5wP0QAAAwE+FaAAAAgAgeKJd3FDY4ClTEhhW2PvsIf5ythHtmPqFaqmBWWqrt0aNRj0ctbc+Y/bHYa7kn7vMwgr3jSmhAdC8420tIs4ZcwdrndR5TrTfmswAAAJT3U+0GAAAAAPRm1EBbi1KGDR7TaiGUlnK5WlieUlJU9YMj9/t9ud1uh/vW43PPQr53pV1Au86cc9aOI2ent/f5Vo4fe8sb8t1lOX9uP7sOrlajLSXn+QcAAGBWKtcCAAAA0/v6/kPtJrCilWBk6iqRRxVrjz43qxmDtbePX2o3YVqtBZRaaw9wLHS/zb1/b01/b75b1z4h39n7C3UUFD6zzs5UiN27ZquthTYAAACMTrgWAAAAGN67z58OPyNg254aoYHQ0MXZ4Gbu6QNlXT1OhezrAlQwvtQ/5Hme7paj4GhssDTVtcvadLaCvmeCvI+QbcjfmqOAcSqO/QAAAPUJ1wIAAABTELCN00rFzL2QxJmqaLEhk7XPpwzWrrVbsJYQ999+qd0ENqTah3OF7UbhWMmIzlR53ZvOlqvB0dQV/fcCrWfnlTusvHWNGLMNU1T5BQAAIB/hWgAAAGBaa4FbAdtv7r/9kjRgezUElSJEFRtUSB0cyTl9IFxIZcIYZ/flvXCb48Nb1gmzCQ1dnqnaujW/2PatTf/M91J8duv7KY4de+s+5Htb3x/lRwKt/CgPAAAgNeFaAAAAYFpf338QsC3garA0RTC1RCjranAiVdAP+NFRmLb0vpcy3Abweozb+9uSsjpsi9cyVyrCpjwuj3KMVz0fAACYxU+1GwAAAABQyrvPn94EZx8B263/fsZr9SYPoH+UogpZ6s/HBGBzOAq8tBhUKWn25X/lmHLsTJ95vM471fzPhM5StmFr+s9GCXrBTFJfF1wNyK615+hYdrQMOY9NKY/zAAAAjE3lWgAAAGAqW4HZnBVse31V6iwBvtLB2tfKaSHhkisV13pXK3xTW6/HjdpqVYBuPcSvMjaUl3OfS3H+i7muOPrc2YqwW3+t29u2JY+1PawrAACAngnXAgAAANP7+v7DZqXalAFbYbl+tRrWm5n1w6ucodSr0976/laQ7Oz8Yl8FD5ST+rx1dnqlAqyOPflZxwAAAHkJ13bIzTIAAADks1XZNsZexVcB2/bFVJYtMX/g2NF+eqYqYqpA7V6wdu3/f/5+7F8Mxxno317119JVYR1TvvMcDwAAYAzCtR0wIAEAAABpbQVoHxVsU7j/9stmyFYVWx6EL4i1F94fRcr9YitMliN0FvP9rTaVYswZIJ1Wjqk1ryvd2wAAACMSrgUAAACmFFOh9krgVhXb8VwN4e1VmWwlnAElpej3r9N43k/PVnZNIXY/z11VUmVsgHHUPJ7P8GMfAAAA4VqAhFQcAgCAvmwFbNf+e86ArZBtu0re5wm8wXdn9r2Q8GgPYzdXA7ClXwVfUw/bk3mMup8BAADArIRrARJ5DObXqoQCAACcsxWkjalsG+L+2y+q2HaiRpVLgRxm19o+sLb/hxwTjqrSxiznVkj26G9koy8f/dvqozP0XWPi53ieAAAA0C7hWmDT88PEs38h0+zZKMsBAACzC61U+/X9h0sVbJfluIot5eUOvBxNP3b+MwR0jlgHc2htvEW/A0I4Vswn5nylfwAAAPTjp9oNAOqr/aAi5/xTDlTVXk8AAEBe7z5/uhycDfUcsH0N1N4+ftkN4JLH/X7v5v40x/Roy6xB+9z7YYzXtsRWnG1lOYA6ZjpPbx3vRl4HV4/zzhMAAAB9ULkWJjVLxdUU1Xdj19MMr+ADAIBRrVWwXZOigu3Da5B2tGBtivvOEpVdR78/Hol77rlc3Tevhp/OjvO8fke/zcfxG+rYGzd3zDv2fI6xvgAAANokXNspA4bEuBIUJc7rIJj1DQAA/QkN2Kb0CNTOEKw9Gx6IDR/EfH4vGLL2B+Szto/1OrbiuJGH9QnlPY7DIc8YZtlHW13OXs+ZAAAALRKuhcKuVkWNne7VaW89SAz9C5le77aW5XndC9kCAEDfSgRuRwvWrhnhHnCPez9ym+E4sSzbAdvY/StlwB9gJiP90CGnFs4pLbQBAABgVD/VbgBh7ve7gYsB7G3DvcH+Etu+5gBMznmnXnehbbW/AgDAeN59/rR8ff+hdjMoQEihjtd7adthblvjobfbTd8AaMzMx+W15zgzrw8AAICRCNcWkiJoJ2DbtzPbLvf2rjHAU/oBSK1BLA+AAABgDo+wbYnKtrTHWE06W/fQzG1vfOXs9AAIE3Kd47j63WN9zbJObh+/1G4CAABAdsK1J9UY3H+dZ+8PGGYZYFiWNrbVTOu7FR6yAgDAOL6+/yBAyyr329e5d2ZPqjc72VcB4m2NcTumrpt5vdx/+6V2EwAAAJL7R+0G9OB2u73547rZ1+X9fv/hL8c0U0//bJtmNvvyAwBAr9aCtAK2Y5p1bMI4F725MsZifGZ8jmWQT0vPGwjjmAgAAJCGcO3/WwvQesBQxozreG3wKWRwai882/KAVi/tLGXGPg8AAD2KCdh+ff+hRJNIrHQlttpjTqXnbWyN1M6MLRmLGpPtCvCdYyIAAEAeU4ZrawVoj4KRvQYnyWP2PiDgDgAAtEDAdi65g7Vr/61k0LVH1yLCAAAgAElEQVSk5/ntLaf7/nBet/ydMVUgB+ckAAAA4Nnw4dqcQdrS4dir4dyW/mDPaIOY+jwAAPRtLUi79d8FbFlz9T736tuWagZrYz/nHvobQVqIN9qYIvk55wAAAAB7hgrXlg7Scp71BwAAwAgEbDmSIli792+thcmutPd+vze3PEC7jDEDbHNNBQAAcF334dqUQdqrlVbdqMaZJaisXwAAAIznOUArYMuWrcqsoeNOMRVg9/62hI7LhI695QwSAwCwbfRnbQAAADV0Ga5NEahNXYn20ZYWK4b0ynoEAACgFUcBWgHbt2a/r98K1sZoISTxvBx7416x23v2/gHk4dgCkN/t45faTQAAACiim3DtlUBt6iDtWttIa+Swcu4HY2v7ypn9J2VVaAAAgBEI2F7TQlC0lJT30jnGtWIq1obY+tzWfIw1HBNagTCOMQD13X/7pXYTAAAAsmg6XHsm3Hf2gYMgYTtsg/PW1t2ZyjGv3ym5b9j+AABAywRsz2kxWJvr/rPEfW2J9Xk1WBujxf4BANC7HNelfgAEAADMJGu49jmwevTauNDPrrlauUOYrx2pXi1IvFbD5R6wAQAArVkL0B79+9f3H4RsG7J2/3u/3zfHqELvmWMruF6x9gPzvfnEjJ/tLevz91Mu7+PzR98zTgDzOXNsbnGcEyC3GtdJqtYCAAAjyxaujQnSnpHyVXhXGKSjFXsPtM5+N+R7rYZyAQAASnoNzm4FcIVs2/QI1h7p9R441fhZ7nG4o+1QexwQKMe4I0AajqMAAADnZQnX5rpRayVQe6T19tGHlAPIz/tOqoC7ARkAAIAfvQZnjyrcjq6n8ZHcY1mzuLq8xhoYnT6+T6AW4Lqc1563j1+yTRsAAKBFycO1qQe+egnUQkqv+9GZ/aqVfcagOAAAMKK94KyALTVdvf8O/b77/PIEWvr22GeMk/3I2CFAftl+SPbbL1mmCwAA0Irk4dq1QF9oOPY5SCtQO6fHNrft45QYfD6zTWLbZRAdAADoSWhwdu1zzwFc2rM2RtXDeFXNYG3L6wVqW9tnZh8Hiw3UHh2XezpWA+SW4xjoRz4AAMCMkodrl+XtQNfWf29hsKvlQcwrv9pvebmOGPi8vg72vn9m2iWCtanmCwAAUNK7z5+CQrYCtu3oecwkp9rB2jM/0FXtkt7N1H+f99nQ5a797IA5zbRfMp6S10eq1gIAADPIEq7NrZXB85zzf512zLy8YqwdJdb/3jxS7CsGrwEAoD/uBev7+v7Dm/CsgG19R/vGaCGu0OUJXS8lg7V703WMozcz9uczYdplEailPH2Ns16Pcy38ZVtWVWsBAIBJdReubX2wsUaljlTfJb8SA3WPecQOWq/9t5IDi/ouAACcJxRQ31b12teQrYBtPe4715WoWBt7jHJMY0RHAdtRjlFnlkWgFiit5SBra9aCtarWAgAAs0gers15Y1nkNSadDuDNdjPPN2cqGm95HsRuYT9ooQ0AANAz94jlbQVsz35uFK3e37XarpJCA7MpKtamCuKmPLY5TlJaSP/uYZw3VdislXFI4Jra1VoFY/MRrAUAAGaXtXJtypvUremMcBN89aa+5HcMPLTteTB6a2C6xPbTRwAAoDzhlDacDc6+VrgdRav9slS7Wh5HKVmJNtSZ6cZ8JzQ43IKt4EoPr2VudZ22IrTPtnL8SBlKa+3H/cBbgqr9ez3Wnj3mCtYCAABkDte2roWb/tA2pAxKPr4TM/DRwroij1QD2Vf6iP4FAACMZC1gGxqcHTVk24LH/e/Rq9lblDq8kqISbQ0p1kEPy9kb6zRezDrL9Ya4EqE5YVp6tdf3ewuUCsrmtRVkrfmXgmAtAADAN8nDtTkqQLR4Q9/CQ4hSFWtpU+1tubWve9AFAABwHLA9qnArZJvH6/1m6nGsHPezz+1Jcd9dc0wr9XyMH9CzlP23tfCcMC29Cemvr/tPzTBqS/t7z1oJsrZGsBYAAOC7n2o3oCc9DETc7/fddh79O/06O5Bzu92qDgLpjwAAwKjeff70JiD79f2Hv4O1zwFbQdp6Uo+VpJxeiR+sx44JXB1DGDWIAmeEHi8e43ctjaPZlxld7Fv/WnhDXE2OCWMQrAUAAPhR8sq1qbUykNBKOx62qoy01k7Sef1VfK5pH33u+S92wCzkl/MG4QAAgJEcVbDd+9zjs4K3ebU8lpL7Hnlr+rH/HTgvdL+qeayapVojc7var2P30ZYrzargOifBWgAAgLdu9wx3va8DAFdmsTats4G85+/FTCd0QOPMcp6d9pX1cmb9pdymoWrMM7Wry7D1/bPbeu/7Zx21KXZePW7nECP0ZwAA2ue6s12hgdqtIO1W+DbU88NyD8m/27pnTR2wKTW9mHvwHo4PR29niv3+1hhGy+tiLeiyLO3tx2f3pVz7YItaCc09jLiO4aqY5zWt7dN77O8cEawFAABY13Tl2pSDq6/TaiFYm1JPAzmcF1vtNXelmefpbP1aPWZetfcjAACAXGpWsN0K55HvPjT1dEOnl/pztV0Z1zBW1oatyoxHFRqPvnf1L+Uy5JjnGapMwnUh+8aZce8c9vZt+zsxBGsBAAC2/VS7ATH2BgEeA5RXArItS11pdIR1wjdHg2N7D6Ku9IPY0OzRvAzyAQAAo3v3+VNQQHbvc6///UxF29vHLx6YP5k1YNuLnG+KIp3exht7auue0fZ3aMGZYhGpjyln9+1HO/ael8EzwVoAAIB9TVeuXRNa1eD5f1+ZV6/2fpEcWhWCa1Ksw7PB2Zjpn/n1+pn5qpYBAADw1lZF2tDQ7NmKtqrZQh+2Ai4t7sPGd64xVgb9Orvfphwr90yHWIK1AAAAx5qrXHsU/Ew1rdZdrfaw9svklOuWeGcHxbb6Qq0KOAAAAKT39f2HN4Ha5/99FKCNrWjrwTkzMeZRzpkqjqO+iWxN6r54u930b2hIrf1x1GMm+QjWAgAAhLndM9ztv97Ih84i5QDAXiBxaz6v7bw6CBziqC01B0X22lBikOhsP2pF7+0nLf0BAIASXHf2YS8ouxeKPVOh9jE9D9CZydGxMHRssCX24bRix1xr9I0e2gjUdXSccFxgjWsKAACAcM1Urk0RIj2q0hpTDbaFUOvr/78lV1u3Kh8YkKknZFvbPgAAAG2LqUh79XuPz90/f3rzIP31f3uoDsxixPEzVWxhLoK1xFoL1S6LewAAAIA9XVau3aqouheuDa0Ee6Vi7JlVmaoqbMkwcKlBmd4rLqVo/5Xt2tv6Gl3v/RkAgD647uzPVkh2r4Lt0Xf3/PzHn4ef8YCd3oUcC2u9qeksgZg5lRqjBvoiWEss1xEAAADnNBWu3fr+1jRiArShVWuvhGufvx8q50B+yLRbfr1Y7w+Fc4fMQ/W83npr+57e+zMAAH1w3dmfvYBsSMA2drrvVirYvvKQvX8138i0pvSxKPRY2NsxUzBmTgK2wDPBWmK5fgAAADivi3Bt7AD41QcIR0HcoxBvjNaqZIQsdym9PeB4Fdv+XA++elpvre0PKfXenwEA6IPrzj6VDtguy3EFWw/b+9VasPZZS29D6nUMYi0gY3+dR8z+3UN/BuLEFJCBvR/UuXYAAAAIM2249myV26PKr7mWtaRWHi60uG5ixLQ/5cB4r+utlX6XS6/bBQCAvrju7N9rIPZKuHZtenvTfX0AX/Ohe8sB0WWpFxKdzdn1XOqNVDWoPoeALcwpdN+33yNUCwAAkM4/ajeghufBhdDKFVufvd/vP/yN4HU5RlmuVoW8xil1H7vdbn//tUq/AwCA61q/7ufY1/cfdivQHtkK54ZMd+/BfKjn+8/QvthDny2xb/WwHnI7u56NKTCymHFCxxHoX+i5cKRnVJwnWAsAAJDWkJVr1/4tdlp7n03ted4GP77rveLS2VcQ7n3+6nxTzC9Xf+19ex8ZffkAAGhD7L0wdezdHxwFXlcrzgYELv76r/8Omm7qV84LdtXT0n6fqx8cvWHqzDR6kHo/pW9eEw/jUqmaGIK1AAAA6TUXro0NuaYM+gm/taX37XE2XJujH6caZM/1oL5muL2U3vszAAB9EK5tX8iPHkMq1f4dho0IXRwFbB/TTRncE66to8V9PmdfCB37WPterwRseRXydiygH4K1xNgK1ro2AAAAuKb5cK1BgXn13hfOVmB+fPZMcPzKg6qjeeSosrs37d6295He+zMAAH0Qrq0jZ2jwKBD78//+T9LpvZn+H3/+/f+feTif8z61ppKh4ZbXQ24p1/No61G4ljUCtjAGwVpCqVYLAACQl3AtTRohbBnTl1+DtGf2g1wVWs5UvY0JBo+wrUM4tgEAUIJwbXklQpYhgdiYkG1swHZZvodsYx/Sn10/PfTZEtu+h/WQW4r1POp6FLBljYAt9C30vGdfRrVaAACA/H6q3QAIMfpA0SNQe+Y1hrGfD6mg+/jMmQdYVx96jb6tAQCA/pWsWrosPwZnt4Kxj//+7vOnw+k9tz80aPvX779+++7yZ9QD+5Hv8UZetpasreecb9eB3h2NLz7+zb4C7RGsJZRgLQAAQBlFKtcuy/nX2hskmNMI/eDsMhztP6GVZGP2w7W2nh3IO1uxN+TzPRuhTwMA0IeZrrNrKB2sXRMSiI0J2Z6tZOvhPTU51n2jei1bzryNCqjHPksowVoAAIBysoRrl+VakCzmlfKMaYQgYqpwbWwV2dhgbcy0Q6Z3JVzb43YONdOyAgBzaiFwyHWuU/ddrZaZIzTx9f2H3X/fC9nu3accTfdByBbqE7Bli7AetE+1WmI45wMAAJTVZLgWRug/KcO1OYO1a/MMmU/otEJDuEfT7d0IfRoAYItg7bhct/5oq6/XCtY+hARh10K2R/cpoQHbrekDZQjasEdwD9pl/ySUarUAAAB1CNfSpN77z5Xg6NUqsmfWXcpBvLPh2t62cazZlhcAGI8ALTn0dl18dF2f8q0gsWKCsMvyLQwbc++qki20S+CGIzHnp97OzdArwVpCOc8DAADUI1zbgdvtNt36673/XGl/SOXaFJVjj76Xahpr352tau2y9N+nAYB5CdVSUuvXyXuVa2sGax9iA7bLsiw//+///PC/99oUM30hWyhL9VqOpHxzFXCeUC0xBGsBAADqEq5t3KzrsfflTh2uPfvdmO9fDbzGhHNjqtv2tu239N6nAYB5XAnTusbpnzB1fqX3k6NAbEy49sz0333+FDU94BzhWkKpYgv1CNYSQ7AWAACgPuHahs1Y3fOh9/7TSri2VLB2axqhQqrb9tYHXo22PADAeK6GKl3fjEfQNr1a+0lIxdlHyPZMG0OmL2QL+QnYEkoVWyhPsJZQW6HaZXFeBwAAKK1YuHZZDArE2HvV5Ax6DyL2FK5Nta+effAeEqw926aW9N6nAYBxqV5GTSMGeFvfT3JXmg0J2qaYD/CWCnfEOHMObv0cB60SrCWUczkAAEBbsoVrl6WtMFlLbQkhXNvX9nrVSrg25Ps1q9buzaf3PvBqtOUBAMbgIS8tGSFo28u+krvSbGjA9up8gB+pdEcsAVvIzz0XIZzDAQAA2jR0uDZk0KLVAQvh2r6DiLXCtWvfP5rG1XDt3vf39sHYqrq99YFXvfdpAGAcPd8nAek8jgV//dd/B30+NgQbE7C9Mh/gRyreESvHj+aBbwRrObIXql0W528AAIDahg3X9vpq06N2t9TWnHoPIvYerr0qx/bqPWjbe58GAMbgfgN4eD4ehAZslyUu/Ho2YBs7H+A7le84Q8AW0ur1+RRlCdYCAAC0b8hwbexgYK52xYYBVZD6rvcgYspwbYnvpwzY5g7W5ppHbiMsA8BZt49fPBCABlx9qwAwnrXjQkzQdlnyV7QVsoV4wjqcJWQL16lWSwg/hgEAAOjDP2o3ILWjB8a5Byxut9vff2v/fe97Rwy2zGFtO1/9pXupCmUlgrWx3z3a9wAAZiBYC4Q6E5aNCczmnj5w7Ch8y7zOXhcae4NvBGsJsXUevv/2i2AtAABAY4aqXBtasTNHu64Mmhhweav3Kp8p2h9b+Xhv/rHTaKX687Kkr8Rbqy/13qcBzlK1FurbujZ6vR5xvQLzibnfyl1xVkVbSCc0POs6nS1XwrKuIZmV5zwcUa0WAACgP8OEa2MeCKVu15Wqolcrko6q9wf7qdp/u92Cvrs2v97X4bLEB2tbrgA9wvYAAPoU8haDFn+cBOQXe891poJsTAg29/RhJgK2XCVgC+EEazmyV60WAACAdg0Rrr0SwAsNLoYGdUPbsVc96mrV0RH0HkSs2fdLzLeUK6H5LcK1AMBsUrym17ULjCnF+MOZQGyIR2j27PSFbpldaLj2QbiHNVevI11DMoOWCz5Qn2q1AAAAfes+XHv2QVBIRdCQaYe+YjXmO8K1/QcRc7e/9SBpCiMFa5el/z4NAPTtqDKtB8Iwp1T3KbkCtsvyLSR7Zfo///Hn3/+/AAOzWQv03H/7RfU8ongLAqzrYUyaugRrAQAA+jdcuDbVPEIGBM+EYM8Ea0OmO5reg4g1+uWa0uvt7HJfHYjsIQzSe58GAObj+gXGl3M/zxm4TUFlW2YhYEsqV3+s5VqSkQjWsueoerxzLQAAQD+6DtfmqPAaGtLLEawN/cwMen+Qn6P9rQ5QXw22xgSGQ8O1r/tUC/2n9z4NAMzH9Qu5Pfcx/auO3Pt56wHbZRGyZQ6vIZ9HqEfAllhnC1KsfQ56lGIsm3EJ1QIAAIxnqHBtiWDtYz6x8w4J43p91ne9P8gv2TdTBndjp3XlF/qxVXi3prM2rRb7Sw9tBAB45vqFnPSvNrS8HWoFc3/+489k0xKgoBVb1WtD/x2epQjYPn8WeiFYyx7BWgAAgDEJ125Ma0+KcG1MsDZk+qNp+QFfiBJ9M2c13JBpXxlMTBms3Zpea32m9z4NAMzH9Qs56V9taH071Kx8K2TLaLaq1279+9pn4CG0EICQLaMQrGWLUC0AAMDYhGs3prUnNlx7FPwzyPhW6w/4jqRqf65g7dUw95VKumeCtWem21qfab19AACver9+yfkjNa7rvX+NoocfKm4pHbxNEbYVrqCmkPDsVkBI32WLkC0jix3H1ofnsxesde4EAAAYQ7fh2pQPgM4MkoQuW4pg7d70R9X7g9YU7c/1kPPqYHaOardr+1Ts9Ft/KNx7nwYA5tPz9YsAR/t67l+j6Xlb1KhseyVkK2RBbQK25BDzI3xvb6MXgrVsOapUuyzOmQAAACMZJlybsmrtUdDvSrhWsDZMzw/3lqXdcG2KPnd22Y5CuVeq4V5tWwkttw0AYE0v1y+53oxAXr30rxmMui1qBG9DvPv8qXYTmNxrKGgtACRgS6zYcb0U44CQi2Ata4RqAQAA5vSP2g2obW2g5OzD2avzhT0lB+m2+ufZfnslWAsAAFtcRwJbWg2xfn3/odngLzxshYNCgkXMKfYtWPf7fbdYhWs8aojte3v9mLEI1gIAAMxr+sq1ZwbqQivXbg0cngkazjZI03vlnByVa3NUrQ3pjynadLWC85XquK30nd77NAAwn9avX1JeR1Je6/1rJrbFj1oLvrYaEqZfIZVr9z4f+j3mdKYirSq2tEC1Wl6F/qDE+RAAAGBswrWJfgUf+3qrve+3HBAspfeHez2Ea/eCtVvzO9Omvf4cuo/ELHurfafVdgEAbGn5+kWwtm/uedvS8r5eS2sB22URsiWdtbCQgC0pnQ3LCtlSi2Atr46Ctc5/AAAA8xCuzRSuvRoanP3hVu/Lf7X9qR82x1at3Zpf7HLFBmu3/k24FgCgvNauX47usWq3j3WP7Xb0Azvbr57W9vXetBjEfSaUy5qUAduQ7zIfAVt6cbZACuMSrAUAAODZ9OHatWm9TjckmHgmXBs7kDjT4E3vD/dSh2tTV60NcTVcezZYGzufmPnW1HufBgDm0to1lUq1fRJW6IN7letaD9gui5Atb72Gh0LCQiGvyBY64uHsD6MEbMkt1Vg543B+AwAAYMsw4dqz0w8d5NsL0p6Zdsg0Zq7o0/vDvZYq156tzhwSrt363Npn9yrlHoXThWsBAMpp7XpKwKJPXq/bD/cqZfQQwF0jlDuuM9Vr9757dlqM7cqbB1wDkoNgLc9UqQUAAOBIt+HatemnlKqtLYUse9L7w70U7U+1DlKGa9emFxrCjZlPa5V/U2ixTQAAa1q6bhGq6JPQQl9a2udH12vAdlmEbEd1pnrt1nf3CCfNTcCWVrhG5ZlgLQAAACG6DteuzSOF1gZMZnzQ1fsy5wjXppzO2nRTVpUN3S9jXv92pXptC/2nxTYBAKxp5bpl1h8a9i71j/vIr5V9vmU5f9z98Nd//fel72+FX3MHeoVu+3aleu3RdLYIK83pSsB27/vOWYRwfcpD6PnKuQoAAICH7sO1a/O5otUBk+dlbLWNKfX+cK921dlQz+0qHa49U5UidD222H9abBMAwJpWrltaaQdxhBf6Y1/bViJU++xqwHZZ1sOuJSrmPua7FVoRUmnXleq1e9MJpW/M5UolWlVsOcO1KcsSdo5yPgIAAGDNEOHarfmFMlDSnt4f7vUQrg0NxR59Lqb67N7nz7Qj9Pst9J8W2wQAsKaF6xZVa/vldbt9mXVfKx2avSJF4DbEz//7P2/+2/1+jw7m/vzHn4efEV5pS6rqtSHTPaJvzEHAlhI8K+JBsBYAAIArhgrXMo7e+07K9s9QmXnNlWrNLfafFtsEALCmheuWFtpAvFLB2tne7JLTLOHansK0a0oFbJflx5Dtoy+cqXwrZNuXXAHbvenv0TfGdzUke/WtV4zNj70IPe843wAAAHBEuJYm9d53crXfL+7DtNh/WmwTAMCa2tcts4T9Yj3WS6l1EdsPtrbb0T3MCD+k61mv+1uNsGwLPzTYUzKAuyzL8u7zp2VZzgVvl+XH8K1gSxtyB2z35rNF3xhbroBt6PcZk2DtvARqAQAAyEG4lib13nd6b3/vWlz/LbYJAGBNzeuWXoN+uZVeL2fCKlv9JmW4Vv9Ir8d1WjpYW3t9tBywTUHIth2lwrUh812jf4xJwJYUrlwb6Cd9UxkdAACA3IRraVLvfaf39veo9cF0fQIA6EWt65YeQ34llH7t8dkwbO5wrdc/51Fqv6tRafbIzH1nbXu0Gsx9VMiljFoB2735rxGOGkuKMT3XCfMSrJ1PbKB2WZw3AAAAOE+4lib13nd6b3+PhGsBAK6rFXAVrF1X4xr3TBh2b/sJ17atxL7XSrBWX/lua5u0GrB9ELQto5eA7bIIS40kZ8A2Zhr0RbB2LqrUAgAAUINwLU3qve+UbH+OB5W9re9laX8Avfc+DQCMr1Z4UbB2XapQaqr5bc33qN/kCtfqI2mU2O9zhWv1gfNS7E9f339I1ZwsBHGveQ0w1QooCdrO5+r4Xuvjg6QhVDsX5wIAAABqEq6lSb33ndTtb6XSz5ZWtk/LwYze+zQAMK7SIc6j+btOCrv+rxV+jAnXpl6O5+npJ2n0Gq61/a9JedwVsh1T7eq1a7wGfB6q2LImxfWEbd8PgVoAAABaIVxLk3rvOzHtbz04m0Nv2zOF3vs0ANCvq9ebwrVlbf1gLNd6OgqfHP2AbatdZyvhUlbJcK1t3Y4ax93aIVwh23gtBmyX5VzIdk0Ly8K23AHbmOlQn2DtHARqAQAAaJFwLU3qve+stX/GEG0KvW37Lb33aQCgP6muP4Vry1VM3Quylg7X7gVoQ9olXNuHUuFa27kdNd/4UjtguyxCtrFaDdg+pAraPmtp+WYnYMuyCNaOLvY47hgNAABAaVnDtcvitY2c08MD9j2lg7Sp188oQeCW+k3vfRoAKK/GNVnOCqlraoa8QpVq49kKsannuzXd0BDtXri2dP/iWIlwLe3o4Zj7kCuIK1wbr/WA7UOOoO2ytLmss8kdsm31ODi7Xn4oSLwzx2vHYgAAAGrJHq6FM3p74Foi+NDyOug5jFtqvfbWpwGAemqFarfmXzJc29o1Uskg2t66yNWOmOleDdfmrsDLOcK1c+lt/8td6VbQNlwvAdtXKtuOI1U41nmvD3vbKeZeyXZth0AtAAAAvRKupUk9PfDxaqofnX2tbCtqhCUAgGtavrZoxZWqXqWuj3LO64zS7YutAJt6fkfTFa4dk5DRXEbe/64GcQVtj70Go3oPPaUK3va+HnqSsvps69ehMzPWPoazx1jHVAAAAFojXEuTehngjB3sa3EZUkv9cLZ2WKb063YBgDi1rxVadzVoMGvV2hr3IynCqM+fjQnKHn1+qx1b09mbfsvbfUZekz2PXsZZrkhR6VbIdluv1WtjCd22TxXbMaW6r7P96hGoBQAAYETCtTSrl4euIQN/rbY9l1Ye2uUI26QMCc/WLwAgtRmCtSWvF1qvWvv4TumQa4l5rs03Nox69nN7nz363tp0joIqvdznzeJ5v7JtxuV+VGXbVEarXhtC2LZNArZjUa22XwK1AAAAjE64lmb1/GCv57an0ss6uDJ423IlOACYwcjh2hZ+mNRS1dpSwbBWgrWP+ca0J2SdXlm+o/1tKzx79O+uiesSrp2DbfuNyrbXzVK9dk+qsO2W2dbnFQK2YxCs7cuVY6DjGwAAAD0SrqVZPT/86bntqfS6Ds4O6J6p9tXLOgGAVjm3plVqfcYGPEsFHnoI1j7+LWQ6r5+7unypfpRmv22LcO0cbNttKQK3e0YM4wrY/ih32PbZzOt5T4prxVRBXcKl+qGk7ZOf6rQAAADMTLi2Qy296j6nnh/+9Nz2VEZZBynDtqOsEwBoyfP51bn1mlrh2jPB2qPvnVFi+df669p8Y5c7JDibYvnOXBvnaAfpCNfOwbbdlztguyzjhWwFbI+VDN3umWW7pLhmFLAtI+WzDdslnVTHrFmOOQAAAMxDuPaikV9Fu6dGBaeeumrPbU9l1HVwJVAw6joBgNSew16U0089EQ8AACAASURBVEq49uh6q4XQb6p5xAitWLv1+VTLF7sMwrVtE66dg217nsq2216DWAJV+1oJ2+7pfRumCseWemvCbFI/R7E9rhOoBQAAgGPCtStmDcy2YoQgYs9tT2WGdZDiWDHiegGAK66+up7zWgjXhlxflQq9jhSuTb18McshXNs24do52LbXqGy7TvXaPHoI4T60uL0FbNsjVNsOYVoAAACIN2y4VkC2X8K1Y5htHZw95oy+XgAghofYddUO19Z6FW/pQPfVyq+h09tbrymW72yF4dnuE1r2vC2Ea8dm26anou03ArZl9RK8baEPpLiudG9ynWBtebmOEy3s1wAAAFBD1+HamQO0qTdbS+tSuHYMs6+D0H1qtvUCAEdUrq2nZri2VrB2qz05ph1boTekPUfrLef+lCpce/R58rndbrv90jYZh22bh4q23wjYtq3VQG6JPqKKbV1nrlP3Ps82FWkBAAAgny7CtS0FP9fEVhLqYJUfyrlNhGvHYB18dzZ4AACzch1RR61w7Z4S275UuPZ12lfnW/vNCWfbL6DShsd2EK6dg21bzowVbbdCXUJa/WkxiHu1H+UO2MZOZxZn3qywxfrNu286VgMAAMC+ZsO1tQO1Oav5NLrKm9Pzw5+e256KdfCWIAEAHHP9XE9r4doawdrU892b/pX1feV+uURl3pjvnfk+1wnXzsW2LWvGiraq186pxTDupn/9c/U/C9imF3P9u2emdVpyX3JsBgAAgDjNhGtzhGlrL5og3TU9P/zpue2pWAfbrBsAWCdwV1dL4doRgrVb87kart1qt7clEEO4di62bX0zVLQVsOWh2dDtRsB2WZZl+fd/kkxj1j5/FDyOffYzw3lKNVoAAADoQ7VwbaowbasDLX7Jfl3PD396bnsq1sG+s1W+AGBkrh/qaiVcW2q711reK+Hao0Cw+1BCCdfOxbZtwwwVbQVsCVUtgJsiYLs3nYhpjLJvpAzWtn5+2uu3a9tTRVoAAADoX9FwbSuvrizBQ83ren74o+pa39sPAKjD9UNdtcOmpaVqx9F0UoVr3WOQknDtXGzb9pQI2i5L+bDtVpBM6IuzsoQTUwVs96YVO53ESu1zKd9GeOXc1Gy15IQcRwEAAKCObOHaFAMrPQ/2C9de1/PDn63t39MyXNXz9gMA6nD9UJdwbXw7Qu77UoRrBWtJTbh2Ho4f7SoVsF2WsiFbAVta9nf/LBGwPTOtnuwtd6yR11Mgx0gAAABoU5Zw7dlg7WiD+7fbbfXVR6MtZ07P66639Tb7Ayz9HgCI5fqhrlrh2pzzimnHmcqxe2LDtWemDWcJ186hleMt56yFVP/6/dck084dthWwpRepCiQcXteNFh5dC9b++z/nArejrZsIjokAAADQvuTh2pgHhLMM6HtANa+Zt/3Myw4AnOP6oa6S67+FwNfVyrFnXQ3X2i/6/hFmK4Rr52Cb9m8rpNpDyFbAll6UCti+Tm9rH2laymq1y9JlsNYxDAAAAOZSvHLtjAP5HmYwI/0eAIjl+qGu0uu/9vYOnX9ICHbtjSV7nw2d7tZ3Z5a738QGY3oVEq59/Xf6U/s4SxohAbwrYVsBW0j7PKOFZyNZgruNB2sdVwAAAIAcsoRr+ZGHGcxIvwcAYrl+qGv2cO1aO0KDtXuffw3exk5/7Xszy9lvZtoea+Ha5//+0Ptyzs72HMtRWK6ngK0QHC1KHYpNVRG3Bane4tDjsgMAAABzE64twMMMZqTfAwCxXD/UVTtcW2KeR/N/bsPZQIR+nFeu9RsbGul9uwrXzqH2cZb0QqtRng3a5grZCtjSi9QV7EcI2ArWAgAAADMTri3Awylm5CEeABDLdXM9ta7dal8zhlSaXfv3mGnqx9u2KvqGfifmezHTDNH7dg2tptz7cmKbjm4vbHulku2ypA/aCtjSEyHbb2Kr+ve6nAAAAABbhGsL8CCDWen7AEAM1w51tBpwrTn/VzHt0Y/DtFIZOLQdo21X4dp51D7GUtZRZdszgduUIVsBW3pz5QdXodNq9ZgsWAsAAAAgXFuEh1PMSt8HAEIJ/9TTwjVbyuBC7fm3sD57cLYinHBtGsK1c7FdWZbvwVYBW4iTsopt7WveUGeq+q9paZkAAAAAzhCuLcBDDGal7wMAIQRr62rlmi3163dTzP/MPFtZn607WzE45fqN2eajbVfh2rnYrmz5+v7Dqe9dDdsK2NKb2QK2V8O1rSwHAAAAwFXCtQV4iMGs9H0AIIRrhrpaWv9nA5c55psiWHt2OrM4s71zhmtDg7VX59sC4dq52K7sORuwXZZrIVsBW3qT8jq11jVviNAgcWj1fwAAAICeCdcW4CEGs9L3AYAQrhnqam39l65gmyoYMGIAM0aqfnS0HkvNJ/ZzvRGunYvtSqzYwO3ZkO1rwFa4ltaFVnTtNWQrWAsAAADwo3/UbgAwj6uvFAMAYHyjPJQfZTlCrF3n3263U9f/r+utZqXiUYO1AEdiw7Jf33+4VAH3Ya2aLbTkfr8HXQukDOGWGk8VrAUAAAB4S+XaAlQIYWb6PwBwxPVCXbOv/1yVUGdZj7kqDd9ut6DAa64Kw6MHR1SunYvtSio5KtqqXkuvRqpieyVY65wCAAAAjEzlWgAAAIb2qKKaq/LXrG9oyLncpYIaMcFagNmVqGirei29SBmafUzvqDJujuvZvek9t0ewFgAAAJiRyrUFqBDCzPR/AOCI64W6Zlj/e8t4dvmPggijq1XZNXXl2qNXHJ+dT+tUrp2L7UpuRwHao1DuWqBWBVt6ERN2jTn+lrg2Cb2eFawFAAAAZqVyLQAAAFN5BATOVv4SrB2rsutoy3OW9TCPnJW8mdNReFYFW0Z2VG32WWwQN2cV25Dr2a15zHC9CwAAALAsKtcWoUIIM9P/AYAjrhfqmmX9ry3nmWUXrK1TsXZr/lcr1+4ZeXuuVa6d5Vgwo9r7LfM5U8l2K0yrgi29CbnWOHP8zVHJdi8469wBAAAAoHJtFaqDAAAAjEXQIL+S99K2JyPRnyntTCVbIVpGcfXHWmene6aS7aM67vPfXvucTwAAAIDZqFxbiAowzErfBwCOuF6oa5b1f7WKWGshg0d7Ss+/Vn85+0pilWrXqVw7J9uYWo4q2T68+/xptYKt4C09Cr0GyVHF9ux096btnAEAAADMSOVaoCiVmwEAaNGZYG0qj0pjofN5/tyZKmUjEKzNb8Z+NTr9nFqOKtk+fH3/Yfnr918ztwbKeK4Eu+dKxdmz09269hSsBQAAAPjRT7UbAIztfr97KAsAQDdKBTL3wg5ngr4lKtn2dF2fs1pczPx7CqO4d5tDT32SsTwHbEMr2T7cPn5RvZZuPR93986za1XlQ6cdOt3YzzhnAAAAALO73Y2QFOHVe8xM/wcA9rhWqGuW9X8ULIgNFuYI1oZMt2ZoNHVfiQmRxMy7dsXatfm3tl9trftZjgdAfSEB25//+PPv/1+4llHkvE5J+SMZ1wAAAAAAwrXFeEDFzPR/AGCPa4W6Zln/KcIGKdbNlWDt0ff3pAzChkzzqHJrbL8L/fxR5bXcwddeKr8J1wItOQraPkK2AraMJPePga5c+zr/AwAAAHwjXFuIB1TMTP8HAPa4VqhrpvVfO2RQK1gbO5+QecdWjn39fI5wbej6zRmw7SFcu7cuZzoeAG0JqWT77vOnAi2B8kLesJBr2innBQAAADAa4dpCPKBiZvo/ALDHtUJdM63/3BXCzsw7dD5HgdDS1c/OVo6NnV7o52PXb+oQbA+h2mWJ70ettR+Yw1HQVsiWEeUM2MbMy7kfAAAA4Dvh2kI8oGJm+j8AsMe1Ql2zrf/QEGrr4drYyq1n57s13fv9/sN/f/3fR/OrHa7d+05Ie3JMp4TY9dha+4F5qGTLrHJfV/R03QIAAABQm3BtIR5QMTP9HwDY41qhrtnWf63lvTrfWt+PfZXwq9DKsanDtaWWb0+L+5JwLdCT28cvy7Isy1+//7r7OSFbRhJybRL746GQHyU55wMAAAC8JVxbiAdUzEz/BwD2uFaoa7b1X2N5rwYYUgQgRg7X5li/V7W6HwnXAj26ffxyGLBdFiFb4uT8gc2oXBcAAAAAs/lH7QYAAADAqFoMfpZwv9+7CC4/Pp+ivammA8BbP//xZ+0m0Knb7bb6R7ytdVnyDwAAAKAklWsLUf2Fmen/AMAe1wp1zbb+Sy5vjoqzqaYT8v0rAYYrlWhjPp9je55Z7l72G5VrgV7dPn5ZlmVRwZZDApjzct0CAAAApKZyLQAAACSWIli7pmZF2CMlK7fmrF72vByhf0D7VEUcQ0gF26/vPyxf338o0BpaYR9mWfJeHwIAAABzUrm2ENVfmJn+DwDsca1Q3/M2GH39l+pvqeZTczox4YRWKumO3n+viq1cu/YZ6M3ZoJW+35ZH5dqHkAq2DyrZjutqkLLn/Tz3ddHtdvvh+72GVnvexgAAAEB9wrWFpHqVJ/RIYAYA2CPMRUml+tvo4dqr6+zscuVs0wxC1rv7N3qVOvil77fnNWB7/+2XZVmWwyq1wrXjid3fR92fc62HK9cCvYZw14zabwAAAIBwwrWFCNcyMw9nAYAjAraUUurerKVw7dn9q8Vw7dp3U7RnFsK1jChXkEvfb89ruHZZwgO2yyJkO4LQ/X22/Td3oDX3dXLvZutvjGPtvLrmca4FAACYkXBtIcK1zMzDWQAghGsGSpgtXHs1iJoryCogW4dwLT1KGcK63+8qYHduq3rtsoQFbJdFyLZXR8cC++83OYKrtdftKGHc2uvxjOdjroBlH0IDs7XoRwAAQG+EawsRrmVmHs4CACFcM1DC7OHakpVva02Xbc/rfGtdOxbTitSh2qNp6+t92KteuyzhAdtlEbLtQchxwL67LtUxtPf123owt+X1u/djBsprPTSbgj4GAAC0qFq4trVBjdyrQbiWmXk4CwCEcM1ACcK1ddoROt2U0+Yt4VpqKjEWqL/O4SjwFROwXRYh2xYJ1aZ35hg8+zqu8QyrlXV+9EMG8pkhRJuKPgkAAJTwU42ZthasXZbvbSo5eNHKQAkAAAD5hQQbZ/P6inbrBcYjVEtp7z5/igrYPj4rZNuGo2OG/f0c6y1e6DpLeZ6r8ZzqTRuEO4toZT2HBFRbaeuro3YJ3wIAACkkr1zbYnA2haurSTUeZqbyEQAQwjUDJdSqXHt2fmf3i9TLmXu93W43+3wBIYGNmsfi1seU9NFvZq7kRxtCKyrGVrB9ELKtQ7VaRtdD9eC9sKKgYrxaodSWt1WrQd2HltcdAABQR9JwbesPQVJI+SDSYCCzEJQBAEK4ZqCEGcK1e/O+spy5pks5LYdrextTmrHPC9XSktdwzlYY5mzAdlmEbF+lrjQfekxxHGBkre0HKoGeVyI0Ovr6bzV4O/p6BwAA9h2Ga3MOnLc0MJZ6OdeWzasumZn+DwAcEa6lhFHDtaWqvZVaf8SJHdOoFa7tLUB7VWv7RQvrv7V1Qr9Cq9c+iw3aCtd+V+v44ZjBbGr9mC001Chk+KNcYVDrOUyrYdxntiUAAPTvtizLfVmOw6CptTgwlmN5W1xOAABokXAtJZQMh6Z4OB6yX5R+jbI3s7TlylhGSH9KtW1bCHbWVHMfaWHdO0aQQ2j12mdnKtnOHrJVtRrKK3m9HRNQnCEouPXjjRxBzhnWZ03CtwAAQAp/h2tTGnHw6+wg4ojrAgAAchCupYTeKq+mDk7Sh9JBpue+kvJYfGY5Wu63LYRUW9HydmIeZ6rXLst6wPbd50+bwduZw7U1z0cwu1L3x8K136hCy7K0F8jVfwAAoL7k4dqRB8BGeygEAAAtEa6lhN7CtcviXnQmLbx2O9WxeOR+O3PItpdtxDzOVK9dlviA7ePfZ7JVOTPlMdAxBbaVqF4bGyQcJegnSMtZLYRv9TMAACgrKFxrkCtcjw9qAQCgBcK1lNDrPVtokKX15ZhNLyHMkuHamfpoi9u/xfX/WE8tto32nQ3XLsvbgO0jPCtg+03J19ID63LfI68dQ4/Cg70F+3KHIXtbH5RVI4yrTwIAQFq3+/1+3xvsN2AWz/oEAIB4wrWU0mtYJCSo18NyzKKVYOVWn3huX+pwrWDtj1roC62u+16Px7RjLbRytnrtc3B29oCtfRPakPMe+Wzor5fg3pVQYy/LSP9KhW/1aQAAOO92NyqWhQdJAAAQR7iWkvQ39rQQhoyVqg+nDtfat9hi7IxUzlavXQvQrgVn90K4oxKuhTbkumcZOXg68rIxn1zhW30dAADCCddmZBASAADCCTtSkv7GmtZDtSX66dV9Q7CWEN76REopq9cuy9vw7FYV21FDtsa0oR0thmuXpc1gXuwytbgMcCR12NZ+AAAAx4RrAQCAJgg7klLpkKT+2obWw7GhavanK8fi2+1mX+CQYC05nK1euyzH4dnZw7X2S6gnx/6YIpzXSiAvdFlaaS+UcGYft48AAMA24VpoUGsPhB0mAIAS1h4cqoDIGS1cT+uv5bSwvc9qrZ9cqVYoWEuorX1W/+GKK9Vrl2U7QLss30K0R/8+EuFaaEfq/TFV1cvaQTyhWgh3dr+3/wAAwDc/1W4AzKyXh8Bn2mngHQC4qpdrJcrqpV+kbmfv19e9bLdnva/zFARrgV7cf/vlUmgsJEC79++j6PF8DcxDqBbive4PofvRlbcCAADASFSuhUIMTq9zCAIAnnlVNHtcU3/Xw/7Q6/bqYd3mcqY6mmAtMZznySlFCGT2Craq1kJbUu6TqarWLkudkF1I+4X/IJyKtgAAEEblWsis1wfKpXiwBgA8u9/vrp8mlWO7l7yeLN1v7Sfb3EeUVXN9J39VcuB+pY+d4/6fHqhgC9AGVWohr8e+ExuyfXzevgcAwCxUroWEUj7gbmnXbP3BfUvrCgC4buvawzl/XL0Ha1+1fv08IseHNHqqWJg6qHlmv215/bTI+Z3cUr6+eC1A+1yZtvcKts/tf25vT+cBmEGqfTJl1dplyRuqE6qF+lS1BQCA74Rr4YIUD81H3QVbCBSMum4BYHTCN214bIfY9V7iOnDGvtDC9fVVM2633sQEOG4fvxR/eJq6suzV/SpVn64dZjt7vD87n1eODaSyFgSpEbBtPVz72m7hWmjXTOFaoVpoV+wxxH4KAMBIhGshQisP3kZSOyRQe5s8L3/ttgBAS9auEZwryzm7/gVry6h9DR3D9upLy+HamH5f6niVon+nrsCbYv655jtyuNa9fTtSVq9dlmsVbH/+489k7Uhlb3lcf0N7UoRrUwdrlyXNMe1Mu1o5lsKshGwBAJjRT7UbAD0Qqs1n92FtgdBASw8ObrebvgIA/+9+v785TztXlrF1DSY42w7riVmkrlQbOt2r0ytVOfeq2vNfljGPZ65XxvLu86c3gdSv7z/8HUhd+/c1Nap9vwpp5zP9GPqXI1h7hWAe9O2xT4buy6l/9AQAADWoXAsHYh822aXKK/lAMPX29bo9ANinElwdNQJXti/UF3p/8nhImvPhaOpKtTHTTTW9qz8mzXlcLD3/ln7YmoN7+3ashT1SHKtGqGC71catyrX6MdR3Zb/MGayNOZapUAtzOHvMsb8DANA6lWthR8zDJpVJ6tl84JshFJI7aKIfAcCPHhVsnR/LWqscHPt92vDYjrYJKeV+AHo2sHpmuqmnt/bvr/OoXTG29PxrLy9zuf/2S5ZA2VGF2tAKti15DgcDpCRkB/OJrWr7UOKHmwAAcIVwLZyw9WDMg+u2hGwHD/kAoH2ureo4G7C1vdrxvP3cqxDiarA+hV6CtY/vh6yv5/2vxfWbsl0qzn/jh0FzCgnY3j5+ER4BsstZtTblfB0PYTxCtgAAjEa4FiKFVJzx4Lofa9uo9sNOAKBPodcQPV0j9tRWfuSalrNq7vdb/fZqm3IEa9emE1rJNmaaIULHIPbWw5WAreNNG8Fpyvv6/sOb6q9rAdu/fv91+fmPP0s2LYigL4ypVLBWdVpgz+u+HnrMeP2cYwYAALXd7p6Wwq6Qqiu5HgDSnpwPy/QXAOjT2esD535yyVX5E3LK2W9fp51zP0hxzxjTvtDgcMjnzqynK8s72vGoZD9jX85Qxlpl2teA7dbnngO2pYMiW+15boc+DO2J3S9rVaw9IhwHrBHSBwCgByrXwoFH9ZG9gavHv6lSMj4PFgAYgWsWGJcf/pFLztfc56wsW1pMJdu178QInf7Z9Xu0zV1PMKO1yrRnPlfy1cch7bU/A6kJvwFHHseJ2JBtyesoAAAQroUAvT7UAwB48MAcgBaNFKx99fixbg45KsautXcrYOu6Ar57hFfXKtg+++v3X5dl+bGCbatGOQ7DTFqpWivsBsQSsgUAoGXCtZBRzso+AMC4BFb65dqP1uiTpFAyIDpan90K2F5ZzpzXCVsB28e/nZ1/THAXRvfX77/+HbC9ffxSNRBSe/5AGrWCtY4fQEqvx5TQY9vr5xybAABI6XY3ig1JvT4ssosBAKGEavvlmo9WuB8htec+lbI/lQzW1t4vUs4/5Frhefpn13PKa5IU7elB7X7Gd2tBjNQhi0e12jXPFWz3PvdcwTZnCGSrDY/533/7Rf+FRoXsm4K1wExijnmOUwAApKByLQAAXNRjKNYDcwCOtF6x9rWiam6l57c1/yufD237VsXdWK/zSzVd2HP/7ZfsYbN3nz/tBmefP/cQ8vkSnkO9o1MhmxpSX+cA8N0jMBtyrff4jJAtAABXCNfCJHJVGwKAmfX2sMs1AAAtuho4KRF6LT2/vfmf/Xxse68GYV13MLqtgO3jvz0Ha9f89fuvy7LUD7vWqnqZ2+P4VfuHEczh6HyZoh9ufbfEDwoAWnMmZPv6XQAACCFcCxN4Hdxbq9ogfAsAbYVlnY8B4EepztOxlQxrXx8cBWXX7vlTKVFpVmVJehZawfbI7eOXYkGPGYJ4tY/bjK+1PjbDfg2w5vX6SdgWAIDU/lG7AUBeIdVqzg4G3m636gOJjzbUbgcAfWvpXHK/3wVMAODFlfvWV2cquNaS6tXSV6Se39r0WrkOgzO2KtR+ff/hh+Dt1uf++v3X5a/ffxWMg0Kujic7ZwG06/7bL9Fh2dvHL67DAADYJFwLk0n1UOz1lZgtDCq20AYA2vT88GztL4VHKPbqHwDwTci5eu8cmrqCa2mpgrUprjFSB5IFbCktd2BiKzh79nOk5T6LLTnPPSX7nVAYwI+EbAEASEW4FhqVK/iTQmxbWmo7APPJfR4SigWA617vfUPO33vn35bvQ0Pu8VuoWHt2/mc/V3v5GEuN1/umCNhWC3T8+z915vsk1Rhoy8d/xrB3vprph7MCaEAPHiHbmLCtkC0AAM+Ea6FBW4PApQaH9+ZzNljbWkAYgDEcVaQ9c+5RaRYAyno9X5+tVBvy/R60VLE2ph1n5vf4/IjXVL33Q85ZC85+ff8h6HN//f5rljatqRE+3hNzHog14vGF+kLGB4qN5QuAAQSLCdsK2QIAsCzCtdCVXIPBodPtoWKth1cA80h9zBeWBXrnWphenD3ftnaeDv0hz1a7175/Jlhber2UDOz2ZJTl4LqrAVshDhiT8wRAe2JCtsK2AABzEq6FTqQafDtbya/Eg/ozbTMoCTCHEhVpAXrW4ivkYU9o/xzlXH1UaXfr+ubMeiqxvlxLhfGjh3mtBWdDPydgC4RyrABIIyRk+yBkCwAwF+FayKzmg5SjeT//+9qDsCsBpjUxr+30AAqAhxTnBIEPYDaOe/Totd+2VuH26nRjv28/7o9txp6v7z9EVbBNNc9g//5PknnWZDyRmQh2AaR3JmTreAwAMDbhWkgsxYOUWg9jnivOxA5GX2mzgW8AXsX8wOOoIq2QAwD04Xa7/X3eLh1kLTXdmEq0wDzWArZRwdgVR98PDY7U4keWb6UuhDAj6w6AEDEh22X5MWgrbAsAMBbhWphIqw8XAeBZzMMu5yAA6NfWG1Ryn9+vBJNKhL1c38AY1gKzsZ+/GrCNVql6rR9FxhMSTSNXvyuxfVoPyAOM4BGyPRu2BQCgf8K10IlcA3Jb0w0ZWEwx8G0gGIBne+cFFWkBYDw9nc9T3r+quA9ziA3MxgZyrxLOgzKyFb2IDHsBcE1s0FbIFgCgfz/VbgCw7n6/X3pwl6qazut0POgDIJXnc8zRec/5BwCo7ep9OjCnd58/vQnUfn3/IThI+/hu6eAtcytRST60HQ8h7Xl8voW2l/QIeYUGuF5DYYJfAPFijr2vn/HDCACAfgjXwiQeA4otPQw8akcrg7itiB1MBmjZ6zlg7ZzgWAcApJTi2sL1CXDGWsC2VjvgyOP+PDaomjrYujZusDft588L2e4HvZ7/XcAL4JozP1h4fMYxGACgff+o3QAgXGgotpXwbAkzLeuzWZcbmMdsD8AAgPRcTwDPeqnMmCsAK1ibzu12e/M3irPL8hpsvbpOYr/f0jZooS2xrywHIJ3YY7DjMABA24RroWGpHgQeTSfHgF9IVdpXqggBkMvaw88RH4QC0BYPyeq73+9//wFzab0S2F4l27UgbLHKt//+T5n5dObo/rHGveWZ+e19Z2/Zzkyz1Ppo/Z6+5jXII+AVE/QCIA0hWwCAMQjXQmfODmaWmn/IZ7z6G4CSQs9drT+QAwAA+hUbmA39/COM8RzIiAniCty99RqkjblXzHlfeXX89Hl5XttZMgib8v7bfXwcIVuA8mJ+6CBkCwDQnp9qNwDYd7/fgwcJQ0Ora9O83W7Bnw2d95U2HrUrZp4A9CP1jy2cKwCoSXjhnL37QOiN/syzd58/RQVfYz9/+/hl+ev3X880bUhn9r8UodMW9/ur98Zby9RK8Jg4z9eoQlwAZT2OwXvH39d/M7YAAFCPyrXQobVB3hTVYGMCsmdepx3yuZA2p1re3hmQBtjnOAkAfbga1oGWzDY2QXlf33+ICtzO6U1BpAAAIABJREFU7ur55GifHmGfLzHOmiOEW+INbrHz6PH6RTVbgDpijr8q2gIA1KNyLXRgq9Ls0Xdip5niszFCB2l7HJTMIdd2AGhBqgd3sedHx1UAqM/5mNG1WMUSRrN1LonZ90KmsfU2sNbPZbFjwbN7XleP///MerEuATgSUsn24fEZP4oAAChH5VoooPTgao5Bu9hp3u/33e+c/beU3xlB6wP3ACU5JgJAn2a9n2Nc+jQxjirRvvv8afd7whVpgrWhet2/t9bRlfvokO/muk9P9Ya0mGmPPuZw5liiiiJAOirZAgC0SeVayCBHtYLQacYMGr5OM0W129dpnF0Xqims66ESBkANe8fGmc4TANAr52uAbe8+f9oN4N5/+2XIgEVI1eec42RXzk29Vqy+0ubHd2uMXcaOc28x7gpAba8B271rPJVsAQDyU7kWOnKlGuzRNEO/+/z5tb/Q74TOK6QtAMzpdrv9/bfFeQIAAGjJUSXa2O9d1XMot6UgZG/3nmfaW2J9X6mGGzv2zFuv4ayQKoo9H0MAehB6LHY8BgDIQ7gWOhQTbO1dbJB3Ri09SAAoJaSSunMFAADQorNB2b3vJatY9q9/pplOpJjxraMfWeae/yhi31B2Rc7781TTzvEmuh49QlzPxxQVEQHqE7IFAKhDuBagM70OzAI8tPLQspV2AACMLuSNAzCbVJVonyvezhCAK3UcmXH8LWaZU2yHls4Ja20p8Za4nsxwfAHogariAABl/VS7AQAAzCPVA6stodNq6SEe/Xr0oxEfnAJAKqWvu1o9P99ut+baRH3vPn/6Oxj78PX9h2TB24ef//hzGaH37R1P7ve7+7yKQo5vKbZRjm2ce5xiJAK2AO14HJO3grSP/+7YDQBwjcq10KHnii8qv8xp1AoIwHwcy+jV8/VXi9djrhMBmFFL52fXuYRaC9K+Bm6PPv/4ztr3fv7jz/ONK2hrnwm5rp1lf0t5TOvlPqHGtp2lPwEwhqNKtqrYAgBcI1wLHdkbSK790Ig6DPYCfHflmOhHC3Fm+5FP7z9s6q29AHDG3nhJK1pqC22JrVR7prLtWrCi97BFqvu4XvfNGm+BWZZ866vGduh12wPAq72Q7e3jl+6v+wAAahGuhU4Y6GOP/gHMroUHgbNYW389Bk5DjbpcANCTox+4HJ2vQ8/nqX9I48dbXLFVifbhTMD22WrA4l//rNpvY+ads5170756fBjx3inXtkg53dD17rgNQO+OqtgK2QIAxBGuhcaNMuDaa6U3AMawdx7y8OxY6Hm8tXN9bLXZMxVqH9Wy9COAetaO33t/9O11G6YKuqWeLvXNEByIDdjurpN//fNia8po7dr77A89WzontbQ+c2hlPQNAKXsB22URsgUAiCFcCw3bG/hrbSB5T+4BTA9JAeYSe7w/Op+y78z5tYXzcmyF3TPt1X8A6uv1PNW72vfhqa7vUlW8pQ9HIYPazlaiPfO93sIUZ3/Q1tI+fPU+pJVlSd2Ox/RyLV/MdN3fATCS+2+/BIVsAQDYJ1wLjdoa+OspVLss5Qd+WxloBiCP2sHa3ivixbav5WXZk+PVz88P9Hu7HluWfrclMLeez7kppV7mq9PLEaw6mmbseTfk87P0H/pSMmD7g4aq1l65zs59jd7ScaOV+5Ecx+fXz7WyrADQo6OQrYAtAMC+n2o3AHhrL1gLAL1q6QcXZ4O1sZ9t6dz9+grSZTlu3/1+v7TdaqyHHJWfWtqOoa5uO4Dax5Da82/FViX2ZUl3PRMzvVwVC2PbkXK+kNPX9x/+/v/PBmAf07gcoCW5o+PV7XYLPrbufa73Y1boesgxXwDgm0fAdi1M+/hvrb/pAQCgBpVroTFrg349VkdbFgOYAHy3dX7LMZ+96mdnz6lnz2mtnAvPVPx9Drj0ci2SIljbe4VagBRKnbef53e1mura8fvor3U5g6w1vp97elfmW7JftHJ9SH7PwdrH/379b6nmszbdd58/Le8+fxKSKGjrGBKy3299pvQ5uVUplnlvGj2sU+cPAFJQxRYAIM7t3sOoAXTodbArdFeL/d7z51vbnUsO/p5dD2e3U0tarI4I8CrV8XYvNBvyoKlksDZ2vjnP6TFV8Y/O30fB1JoPf69uq9HOpSNc5xDO9ialkv2p1Hm2R0fr5sq975npnX3LzlZ/SnV9EtqHQq9TcvR/x+g6XsMBpUOmR0HavUq0e999/l5IWPd1PpuhiX/9c1mWNvrnlX3mzHdDvhN6n7M2rZD/FjO9M1Idw0O/u9fuq+ekK9sr9n619vG79vwBGNdekNaPswAAvvupdgOA785W58nxaq2rwZgzr84+M58r30n9ek2A/2PvT5IYx7V1wVoKixFkNvxOzu9wciDPp/LP4m9m5/kolI14ukeuYAGAKDbAtczczgl3iQQLsQA+bjJO6YBf6XSvDECmfL7XazO/55M7yLnX7pkq6jjnA7R35byw4nG6d1Cm5Xm55DXmuddXtdofqfrjqFekE0tpFdvc7929AlmN39uV40fOA6Lf/ZIz3Vd9u3JfOHJ7AcBdvAO0W9eK778TsgUAeDz+Gt0A4B9XOv1SAj45r9c8GgArfUVn7rxaO5vvLJ3Xs7QTYJQWwdpeWgZJas0ntUJQL7nb2wArqxh9vIIjgrV/2nvIs1UQaFQwtdd1zFk7Wnwv+ryI46gyLXlyjik9fm+15nH0UMEKAdHX6/U/f77/vpXW18U9+80BoIejAO3dH9ICAHg8Ho/na7YeGZhEbiWaVpVrWg6A5U7n7FWLKdOtIVqH/BVeDQbMovWrLL+NrnRz9TqgZJ45092bT6tKvb1eM33mbudJ1wn3YVtTW+/z9p7R+3Lt31bp+bLV986+fzad1Hv80ja0rHA74hXgKwTlZrIVBBhVeau0Qm1N//f/8//b/8f//q8//jPKfnnlt1izX7Z23+qVBxRrPzyaMr0R96qt7wM/v18yr7PzX83fkOt8AHo6CtOqYgsA3JVwLTSS02HZYoClpIOyZkDlbJlavb47xVHbZuuwnK29wH3NFK6tHaw9+/7Vc+LRwGDJ+ipZ/ivh2tKKdCUBnrudJ10n3IdtTW0196nRlWtzAjR73/tW0q6rwc+S82Wte/yUYFWLV3+3CteOevi59bT503cwYHQYIFrA9nN9RN0vr9yXXT1+HD182Ore6OoDi2dWCteefT93WrnzEq4FYGVn1WpHX1cDAPQmXAsNpXZ+1Q7X1qqQkNNRmDPPkdVackO/0Q+Rs7UXuK9e4dpWA3y9BnFz51t6Xqs9ONi6ol6JHq8ajX7edZ1wDyoh0kLv48fz+Xy8Xq8u1ws1Ajup58WzcFZpO1tVki0N17aqJC9cS6lIVWs/jQ7Y/l//7/9/8++j7pejw7U953/WlhpqhmtHt+no+6XTusJ5A4DVCNgCAPzHX6MbAPxb66pAz+fzj8+ldmS+Xq8//uTMs6X38rSoYDd62QDIU3o+qDXvlp9P/f7776Ofw2YP1r7/f/T1zP0YcGdGLUMoJfOpdU++d554T79XZfurjsJo72B0C3c4nrmO6CPK4P9euJX6WlZVbW2v/7XGdI/+O/V7NV2d9t73a6+70nYAwKxeP38cXkOfhW8BAFby9+gGAGO1rhDQWs78U1+jOXqZALiuVmXR0ZXVcudXa/qt1ay413MgM/p6Bbi7GsHalOnsXWdcfeDz+/tHwdWje9cW56vS+V29x976fmmgN0L4SZ8DNQK2oyvg9tLi+HG1PVfmHeUYVPq9VseuXvfsrUVpBwDU9A7YboVpn79+h3mIDQCgJZVroaPWAyg1pt8iWJtSGWHE4JJOT4D19agsGiEgUaMyU8vlaFVh3rkcgLfewdr3Zz//u3ZAKHd6rc/nue2pdZ4u7UNwncCq7lQB92oV1xpVYEfOO5KVlgUAyLNXyVYFWwDgDlSuhYZ6ViQpmc+Vtl1drhrVZ2pXrQWgjQjH4NpVg0oDPGcVW1tVZoo+AHrUvuhtB2C8Wue/GpXhr56P399vdf47qpSb+v1aQeaa8z36HqzoKGD7Xdn2TmHcUqpKAwCce/388a9A7fu/VbEFAFalci3cVIQBptpt2Ktms9U5HmH5Ae6qxTG4Z2W32sHamlLXQ81t4DwLwAoihaquns9z/z5X6+mn+ryei7T9GEv1LGHaUt+VZlVpndf7/ODcAAD17YVoXYcDAKt6vvQQQVMplfKuhlJqVZtJnWfu/HKCRleW+/u7tcJPkQ+TM7UVuKfawcvcSnA9B9NKg7VHFeRSl6t0ne5Np7QdqdOZ9fw1W5B41vVMHtuZFkbtV7XuUWtXrD2Tei9aez1enU+v7dzquuVM7eujWhy32/oe1FdB69xs17hwZLVjrN8nAFHthWldfwMAq1G5FgJoETJqpfX8IlX1A6C+3sfgXvMrnU/J92qeK0dWmJuNQU2AmCKeV67e46dU3Iu43K0573JGtawyfltwXer5O5ffJwBRqWALANyFcC10ltq5ljKQdqWjbuu7IwbnelWsAeC+Wr7as3R6qd/7Pt+1CHiWrJe965CS9THDYKHrDoCYej/4kHOeq3X98R3WOeoLuMMrzFOW7w7rgTSqZsG9jLhv2zsvz/xgKQCkErAFAO5AuBYayxl425IzkFajbbUr4xjQAiCinuennPNn7rl5xHn26vLk/DsA5IhesT6aWddX63avsn0BaEt4FgD+CdhuhWyfv34L2QIASxCuhUBaDeBsVW3pNVh01snYMiic+ncA3FNqRbmtz5VWnn1P76xd0aQ84HO0/nL+HgAi2TvvX6n8flZ9tkb7en1/1HyuXJ/lTr814SyANloewx27AeBPR1VshWwBgJkJ10IwLQeC9v6ulrNp1azAe7UiMABzGlGprPR8VfNV1dFfKZkbGJ7p/Bx5vQNQR48HQXJeGZ0a6pzpfMp/2G4Ac3OPCADb9gK2j8dDwBYAmJZwLQSUWiFlr0LLlUo3R989q+hXMu/UeRzNN2c9ATC/UQHblIdDjj4z2yuRU9uQ88DLbOfjo6qCMy0HAOdaVUB9PMpDOEfVWY/aV+uhVvqxna4zWM8ev697KNnOW4Ugjh6GyT2vtrpntE8DEJmALQCwGuFaCC53IK3nqxz32iFsAkBrIwK2n7YG1Y4GuEoefLny71c5lwNAPT3PqzkVcrc+I7DTh2ut9o4G9ZnXXhjy6M/n92YyY5t7urp+Uh6aPfvckZ5viwOAaF4/f+xejwvYAgCzeb7cmUNz351wd/7Z9ajkd9VM22umtgL3NPtxqsZg5pVlPqqcynURBkpbmv33RxrbmRZG7Ve58511/6/d7tTz2d58Zl2Ps7Pe69kaoBeuzRNtf2wZKh29bN+uHsPvqPZ5r7YW2yrabxQAcrheBwBmpnIt0FXLV23WErFNADNaocrO1XPC6/W6VAnOOamdFfZPgLureZ6ctXLr1fbOtryQwkD9dSOODb2Ow6OXbauyLudy19nRNUKr++yofd0AMNrW9bkKtgDALIRrYQAdp/FFDv8CzGCGSuWpcs8Jn5/7Xg+lAdtoD6bMPiA8Y5sB2Fbj/DjreeGs3WfXD2ffn/18zz0YlK9j1D3GiGNMj2Vd/fjZe5laPEiydZ99Fsjd+vdR9+kr7lcArE3AFgCYlXAtdBAhBAMAI61yLjxbjnel2tLvz2Br+WYaNJ6lnQB3tMJ5spfWFWtnP99zD14vO6+rx5PcYGTNeY+adgslbX1/p9ey1jrfpbY3ygOt3yK2CQByCdgCADMSrgUAgAxHg7ijg7WtBzhHDxRfrQCVWrFoT9SBVoCVRKrUHtXeObBWpfvR5/u7st65i9R9vSQ026IdPaa3FxZudU78vJ/Kubfae/CildYPkrTyfd969AcA7mYvYCtkCwBEJVwLAAAXpFa/6dmOFgN1owf+WlTQK3lFNgBcJTjM4+E65CpVa+d0to9fCZOOPLbWvic5mk+rwGlJRfPU75Y4epDk6L97uxqYFbIF4I72rtsFbAGAiIRrAQAgU8rAWc/Ke60H40YP9vWa/+jlBGBtn9cONa8TSqbz/vzZ90aHllZn/dYjWFtfi2vjs7dE1Jh+TvXXGsuYWk386vLlPEy5d79aurxR7pO+z11H67RVmx23AaAOAVsAYBbCtQAAkCFKpdpe8xs9kFpr/qOXA4B7a11hvoRgLbMy4N5Gr9/8VtC057xHzqd0/jnnjNLKtHuf2fq71usxZZ7v/+5ZNXevLQBAGQFbAGAGwrUAAJAoSqXavfnXdlaFqbXUgdKUyk3fDIgC0EuPCvMl8zj6nvPkOBGC17NRtXZOqRW0c6W8ZaSVkvuks3a2qq6b0s6a91FXlqPmPpJS8Tdl/ikPqOT8AYC7ErAFAKITrgWSjeyc3mrHHdxlOQFmt+JgWI9B3lJ76zv1GqHVK2EBYEvt64Sr58H3Z1Onv+J1TiTWbx6D7GtpEaztLTcknLPMrYO1ueu/ZHt9nptq9+mWTmurmnzJtEaHZd3DArAKAVsAIDLhWriJq51tETrrvjs6Vw/ZnnU8r7zsANEcVbBZMRBxVrF21Dnoc30frffcawTnVABa6xWwTXE1QESaz8DW2Z+U77I9uK5qLRGMOja2OD6MDr/WeEgk9fulD2aOEqktAFCb63oAICrhWhik58DI1eoAV14vWWs5S17ZNbse1SMAODf7OabnObmmGgOdKcs9+/YF4JqZzwOlFQRpr8V6XrXvI5VgLWdW+320Wp6U6uS9gqsparSv5HzpgRIA6G/r+l71WgBgNOFaWNyIjuXvea5QNXcUHbkAY+W8MnkGVyugnVW0zW1Hznz2pn/l1aR3vsYAoN695sgKoymho6O2zXg900tO5VlVZvsTrO0jwv4coQ0zOTqu596z7f39WcXto/nnnndSj7Fn082Zr3MjAIwjYAsARCNcC52M6pRrMd+e1XF0oP9Dpy5Af7MFa69Umr86ndx5Hs1/S82BUgCo6ShglPLdGufdo4BtyfXMnQOiArIxGUzvZ6Xr6hYVWUdquW1Sp126/nJCtaVVZve++/l3R+14/9tsv4GZ92kA2CNgCwBE8nzN1lsAZLlamSb3+2cdeiXVCbamoeLOv9fN3ZYfiG32Y9Rs55mz4EyvV4qeSa0ydHX/ubK8n/NabT+erf2ksZ1p4S77VetAytn5be9zpXKW5+h8t/WZFYwIILV4OHm17XJmaxBd1dq2op0DUtuT8rkoy1bS1iO1lrXFcbJ1kYbR++cIUfZjAGjNvQAAEIHKtXAzozvbcjpHc4K1ANBSj/PnlUppZw++jD7/v9tR83NHSpc3wnoCGM39VjutzzOlVQHvcP6bJVh75XsrMpge1wxVnj/bGL2tUdQ8/lypApvyvRmrzAIAeVSwBQAiEK4FslypWlvDXSrqpLjjMgOs6vv8Vhqwbf2ay89ppFY+yhnIrlkxOKedBmYB/iF4dE3KefL7MzXOP5/n2r1XYo9oV29bQbqrgbqt9ZL654pW052dYG0MNe5dWsj9fUSpWrun5ZvHzuZberypeaxqeYwFAOYhYAsAjCZcC+xqVTmudqf7nTtU77zsAK30HhyuORCaqlcl3qufj3aeU/EKYC3RzjMlPs9LdzxPtahIKbwVgwHzmFa5d6k9zZRjUcmxqmZQ/+r3Wz9UAACwR8AWABjp+dLrAUv77rRN/cmXVIg9mlduO1pUcVjVUYUigBFmCEnu6d32VvOrdf4vbcvRefz1eiWd52uu99LK97NXzK+1PYnNdqamHueBkVb7fax239xjv5llXdzZ3iC5qrX97J0LZrnPOzuWtAjWXlHrXBtxW9CGbQ/AXW3dK7hPAABaU7kWFlbauVvyvRqDYLkVZ3Qc/kN1CCC6WY5RqwRrRzsL1qaovR6uVGracsfKgMA9lRzvIh8fVzt+r3Dd8CZYy+MhWDubqL+pmaqrXmlP5OUCAOhFBVsAoLW/RzcA6KfGq8S2XAkH9X4dGgBtzRpYEay9pkagtrUrAdtZ92uAWlY7Dq62PGfutLxRrjvIJ1gb152OIb04VlHT8/m0TwFwC6+fP4RpAYDuni933bCskldElYRjUgJCtTriHbIAYpv19YQ9290jWFu6PCOvHXLn29Nee6O189usv0fy2M7UJEDFjO503PscSF4pdCpYG89s1+ujeQsXvbkHAODOtu4f3DsAAK0I18LCcsI7pZ3AqfMoGaTdqhTnkAUQ26zH7b12v/++1nL0qlhbK1x7xdE8Zwurztbet1l/j+Sxnampdrg22v4oPBxftH0mku8B5FUGjw2MxzXD2ykgih7XGJ+/O/cAANyd+wgAoJe/RjcAqO/5fGa9Dqo0MNIiIPR6vf7nT+o8AeCKvXPL59+/z62157PqANjZcs223LO1F6DU9/FutePfasuzGtvnfgyIx7b3m/Rb5c7efQPff3rPGwD4t703YgAAXPH36AYA9b0rvm51tH2Gblu8xrnk80ed8lvVa2tXEQTgvlKCtS3ns5Lc8/Js5/HZ2gtQSsAW5vD89XvqIKpg7RwcM7mzO9zHA8CsXj9/CNMCAF08X3rIYHm5HYHfh4XU7+d+L+fw41V0AHOY7dWEV8+RV+fTcv18zrPWOXdP9O18V7P9HiljOwPcxwqB1L0B8NmWA1jH7CFa1/8A3NkK90gAQGzCtXADpeHYnO/nBGtrB5NqTBuAOmYLeV09R16dT/T1w9xm+z1SxnYGuI+Zg6lHVaVmaD8wv9Yh2tbX4a77AWCbgC0A0JJwLdzE1SqyuWHZliGinI7QFvNz2ATYN9sxs1e4dm9e0dcPc5vt90gZ2xngXs5efRpxEFmwFuilRxVa19sAEMvMDyECAPEJ18IN9RqAbxkiGvm6LodNgH2zhbx6V5QVsKUX+9p9zHbcBaDcWbD2W4TBZMFaoLae/cKurQFgDqrXAgCtCNcC0+sdtHXYBNg3U8grtyp7y/lGXk/MaabfItfY1gD3kBus/TRqUFkFKSDVyEIKj4draABYgYAtANCCcC2wlNYdsREOmQIUQGQzHaNGhlxnWk/MR4D7XhxPAO7hSrj2rcfA8lk7DW7DfY0O0D4erpUBYHUCtgBAbcK1wNJqddpGOFT2fnU5QImZQl6jKtduzTvyemI+9q97sb0B7qNGwPbxaDO4LFTLVRGClynueq01y/Z5PO67jQAAb88AAOoTrgWYwMgAGECO2UJeo46vs60n5mL/uhfbG+BeagVsU50NQqe0x0A232YKahKTa14AYI/qtQBATcK1AEGdDTQ4fAMRzRjyihCwnWE9MY8Zf4eU83YDgPt5/vr9eP380TVo+z0YnTpvg9h8Eqplj2tXAKAmAVsAoBbhWoBgUgYaHLqBqGYN9QmnsZJZf4eUcfwCuK/eVWwfj0dSqNeg9b0J0LLH9SkA0JOALQBQw9+jGwDAP1IHH3REA9T3er0MAgNTcvwC4FPrirZH0zZQfT+1r0Fm6PO683XXDNsHAODI+y0gAACpVK6FG6jR6etQ0Y5QLbASFTNhPL9DALiP77Dr50BxSci25PsGp++jZrDUNSoAAK2pXgsAXCVcC4uJVj3BIebfcreRdQjMRKgPxtq6zvA7BIB17Q0WX61emzINg9Jrat236Nq0refzaR0DAHwQsAUArhCuhUlFC9G2NvOhqmRbzby8wL0J165l9PWG/SePYC0A3NPVIO0VBqXXUuv63zXoGO7HAQC2Hb3xAwDgyF+jGwBsez6fh3/u5mx9RFovV9uk4xuA0aKcV6Oe62fhmgIAeDz+GTg2eMyZ0mvt1+v1rz/0514JACDdyAcUAYC5CNfCTWx1dOf8mUVqCLflnxIzrmsA5jPTwyp7Rp+zAQCiSQ3OCtlyJLVPatY+QwAA7st9EABQ6u/RDQDqa9GxXTpNwZVtBh8A6Mn5eNvnenFuBgBW1aoqkwHq9bgmBgDgLp6/frunAQBOCddCUK/X6zQIM0OHt1DuP2bYVgDMq+V5c+Q5rOf1QORrD9cRAEA0BqEhNvcQAAB/ev380ezBQwBgXX+NbgCw7/s1a3d57dpWuOVsXURbJ1HbBcBans9ns1BohHOY8+k/UrZz5HAwAAAAAEA0wrYAwJnn686j1EBIe+FaAOL7PoY7fufpEZC0Tf5j9UCqbQ0A99FzUFjVWojHvTgAQJqteyf3OADAHpVrgfB0BgPMq2Vl1VW811Hr9XT36q9brBMAYBW9BoMNOgMAADNzTwMA5Ph7dAMAAFjf8/m8RYhxZJD4Duu3lajrrnR/iro8sILk3+X/+t/bf//f//V4PPxOgfp6VK41CA0AAKzo+eu3+x0AYJNwLQAAza0eIhKqpYXX66XyMwSR/Vv87//aD9h+TM8xHLiiR6D2zUAzxOWeAQAgz+vnj673UwDAvJ4vIzlAMN8dwg5TAPNIHdSb5dg+YpBylnUDsJJ/Daj8nwqzrTnmAyV6DwIL1kJs+lIBAPJt3Ve59wEAvqlcCwBAd9Er9vUO1UZdDwCrez6fhxVmu8z/4TwApFFZCQAAoA7VawGAFMK1AAAMs+LrKwWkAPrreT65cpxf8bwHtJUz2NticFjlJgAA4C6ev367BwIA/iBcCwBANa/X64/g0Pd/r0yoFqCvGauM3+m8CFyTGpJtOfBrUBkAAFjZ1gOKArYAwKfnSwoACOZ7sNlhCmA9MwWLnIeAGcx0XI2u5XF/azs5zwCfroZqa1WuNZgM89CXCgBQbu8eyj0RAPB4qFwLAMAAM1TuMyAJRBf9ODqLkcd75xrg8cgLxPYY4DWIDAAA3MVW9VoAgDfhWgAAhhAogjUIeBKF8wowm6tVagEAALhuK2D7/PXbvRgAIFwLAABAPqFaIpgtUDtD5XagPaFaAACAWFSwBQC2CNcCAADwLwKA85ktaHpXthPcT+4A7chQrUAvAAAAAMA/ni+jOkAw30EOhykAgL4Ea+fhWhkY5TMwKpD5byMDtaX2K9gXAAAgAElEQVTVlmxHmJO+VACAer7vp9wnAcC9qVwLhCLIAQAwxpXrMAP4APfz+crM56/fBhz/j5mq1H6K0g4AAAAAgCiEa4HQBDUAANorDda6VgO4N4HM/5g1VPt4xGoLAABAJB4mBYB7E64FAAC4saNgrfAsAFu2gqR3HGzMCdRGXT9R2wUAADDC51taAACEawEAAG5KsBaAXHuDjHt/v2J4M3WgNfqyR28fAABABKrXAsB9CdcCAADc0F6wVqgWgD0l1Xu+vzPzgOQqoVoAAAD2qV4LALw9X0ZOgUC+Qx4OUQAAbQjXAlCi1QBjxEBq7rJGWYazdkdpJ1CH/lQAgPq27qvcSwHA/ahcCwAAsKD3IHvq4LpBeABStKrgc2Wa7zbVGOicNVALAABAParXAgCPh8q1QDAqLQAAXLdVlXbruurzc667AMjxPci4FzIdMRiZE3gtbV/kUO3eMkVuM1BOfyoAQBuq1wIAwrVAKDqDAQCu2QrWPh6uqwCoq3SQsWfY9qg9K4Zq3wwAw73oTwUAaCf1wVIAYE3CtUAoOoMBAK4RrgWglxlekbk18JnT7tkGTlWthfvRnwoA0I6HFwHg3v4e3QAAAADaMbgOwJ2VBIBXGyhdbXkAAAB6ef38McWDpQBAG8K1AAAAi9irWgsA7FslfKqiEgAAAABAPX+NbgAAAADXbQVrVa0FgGOrhE9VUgIAqOf5fP7PH4Dv+0b3XwBwH8K1AAAAkxOsBWCEmYOpr58/pm7/p72B3VWWDwCgp+8+FgFbAAC4r79HNwAAAIByBnkAmMXr54/NIOje39ee953cbXkBACL67LPxEDSs5fnrt/suALiB58uVPBDIdzjEIQoA4NheuNZ1FNyLQVtGqRGK/RyQrBmyvdNA5+d6u9NyA/pTAWqr9XYgx2dYz/f9qnsvAFifyrUAAAALMVgD96OCNbNrUbX2boOcd1teAIBWXq+XeywAAODxeDwef41uAAAAAAAAANcJhAEAAADUIVwLAAAAi3s+n4IWwG2o4grciTdXAAAAALQhXAsAAAAL+wzVCtkCAABAf+7FYT3PX79HNwEAaEy4FgAAgOGEPtuwToGWIg4kqloLAEAEKovDetxvAsD9/D26AQBAX7khG52AALT2XVn18XD+qUGwFqitZZj29fPH5vT3/n5vGgAAANDL89dv96IAsDDhWgBYRKsAjTAuADUJfPZhPd/b8/l0TUaxUdVor8zXQCYAAAA95DwACgDMT7gWACYyQ1DmrI2CHgD3lXMeU8G23AzXC9T1er3+td0FbMkx88CgYC0AAAAjqV4LAOt6voy0AIF8Dwg7RHFHdwzE+K0DlIt6/VTrfBZleWaRst5HrNOo++lqrGdSzRym/WTwEuAfW9eArgMAytW6t3KPBuv6vq92fwoAa1K5FgA6iBaYzenE69H2z3noYASYX7TzHv8RIVj7+XfO+1DX5+Beq1dVfg8YjgjqGrQE+NNWFXsAxnJcBgCA+QnXAsAF0TrIWgRUcqd5dZ3sfV/4BiCmkuP+5zHdcX8t0a6NYEWpYdYrodfI4dXIbQMAgD36OQAAYD7CtQBMrVUgJ3IwJHon3Fn7Stet8BVAPFeDte//jnzeJd2o7di6Ar4K+4zSuyKs0CoAAJwb+SYW96cAANCXcC0A0zoKcMwe0lm5Y2xr2a5sryjbeuVtBrAl5fibemx0DJ1f6v5Q+7zd+jogynUG6+kdnN3SKkz7+vmj2fIJAAPE1+v6yT0ExLZaCHTr2FYSsq1ZQOL5fC6xbmEVz1+/3bMCwIKEawGY0oxBBx1d+97rZsbt+pbTdvsCMLuawVrmF21/qDWIO/N1CeOsHJodacVlAqit5RshIl4X1XiLBtDG9++zRwg0J7Q66iHNlGIhI9oLlGn5YCkAEIdwLQDTidaZpGO+nqN1GW27X3G2LPYpILKaVVaY19G5bOS+UOt6YaXrDvbNPAg2W9j0yqDjbMsKMFKN6okrW62SJowW5TeVczyL/vaTz5BtyrRUrwUAgLaEawGYzlbH0mcHUq0OMp1SsextjxUHg0peKQbQw4rHXPKVBmtb7D8tKrTlTi/KgPJqZg6+1rRKsLRke66y7AAjuX7fp+8FrulxfEkJjq4UrE2ZVssq5UC+7wdJn79+u5cFgMUI1wIwHVU/+RRle7fo1DTQA0SydZyb8fiUeryecdmO1FqemhVra7Wp5kNWuctnUPM/hGHzrTzgdvX1mCuvG6CPVc/Rs1yP9LiWrvnGgtWu/aG1kt9f7ltw3p8/e5ixV9h0777z/fe5bRCSBQCAOQjXAjAdHU9E5NWLwB3NNhBdUtFmpuVrLWKw9vGoG6zYM0uQpZRgbF2CodtSA7fWH3BkpfNviZHLH+26OLc9R+tutvuab96kQC+9igvszWfvPv3qA5e593vv8YnP76WMWdRuNxCT6rUAsBbhWgCAznq/MhugpdzqM6OsenzttVw1KhdvDUBedbb8qfPLXY/h96f/9b8fj8e/B3SEaP/NgFd9VwYSbQ/gLfy5dhHRrtlbmj3ElhqgnT0oTFypDyOW/r5y9t3W+3nKMuxV0c2dztH0vr/vtw0xXX1zCwAQm3AtAEAgKjMDUeUenyJVfl31uDpj5bLWwdqt/fRs4HXV/eNt5gEeQcs51BpItL2B1c/JI0S4Fo9otr6XmdrKv60QeB75UOfRZ3PCrFeWYfbtBwAAlBOuBQAIxIAJENlsg9CPR35l3avL1ytUPNt2qC3lFZ1Xp0M+4UhK2Xfgvlqei4WhuKuWb4vwu8rzXnc594nRwrg1j9MllV3f3ylpx5XvAgAAPB7CtQAAAGQoqWA7amCw9wDa5/xahmxHLlfu51dY/mjzb0W4kdb2qtva9+A+ap1DI4XOmNeMDw7uabksq6yjEbbWXepbNaK8CebKveDb0TLk7Lsr/WYBAIB5CNcCAASR2wENMErKYODe3/U6ruVWrD2bztn3Rr8ms1VFntxz0978r7brbPlStk/Ktt+bT05FpRD++78ej//1vzf/SZCRXl4/f/wrUPv9d/ZHuIfS64BQ51aWVHpvUPLdmno9wCjI+I+S7V6y7qKt7717wWjtPDNbewEAgFiEawEAgjKQCMzobLCtRwWeFoNnR+0eHaztOb+S7Vaj3bnT2NoPv0MIR9PMHTQOec7+7/+K2S74PwRrYW0CtaxmZEBvxkDjKvYeuqt9rJpl+561s/a+2uKcMMvvqdWDq0Afz1+/3fMCwCL+Gt0AAAAA1jK6itOW1+vVpF1nA1vP57NpuLTnco0K1h45Wv7cCrvfn0+tdCsEBPkMMsK6Sq593udT51To6/17PXv7yF2lPDSa+2+z6PV2rZrravX9uOS+F+jHPS4ArEvlWgBuq9cr1CDFSp29AI/HfwZ4Zjq+5bY15/OzVux9W+maKWegeJaqRjATg44wvyvnxpWuKWCkq/2arnHjOHqQMpLZ9pmte7lo6zTXbNsAAABWoHItALfzWZGhVjU5qG32zl6At70qZL3Ov6lV0GoFa8/mV2u5v+czw/XMZ1W6lO1y9rlelXRV04N8z1+/RzcBqOCzquVRhcsUzqWspvf1t9/PcaXdFvPq8b2I93FRq9ausG5rc1wAAID2hGsBuJW9TrU7dLYBwEgjA7ZnWgzS1QzY9l5PLarR1fr71H8HxvsO2KpYC3Opcf3hARVWstJ+HOU+7C2lPaPbXPrAZul+E2l/O3ubR6u21r4njLROS4z+DQAAwF0J1wJwG2cdUDqoGMW+B9xFxMGslhVrjwIlqRWXelUNqjm/KxVqewdwBH6gjqPg7OvnD8FamMzVe1TnV+DtrPJ1ytvFZnrY8JPj4L7oD5zOwP4F8XmjCwCsQbgWgFtI7YDTUUcEOkcBykQ+j+8d23Nfa9q7AnCr13/2ep2rcyr0I0QL60g5f249HCNUC3Nqec1/9ploSh82LFmWowc3RzkKQLfUugptlCq3gtuwNvfDALCmv0c3AABaO+sUza0ap/MKAOLJHQRNOf+fvf7ybB4503v/fe51RsQB6SMj2puyHVf1fD5du9KdAUVYg/MH8C31uJB67T3Ddfp7mXPbGSUgG+1YXjOEnKp0HdRYd1v7eOo92t7vI9o2BQCA1QnXAnA7VzughBQAIL4awdoWzgaQP0O2M1Z66iU3jNxq4L40FN3KDAEFAOYUOaxFLPaVMaJcB+a0IUJ7o6nRb91SyX5W+sBqjcq+EY5B3+tstvYDAMDdCdcCsDSdtERnHwVm9X38ij7o0+J4W6MCzlkl2z0lA5ol7Y3+UFFO+yIvR0vRtyEA83FuYc/d+jh6/hZGPiCYKvXtYHvt3Pr7nvtUzrxy34q2ghYB7pr7bJSA+ZZ320b/RgEAgHx/jW4AAPSkA4vo7KPADLYGrJ7PZ9iBrEjB2hrTKV2e0gH5CNv1aiXi1u2ItP+7lgCAtb2vO6JcexyZoY05Rl5n1Zp3agC21fxn8l7m3P145nWVE3yuPa+UeZx95vV6/fGndDotzLxfAADAnQnXArCs1I5PHVsAkC6lourRn9zPp/45mm6Os0G4FnLmV1pNKcdewHZ0kCPKNVuUdgAA9xM9rBr1Qa1VpAYHc6dZQ8mbNSLp3Z5oy//pez/L3UeuhGR7BmJr/5YAtjx//R7dBADgIuFaAG7jrHNOZxoAHIs8ADi7FgOFLb9fErKtsf9EuVaboYItAMAIUa7XmEu0/Sa1PSXX/kffiX4vkRqg3wropva/l3wHIIrXzx+jmwAAVPb36AYAwKfvzjgdZ6wseoc5wKe9Y1bpqzKjSb3maHlt8jntkvXZIqCbUqm4tyjXh0frxxsUAICIRvW7PZ9P1z2T2AtK5n6ntV77VMmbUFb3fR90h2UGAADuS+VaAIZKfaUzdViXsemMBma26jFsluXKqayUcz0wy/KPcnX9uNYFAFJduWbQ78aez+0fbV/o1Z7S+bRq31l/+dF3ennfB7lfBAAAVqdyLSxqREcKHLm6T+ZWI4jWGRzBe528/9dvF4Arts4jKeeWVtWyWlZ6jXrO7NWu1Fd/XpnezFIq/AIAjJJynVK7Cqjro7hsm3M9386SMq+o22u1+zoAAIAtwrUQWNROk28G1nlrvc9e6ehfZV8rDcbOcjwBgFK5g8SzXxvkBINbXAeUTnf29b5HSAEASNXrdfbveeV8dtVrtZZWWG+1r2O/10fLCq8j1v3etX9uWz4/3+J+Yvb9EgAAIALhWujIYOu/na2TFTonV9R6X+5ZHWCUkqp9W69pK6kQCACrWvm68cqytQzY8h9H62Nv/VuHAPAf0d6083n+rv22hR7LenT9t9f31rIvdpV+Xg9V/Smlf7/FdFvLrSR7tG9v7TNHb4Kpsewr/NYAAAAiEK6FikZ3+KxKZdxxeu3Te9spcmf154BA7mBLyTLtfWeVgYk7irpvA7Tk2Jcu8nUQ+WxPADhW+kBxK1uh08fjWpt6XQukhGp7cP0TV8ttU7qP7fW1fk+3xz41+sHE0sq/+ogBAADqE66FTDN1CNbsTBndoVVqtVfV1hxcGLHdIq/bM3udzrmDLSnr/Tswe2VbrfbatZVZn8BqUs5Bjn3HrJ+12J4AsK1l38Vb6nm4d39Z7f6V3LeEpYYsW1TxZaxWfftn+/T730oDviP2v7O2tm6T3xwAAMA4S4RrVbWkpdHB0Rn20RkqNuTIaVPP7bNVwSOingMCo+W2L2ewImfae53WrQenIlSSAWCco/OAYG08KocBABGdvXr9ShXMHt/JceV6LOU19HufKem/Onro2wPXa7nap7i1j9UuFNAjvOpeCQAAgC3Th2uv3vCOetp05I16pI6vCB1xvbfF6OWtpdZypEwncsdWryBuxHUwqkrArFIqh/TUc3AKgL56X2PPUm0I6x0AmE+va9te/R2zhfhmaivj1NqvRwRrP+dzNP+zfwcAAGBNU4drW3fsXLlRjtzpFKWKVG51xlmCiTpT6ptl25+J1JYc9unram771Fe2tdjfZt2HAVa3Vymo9jm81oCpawsAAB6PepVWU6bLvtkCvxFFKCIyWsp+9L2Ozr7Te52eze/u2xgAAOCOpg7XjnCXTqYry9mqEmmkda8TZR4l2yrSvtZa9H05evuOlHaqlw5ojOrEn3kbAayk14D40ethzz4PAMCcelZ13Zv/laIXZ99tFfIdrfWb+e58rb/C/pEjdXuXrJe7rUsAAADmMm24tsbrV9ywt7Hier1zR+Ed5WzvSPu7/XSsvY7g3H0ktVpD745nrz0D4Fu0KkMAAPTR+jqvZp9HzWBtpOvbnm+e436u/AZrFBuI9FsDAADg3qYN19ZwdIPeu+pTTzrF/k1nDaV6BnHtp/3kduZG2zYp+9rVqi9c871Oo+1DAKkcvwAAiEL/BbTTulrxO2DrHhMAAIBIlgnX1r7h3ppeSedcxI6Akqf1W0tZT4KJzM4+OIeax8BRgzqp1SWudFjbnwEAAIBeSvowZqlae7ZstfuXagUYBSHXtvVb6BGwBQAAgEimDNeODCvdwdXlbLV97rL+I1L1Aeb7HWx1gJe80i36axABAACA9eQG+1L7O44+1ytYW9I/E2F+vds9G2FjAAAAWM+U4dpvOixisT3WZxszo5QO7hEVylMHJkrmE/VhCQAAAIAzV8KcJW+m84Dxf+SEla8Gnmd1h7DxHZYRAAAAjvw1ugG53MgDkCJ38GPEAMp7+hEHavbOt1fa+nw+/+cPAAD9uP4CgHw5fSCt+jyinMOP+rBS2xix/4tzthsAAAB3Nl249psbewBS7XX216qCknpOer1em9/d+vuc+ZfIWfarwVoAgCs8qJNOXwkA0ZWezyNeB9RoU8vlqj3tKwHb1a26Hkr6LQEAAGAFf49uAAC0svXqspHVNCJMM+V1brWr+K46sFDK+gCAfM6f1x29thkARts7R416LX3qOfPKA9sl/TM11LgeuNLntpJR+ycQ3+exIcp9WMQ2AQBAdNNXrgXgflp2Wu9VYSjtbKpR2aFnR1fNdauyXBodmQBAC64xAJjZyIr1rYO1KdPrXQ33aJmPgs81pg+wmoh94h6IAACAMirXAjC9swGAWtVqUwYCZq5YcdTu97+drYOUZTegAgAAAHybqT9lr625gdOaYacRfVIz94MB5JrxbSA1zlcjzLiuAQBYk3AtAMtL6eiv2VEzY6dP6kDI1QGTGdcNAOTyqsW6Sq8/bAcAuK5XcDJnPqWBm7P+oSsVa6+88Wj2cGqt9QoQ2fs4l1qEYuv7vY+HMwdrP/83ensBAFibcC0AtzBTB0zvgZW9QaHabZhpGwBAqdnDEdHUCNa21PMBLgCIIMq57SyktPfvn3+Xe70wKqTUq59oaz6pyxZlv4hAtUVYz9Vj8Iiw6OzBWgAAiEK4FgACatnJlVpR5P2/V19JCACwopRrJJV2AODfWgRnagRQ90KRrauylrQ9NcCZO13XLPlWqD4MI60WSI9wPBCsBQCAeoRrAYD/UaOqS/ROOgBYWWm1sZlEWCaDfgBQprRfoVcgN2c+Na9JzqaVGuAU9IRtn7+LCPcT/GNERddce299i6p1sPbKtir97moBbAAA5iJcCwA8Ho+0Ti2dWACQZ/RrHyMPUp6ZbRATADi3F/6sFS791DKME+GapGT5IrQbehM4j2nv/rXnceosdL3KvpOzTo+2wef6yO1rOPvuKusaAID1/DW6AQAAALC65/PZdLBo9EBU7eUbvTzfUpfv9Xolv6K5ZBnf32u9PwFAS5ECryXh1OgB1ejtA4hwL1NaufzoGDv6rW9XH1D9rCR8pbJ7SrsAAGAWKtcCwM2oAgfAKiK+2vOsqlqLSrKjB6quVK+Zwd7yla730vW1WmViAOghpQpi6nl9pvPtTG2FlmrdK7nurmf0/Wuq3D70veV6f6d3Vd7veX/+95aUfoxWZtknAAC4J+FaAAAAwjsbbKk1UPU9n9IKaCntvTqfren0tjf/1O0RZZB6b3scrd/S11OXGL2dASCinOuNlIAtwJbVHya8q6P7uVrB2tTvt7JXffa7LS2DtSXfv/IwKwAA1PbX6AYAAP3olBrL+gco02ugaq8yaOlgUO68ewU1e8kJGH8uf+/lqrndc+cDAPyj9Hqv1gNLUJPrvhhqvL0rJ3xJvojH7Fnf+lbzQc7X6yXgCgAA/8f04VoX9gCQxjkznhk6ZgFGeYcbRwZrr3oPSF1p3946SG1v7vxbhEr35pPz94/Hte18dT1e5ToMAP5Uel5P+d6q99qrLtcKbJs1uYZv4/17ifi7mTVYW6r18qb8hvzOAACIbrpw7co3MQAAAOQNrkQN1n4raWfvyq5780v5/NFnarQ3NyCc0p5Ir+48Wk8GGwEg36rjCJ8Pb626jNBKrXsKroty/DprR2o7jz438uHVTynnjs9/6xE0vluYGQCAOf09ugEAcNXz+dTpckKH8Hi2AcCxUUHHvfm2mFeNwdycirU5cs9Te4Ngo893qfPPDXCPWq6o6xkARko9F+orYiT9leXev++rb66o+V3X4Gk+19Hd9v+jfWTk8WDUfEt+L3fbZwAAmMN0lWsBIFonS6/XJ5eK3LY7i7YfA4wULVgbQc/zRK1g7ef/1pzfikrXk+sHAPiH6q1EY1+87ruPtWaf65XtI1ibZqV11OL80nv91F6Gq9NyjAQAYFYq1wJAoe8OsRpVFWob0al55woFAOQ7Ole1PI/0rFhbqkdVthrB2m9nFXsieq/DHu37DCLnrKdI+yYAANRU8zq8dtXaqPcwkcy8jrbuy1pVmu1VwbbVPEZuZ9XAAQAYReVa4NDMnSLQ0qy/ja0OqJqdUrOuFwDGiBasjehsPYx6VeoM84uodHt9fs96BGAVQjLA49H++vboWPOujpvbhlbBy9L2jDRTW7fM3v6IaqxT1wgAAESxROVaT6tBP35roMNtj/UCQI5RlTlnqFj7bauSztX29n69as78Wrx2da8ybeTtvsX1FgCrme1cDHdWeyxu9LXt3lvJzrQK1s6oRbt7jvn2CHaPfLNc7nrMXfdbny3t60n5jDwAAAAjTFm51oUzAKPM1NHZ8zVmM60XAGJa8T4vatWhHu25UqG1ZftaVgIGAIAZbN2jnN27vP++5P5mb34tjKyCWyra/WINqUHJo/1t9Hop2c9nkxqOTXX23b39Iud3NeN6BgBgbktUrgWAHlbsuKnRITxjBUAAeGt1vop63XB23q7Z7pKgbI+KxjMGbF1vAQBwVWnAtVbYLiV41+oNFlGm8610eUvfyPH5vdQAbO48ZrlHmTGIXdve/XftfoGj/z77btS+FQAA7mPKyrUA0NvI14JFJugBQImSwZHPSkoGV8YoWe9XrwlcUwAAMKtI9y0tK8Xu3aPlzLNGRcsoWt+z1grktprPrFpUcZ1tHUb8vUVsEwAA96JyLQBUUtLRU1plIMXZk91X5yVYC0CJ1Mqksw1CzaqkwlHud1OqzbSonDujGgEEAADGiFhlsWUl2KNpl1zXRlt3JbYq9e5dt5c+dHr277PcJ4z8vRz1a29VeI6+TkvX5d739tbDKNHXPwAAa1O5FgAqqBGsbaF31QcdXQDk+h6cnbG6S2u11seVisHfop7zo7artrssJwAA5Wq9eeL9dy2uQVe6rs1Z362Cte//vXoP2estbiO2/9n97d7DvzXuy1sub+m0X6/X//zpMT/S6B8DAIhD5VoAONEiUNKzU6RFR5dOHQBqU7FzW63rkJkCsp/Oqj1tibhctdoUcdkAANg3quplyhunat+DvZe1Vsg0d72t3F+ZGqwt/Xf+VLuqbq9jQLT7xWjtmYXfKwBALMK1AHAgYrB2dDhG5w4AtfWqitNLy3Nl62Bti1dz5g7ab32+JGTbWq3KRa6tAADWEfn6rjRYezS9lFfHl6yTo7am3hP0undosb1rb6scNfqur6z73vd8re6NI927ljha/p79CQAAMJpwLQDsGBGsPet83Pt+r8BJzWoSd6JTEWDf2TFytvNLtGN+yfVMySBazvzPpjnDgFzN68S9147WmDYAAPdzdq064o1aNSvatpYaGi5Vez3UvH8qmc4M9297Uu6Nc6Y163rYU3If6t4VAIDV/DW6AQAwi14Va5/P52HFthrzKPn+ap2DI+lkBKCHKwHQ0a+tjHauzB10jdZ+AFjNu+8kYl9F1HZxD0f3ACvvm7WW6zMMXHN6Jd+p1c+b0yddS+T9rPY2/p72+w/UFPm6hz89f/0e3QQAoLJlKtdefc0IAHwa+Trkq98vrWL73eE68vVjANzbSvd2o5alRmXV1m2vWSWoh9xKRNHaDwArOHoYOcK597N9kdrFvdXo1/ucxsh9uufDgqWVSGvM++hNIjlVdWsWUmjxlrdRZm0392RsZm6vnz9GNwEAuGjayrVufAD41PrJ+ivnnVbB2ppPwu8NTnkaGoCaUl9p2dOK57oZBj2jtSfVyLD0avspAOSKfC4sPVc7xzNS6rVt6T5a89p5VDXQmvNM+b0fBXp7Ln/uvlF7PcFd2f8BAOJZpnItAPdSWjmgdF6jpIZj9qoWpLQ9dz3WejUZAPeSMog40uxvQzlav5GWK1JbSkW6NlxhfQLAmej9D6XtU+WWka4WEij5/qxvgjhrR04l2Stq3LPmbIOUzx61Z/Z7bChV85zecxwMAIBt01auBYAWandUXJleaeh11Dx08gAwg9bnshGDh5GDtaPnP6ucSlGuwQBYWfTzXMnbho7O39GXlzI9t+vZdWRJBdjSIG3O/D9/MzWq1EZa572nd7Tuz6b/ve7PPluDe0ZW8X1+d78OALAGlWsB4EC0zr3c9hw9JX01WOupaQBq6X2+bX0Oa7k8K1Z6YlvOfppaGUf1KABmEuHV6CU8mMzoPrPav5EWy9Ljd9zz2rekKu/RWyn23hyWWkk2JWSd09bWRv9m4Kqj/dd9+H08f/0e3euAhMsAACAASURBVAQAoAGVawEgiBqdnnufeT8l/fmnZtsA4ExJyKD0vHW1PZGUtnOW5eNYyYNVn7+XGg9YAcAIMwRrt9ooWAv9RTlepPbdtgq2jj4+1qi4W6NqMfTm/M6e188fo5sAAFSgci0ABPBZVSB3cGbrszp0AEitZNnTZ1tyK/C0MMs5M6edkbY3dVwN6cyynwPAW5SgXC7BWu4g5c1WEX6rJW2o0e4Wyx51HW+J2i5oIefcnlK9dmt6rh8AAMZTuRYADlzpvCgNwZz9d8k0r8iZls4egHhaVX69KsqgW5R2nJmlnfRlvwBgNbMEa3MDNd/2qjNGW054PP4sCrD37yOrjs74to+r9+gR7/HhTo5+gyXHQr9pAIC4VK4FgBMpTxV/fz7F0TRrV0oo7Zw5a4dKaABcEeU8MkuIYZZ20lfJfjFL5SsAeDz6nKc+z401H3I+ejtRhOtgSBX9enHGgO0nfbAwjx4PAvnNAwDEoXItAHzIGQz5/veUyoCjqjiUzLe0jTp9AMZIeb1cxGN0lMFMuLOoxwcA7uUoiNp7vlc+n9JHNGpZ4ZPrP4B8rSvPH1ULd60AANCfyrUA8GXvqeArHc6zdXrkhnC/101utV8A6kipWh7xGF2j2jrwb35PAMxi5rBp7rXszMvK2uyHAGlqHy/fYyzf03Vcnsfz1+8//vv188eglgAAtalcCwAbanVajKhSe1XN1x8CMM7RsTly4M45BeqI/DsHgDNXrwmdB7mz1DdsAdBGyfFXfxgAQEwq1wKwjHeHRc1g7Od0S74b0V5l3tptjlgZcQQDGcBIs1aEdf6AMrm/c781AKIq7eP5PBfW7if6nn4tqQ/FOW+TInUfnen+EGAmjq8AAGsRrgVgWnsh0RbzeTzOO0VmGuRo0dat7SFg+2/WBxBFi7ABMI4BPABWlBMuHXEuvHItnbs8+liopcdD9wD8h2MsAMC8hGsBIJEOkDIGfwAA2kgJEbkOA2AGKQ9Qf//7rOe4lHYLP1KL68U1eJCOFKqdx/B9TWNbAADM7a/RDQAA1rHXUaQDGGA8nfmwFkEJAFbzer2yzl3P5/N//tR0ZXpn7ResBWpwTOCb/vdY3tc0fqv38Pz1+4//fv38MaglAEALwrVAFjfoRPPdOaGzYry9TiPHD4DxnCdhbqkhIoN4AMysJJDyfmtOhPPfVhtS2tYiKMz95P4GIvxmAHpzvgUAIJVwLXBI5xoz8BRwTAK2AAD1uI4C4I5y+nwih1P32pXy4Iz+rjX03DdT9xn71hyiHteIwz6S572+Il83AAAQx9+jGwAArOv1ev2rg+rzv3XiA3A3Bm76mPUao3T/mHV5ASDH9/mu5XXVuxJurc+9P5vLOX5eW31ivefPmmxbKLd1XM45lwMAcD/CtQBAU0eDCe+/13kFMI5jcTuCtOPM+DCP/QUA8rzP8VfOoa3Ov1eDlbNcvwB17IX73CNwF/qmAACISrgWAGjubFBpxgAMAGsxaLmu1batayUA+NNZyHZURbqSgK3zPNxDaQDfMYIVff4WhGyZzfPX79FNAAAaE64FALpIrSijAw2grb1BvLsef1cLXrK2u/0+AWCkGqHclACd8zvweLg3pVxpWHvUwyffbdj7+9pt8xujh9fPH6ObAABUJlwLAJlUFbimxmsbAbjm6mtqI5ppeVwXtDfT/vDN/gEAfZT276hGC9SQezxxLKGm97438kHrGvftqW/EO5qX3xYAAEeEawFgR81QRum0Vu7Y+Vy2mQMwALNapYJt9HPILOtxNbM+zGN/AYA2UirgbV0fb10bO18DvTnu9JMa1pzZXl9Qz+WtHawt/dyq2xgAgHqEa4FsEV4VAyVmC1c8HtttXvH3t+IyAczgqFLOjOfNq5yP1mObAgBb7nitC8STUr3WPU0fKzx8nOroYevvf8utBttrXY0M1t4hgA0AwH8I1wKnVnxtMPez0j7s9YMA1ORaz7kSACCK0sBKyvVsSsDGtTHQm/vR8aIe91uGe7fe9pJzDjx7UHvvrXWzVcc9m6ZiRPf2/PV7dBMAgA6EawFYXotOlNwOk5EddHvz1ukDwNsqIQLnNgCAtlqGSEquR8/6PEqmucq1MfEIYUE8UY/3n+06C9leWYb3Oe9o2t//dmV+rdZ3zTbuuctbBin3+vljdBMAgAaEawFY3pVBkVqdIzVeMVRbyrR1DgHcx8whAucrAIA2ol4j1mzT1rVk1OVmLvYjRhHkThP193lUFTZlu+Zu+8/Pnx23cirbXtkHj7571oa9EGzt7e03BgBwD8K1ANzCrB0dW+3u2ekngAtwL47pAABEUeNB6bMwzdH1r2tjYEbvY95ZtdO7O6p8HvEtdDWmc3VfiLrOPuUstxA6Vzx//R7dBACgE+FaAJhMbodP646t1OnfsaMqSqciAAAA3MFeFVqAO9AXmaZVSPTzu2fnnq3PtgzWfv59yXnxLLRaM2B7pWrt0bQihYBZz+vnj9FNAAAaEa4FiniiE+Zx9GR2T6rgrr98AAAAUKo09OJeG0Cw9qraVV2PxtC2ttVeePUsKNvD1XnlnN+vbIeSdqaOdfp9AQDcl3AtkMQTnbCeiJ1G3/MzQAYAAACxtHzovlcAB0ZRtOI/9APOLadKayS5FVh79KGftan2/GrI3eYp5/ecar+p80xpR8lxeaZ9nvqev36PbgIA0JFwLQCwa3QA92qHGwAAAHBN74fu3euzEkUr/nS0Lq68sv7u9tZrq3W5FU5sOb+W9gKYqVrs07WCtaXb4+y4VXu6NcYgctdL6j6cM98Z93/qeP38MboJAEBDwrUAwCWpnUYtBhKEbwEAAAAgjs+QmmDxes7CpJH7Y2vvjy3277P1V6MC7OMRZ1u1Ku5Ruh5z5rVSyBwAgH3CtQBAFyOq4HpyHAAAAOqLEsqBGa34+7kaUmMOrbbpqD7cK/M6qhZcup5S25NbXfXb+/MlYdDcqr4t1nEtJdtqtWM3+Z6/fv/x36rWAsD6lgrXrtghAQB38nkeb11JwDUDAAAApFGBEsrtvYJ81r6plseCWdfJSEchz7PPH63v78/1CNa+/3u1/aDmMkUPrF6V0r6z/TE3LJy6Tr6n69oIAOAepg7XumgFgHW1rnTbOmzrGgUAAACAx2OdgG2N/q73MnsQ/lxucDZ3enuVS/c+V9vWdGfeD95tj1wRtWVl3dJpl4Zba0kp+LE375n3V/J9V60FAO5h6nAtMNZqHR/AfM6OOTmdea1fP+b4CAAAADCvKwHDoyqis/QZXQ1YHi3nLOugp6P1vReKbTGvHFfbM8N+UDvwfPW70eQGbGsHa++wDxLH6+eP0U0AADoQrgX+pWYlyD1uUIEeUp4631K7gxoAAABWM1MoEHLVrtS5whuOUl7F/j4u5LzaPeXh+bsda1oFmSO9ETRKO3KktjklGJ0qyjbL+Q3W/L3OsC8DALA24VpgyA2oEC7Q29nrzbbcsfMeAAAAUrlvZgUCWulSXgv//t/UgO2R9zTu9CD81aqfqdvobD6pn0uZ57fZ3oqY2o9cImW5R6yb0eHVqOuF+3r++v3Hf6taCwD3IVwLNzVLh2HJU7wAKVLDtnfqvAcAAIA9o4M2UIN9eB5Xt9Xn93P69Ub2BZ6FTmvuvzkh25ph2Ei/wbMHRGq19XMeEc6ltcLvteet/x0AgIiEa+FGWt2wt+rcKTGqQwCY31mHsmo8AAAA3F2EUBCkarGvrhAoHCWnb620eute/17qvD+/1ztk26qa61nIOKdCba12bLVhVN9ryXJfreoboY95ZBsiLD/k+K5aCwDci3At3MCVzoHcabXoHKut9Il14B6OBgpVsQUAAODu3BMTXYtqk7WmdaeQbWkYvzRYe/b9XlVKS6QEa2usy9IA69a2rBWW/px2677XGg+I5FShHXW+VCQC2nr9/DG6CQBAR8K1sKjcDoLeN9pRQriCcsCWs4rcjh0AAAAAY9XsO+7Vx6Mv6djZNm0VkI0erO09/y17AdtSowLnpQHbvW3iNw0AAGsTroVF1OwMOPtOz86O3Dbe6cl/oI+zSrY6UAEAAAD6qNH/qy8nplF9+9HGFLb2z5ptvBqIXeE3mLMco9uaove4HdzJ89fv0U0AAAYTroUF5Nw01+gIiNyZkNI2nQxArqNKCltVbB1nAAAAAMrV6luJ3Jd9R6MfVB89/1RXqsnmTiPXlSBnyrpXRbrMassDUb1+/hjdBACgM+FamFRu54Ub6/+wLoBSpR3WjjsAAAAA/9YyAMh4qUHMrc9crcZ59LD80Xyv+J5eyX6Y0qaj6V5dptQAbK0xKlVXAQCAyIRrYSICtQDjpXTMAwAAAHzaevPNXdXsU7E+11QrWLulRvXa1LbV/t1vTSd1XR19rqR9NX97fsdARM9fv0c3AQAIQLgWAhOmncfntrId4B6EbAEAAIAUn30HNcNtkfTsH5l9XfGnrX2ndgD7e3o502+9b+eEY1tOA4Bjr58/RjcBABhAuBYGq9Uxo1MkjhpPvgPz8OoyAAAAqK/lvXbPvrvcCpdvEfsXe/d/RFwHxHeluusoWw/x5+7/e8vodwQAAFBOuBY6qt15o1MEIAbHYwAAADgXJdwWpR1HZmhjLfpVqKVGddeWbWj53RrfB+Afz1+///hvVWsB4L6WC9eqGEkkLTpq7N8AAAAAQHR3CoeSTz/3nHIrq7Y+DuQGZrcqxF6ZNwAAAGubPlwb/VUu3IswLQAAAABwN/roeTz0Za8u93e+9fmtfWRrnO/zc2fzLdnvtr6T2l4A1vZdtRYAuLfpw7XQWuqT2Fc7kGfppMl9Mv2OrBcAAAAAVtUzSNuqn00YuJy+T95q/o4+K8qO2sfs2wBsef38MboJAMBAwrWwYa9T6P33350sJa8dmtH3co7s6Irm/XS99QEAAADASmoHUSP0n9VsQ+tqlynrP8I6hTMp+2lqZVsAAADo4flaoNfl6HUxkKu0s3Lve6vsj16JBAAAAAD3cpe3dZXq2Sd8ti1WX9fEUHpMsH8CMIPnr99//LeqtQCAyrXw4Upn8cqdQ4K1+T7XmXUFAAAAwOru1Ac2oorm5/rdmv/eW9egpvf+lfobsD8CAAAwsyXDtV7NTglP/lOLV1QBAAAAsBr9o/+I0Pd3FHAUsqUH+xcAq/muWgsA8HgsEq59vV4hOrRYi86hfSutG2F8AAAAANj27nvXf/aPvXGIUevnaGxEyBYAoNzr54/RTQAAAvhrdAPgTp7P5x9/ZjC6nTXn/z2t93+33h6j1yEAAAAAlBLO/Ee0YG3q/GfqiwYAAACIZInKtRCd6gH/9rlO9pb/M/x6JGX9pU6rBtW0AQAAAGAdW319kfp032056pNUgRgAYNvz1+8//lvVWgDgTbgWGlkhXNmq0zhl3eSsv7OQ8t5yrLCNAAAAAIA2olar3XMWshWwBQAAAEj31+gGtOJVR4xk37umdP19f89xAAAAAAAoMVuw9tPr9coqRAAAcFffVWsBAD4tE66doUOL9aWEOWfZV2ftZH23+6j9I7bBrOsTAAAAAO5m5mDtp6OArcIEAAD/9vr5Y3QTAIBA/h7dgJq85p2RckK10ffVqJ3HKdUWztZtr2WIvo0BAAAAgHSj+0ZLvdu911f5fD6nXTYAgCtUrQUAziwVrn085u3gYm4lYc677qulgdOj9fUOsp59BgAAAABgT9SiAzUcFQMQsAUA7mYrWKtqLQDwbblw7Wq2Ort0csUSrcO1pD2fnae9q61+t6tV+DYCndQAAAAAEFO0ft4WzgK2788AANyNYC0AsGXKcO3V8N8snUMrdnKdbbvZlilS+Pls3W7tN5/fWW3bRHDUWQ0AAAAAxHCHYO3bXv/w59+tuNwAAG9bVWsBALb8/dl50rvDZFTobJWwW+ROrtJ1PFNweKZgbelno/gOqc6wfwAAAAAA8d0pWPttrzjATP30AABXqVoLAOzpUrl2xjDfLHpXG+21LSMHhx+PNsHa0vDoTL+v1Oq6ud9rKWdfnGlblCpZxsi/ZQAAAADu6c6h2k9Hb9+K3k8PAAAA0FLVcO0dgmWzmXmb3Knj7ns7pVYGSO0AjrofvNt51L6jzt1UpfvSe75n2yO3cvAs+3Wt/UalCwAAAAAiEaz901nA9v0ZAIDZPX/9/uO/Va0FAI5UCdeOCO5d6ciJGjS8i6NttxUyjdZpV7tqbUo119Tp733uakC1xjY4er1YD7nzSv38aseT1ZYHAAAAAD4J1m47K4QQsa8eAAAAoKU/wrUpTyDXDl6N6IxZqQMochCuZD3XqFLaW+tg7ef/fs5rtvU0g9wO4tm3weztBwAAAIBUZ2/P4h+q2AIAq/quWgsAcGazcm2LwJXOljbO1qttWVfN9XllWrnVc0eHKEvnX7KvXV3WHhVrR1R5qLkPpLZ99H4HAAAAAI+HarW5VLEFAFazFax9/fwxoCUAwEw2w7VX6FCJxfZoq+b6vVK1NzdYezSvFtWDr0wz93utqh+nbOuzTucRrrbFMQQAAACAmQnWljurYmsdAgAAACurFq7ViQLptjokWwQyS4K1vWzNK2UdpIZcv6f1/b1WlYNHB2trzN/xHAAAAIDZHfWT6f9Kd9TvKWALAMxA1VoAoFRRuFZnCcyrJFh7tZN0dOC0hqN1MPKYGLUy7QrbHAAAAIA5RSgusJq9kO37v61bACAiwVoA4Ip/hWt1gEC6KE/mb3VgpoYbU9tfs5M0wjorUbK9jyoFl7ah1Mj1Pus2BwAAAGAugrVt7fV3RukrBwA4IlgLAOQoqlwL/Md3R+JeB2LESp6rdXa2XsclQdmzz/fYL1bbzgAAAADw7aifTf9YXUcB2/e/AwCMtlW1FgAgh3AtZEgJV7YKS352SNaohnrUwVm72uoVqW2JEKytHbwtpfMaAAAAgDtRrba/o/5SIVsAYLStYK2qtQBALuFaQokS6DzSOnj67nD8nsd3h+RZO/b+PbVDs2bH59V1VrsTtub2K21bhDa0MsPvGAAAAID5qVY71l5f9tvz+bQdAIAQBGsBgBLCtYtZrbMq6rKcdRrmTifH5zZOCdhGkdKWURVzU+dbs31XphVpu6aYrb0AAAAAxHbWr6Y/qi9VbAGASLaq1gIAlBCuXcRnx5XOqn621nHrsOv3NFbbziOWZ1Sl1dW2HQAAAAC0Jlgbkyq2AEBUqtYCAKWEaxegsyqWWut862l/23PfUXWErUByTqA2db2PqrwLAAAAAKsTqp3DWRVb2wkAaEnVWgCgJuHayQnyrU1HY56c9fX92VrB3NSArY5kAAAAADgnVDufoyq2+kUBgFa2grWq1gIAV3QL1352oug4YYugMCPlVAo+O4Z9/rv9GgAAAADKCNbOba8QwfvvbD8AoCXBWgDgqqbh2qNX/zweOk5am339zt5+5mOfu06YGAAAAICrhGrXoYotANDDVtVaAICrmoRrZwpXqajL4zHXPgszcVwFAAAAIJVQ7bqOqtjargDAFVvBWlVrAYAa/qo5sefzOVVI8butM7X97fV6bXY86Yy6xvqjhhmPKQAAAAAwgmDt+va2oX5UAAAAIKJqlWtzOz+idoS9lyNq+wAAAAAAYBVCtfdyVMH2/e8AAKlUrQUAWqoSrj3q/PruCIn0ip+9TpwWPucTZfkj8WQ6zM/vGAAAAIBUQrX39d62eyFb2x4ASCFYCwC09tfVCex1gL1er80OkGidInvtTPF8PpPCZN+fSf1eTjtWE20/AfL5HQMAAACwRbCWx2N/O6845gEAtCdYCwDUdilcexSs7eUdVL3a2ZLb5s/5Hc3/qF01Ooi2pqHjEQAAAACAiM7ehKd/+16OArZCtgDAnq2qtQAAtf3dYqK9XttT0rHy+Z3vNqa2OXW+qVVta64rHY8AAAAAAEQUoWAH8by3/9b+0Wu8CQCYx1awVtVaAKCFS5Vrjzo0RjxVfDa/nu3xRDXcm2MAAAAAAJy/fU5wkrejKrYAAHsEawGAVi6Fax+P89c0tez0uNrpVhIAPvq811kBe/z+AQAAALgbfebkErAFAI5sVa0FAGjlcrj27agjrCTAevY0e64a00mdRq9OHp1JAAAAAAD8f+3daxLbuJImUMnhPfRsrntx05ubXoXmh622LPOBNxLkORGOe6ssESAJsULJT8mIzoK1sOfoXpP7IgBwX1vBWl1rAYCemoVr3/ZCtqlFj63XRC2YpBYA36/b24dW+6cgCQAAAADATGf1bnVsUrRs6AIArE+wFgCYoXm49i236BE1QJvrCvswmmPGXV1t7bsxAgAAAHBfRzX+d1BS/YhcArYAgGAtADBLt3Dt45Fe9OhdBGmx/Zpt9AgOX7lwpMDKVV19bV/5ugQAAADAv961b51q6UnAFgDuS7AWAJipa7j28dh/dM+76JFT/IhUKIlWEIw2n5VEWlcAAAAAACtIqauqW9PK2b0mAOB6BGsBgNm6h2vfZhU9FFbIpeALAAAAALDvrO6+F4SEWgK2AHAPgrUAQATDwrWpaotuKUW9nG2dPdKqZPsKiwAAAAAArCSlXq72zQgCtgAAAMAIP0cO9nq9Tgtvj0deEeRsmymez2dWwe/stb2Lh4pEAAAAAACMklLXh5G27g29/9maBIC16VoLAETxT+famcHNlC6xOfObsS8zxlQoAmYT+gcAAAC4npROtTDL3vpTqwSAdQnWAgCR/EgtfqU88imKvTm+97Wm4Pf9XsVDgH+5NgIAAACs7exegPoPEQjYzvd5/9BxB6CGYC0AEM0/nWtTjPxyvFUY+R4/5TUj9RxbYQIAAAAAgJ6OGli8/0AUAraxCNkCAABwFT9L3/j5xfiskFb6Jbplga5kW6/XK2s/Z4g4JwAAAAAA1qJTLSt7r8/vdfx8Pq3dSd7nwvEHIIWutQBARMnh2u+g6aeaX6CmfKk+GjvnNSWvbzU/AAAAAACIRqiWK9m6XyNg29fZPTIhWwDOCNYCAFFlda5tGSLN/RJdE3Lde+/szri5BHgBAAAAAGhFsJYrukPANtr+fM7lrFFPpHkDMJ9gLQAQWVa49vHYf7ROyTZ6uOqX8pzQMAAAAAAAHBGs5cr2Arbvv6sRpRHK5zwifV7P7iMK2QLwJlgLAESXHa59S/kV6t7ryROlUAOka9npGwAAAABa2qtbqeNzFUe12dRw50r13YiB1bMaecQ5AwAAwKficO0nX3wB/uXaCAAAAEA0npIG/1opSLuSFk/DBOCadK0FAFbwY/YEAAAAAACA/s4e0w538nw+//cPfb1er90Qv+MPcD+CtQDAKpp0rqWvrUfn6CQAAAAAAEAqATbuZOu+Suvtk2+vk+3z+XRMAW5CsBYAWIlw7SJ6F4IAAAAAAACuoNX9FIFPAGhHsBYAWI1w7UIUcQAAAAAAyHUWNFR7ZnUtwrQ+B+NsNZTRvRbg2gRrAYAVCdcCAAAAAMCF7T0ZTZCNldUGaq3/uTyxEeA+BGsBgFUJ13JrCjcAAAAAwB0IErI6YVoAWI9gLQCwspDh2neB5MqFDqHOmK685qAX1zMAAACAa/mu96ibMktN7dG6BYC5BGsBgNWFCtd+F0nuELJ9u8M+AvfgegYAAACwrq0w451q9cxXGqi1Ptf3fD6dRwAAAMLYDNeO/vKq6yEAAAAAAMx1VqsXfKMH3Wnv6/V6uUcIcFG61gIAV/Dz8ej75fWo2OYLMwAAAAAAxCDoxgjCtABwbYK1AMBVbHaubeVdINl6ZFRK8SR6keRzH3LmqjgJAAAAAEBE37Xu73q27rXs6XXvw3q7F9cYgLUJ1gIAV9ItXLtVRLlCoHZPzZf91fb5+zy2nr/CCSsqLRxb7wAAAABEppstKVqvETXT+9i6xqibA6xJsBYAuJpu4drcgtvML8lbnXV7j7Winr86X/m4cA891+jIaxAAAAAAQEstaqdqo/fmPhHA+gRrAYArGtq5dsvsgsnnPHsG3PaOx+z9T6GgwdVZ4wAAAABc3VYNrLQ+raskta60fnLry1fadwB4PARrAYDr6hKunRWs/Rw3Zdt78ywtDO69r1dwb0QBU+iQq7GmAQAAALiCFnWu1IYTHttOjlnrIvceUesxa97jswTAqgRrAYAr69a5dk+vAkFuAePs9SlFxb2CYoqa4zC7226v8aC10UFanwsAAAAAakX9cbjHthNZ67WZEtRtOWbPez2rEuAHiE+wFgC4umHh2p5fgFsEa0cWBlsFa3vaG0chg2hmFfR9FgAAAACoJawKfdQEM3OaqPQI9d619izAD7AWwVoA4A6ah2t7PM7m6BfCqV+0U15X8mir3C/7vYs5udvZmo9HEhFBpK6zW3PRSQAAAACAM9GCYmpZ0FbJZyrlyYo+qwBEJlgLANxF9861ZwWAs0frHBUZUrurnhUqaosU7/cfjdOzW23Ktve2ETUgeMfiUaQwaS9Rbibk7HuUOQMAAAAQ112frnTHOi7UKm0ic0euMQDxCNYCAHfSNFybWwCoKRj06q6a0ol2L5Ba+gvl3I6ZuWOmHOfZBYq7Pe4nwr5GmMMIPYPtAAAAAFzfjBpR1DDZ3eq4lJl9vyHaPM6UPFXxqlxjAGITrAUA7ubn49GvOFgTGs19X2mRIfd9n+PXdn19v39vOy32VRFiPuegv15Fxq1C3h0LmgAAAABXEq1ep94E15MbjhUq3XfXoDFANIK1AMAdbXaubfUlde8Lb06BIKWg0CPEO2Nbn8erZ7A2ZYy7/kq61X4qgrURYc1FmAMAAADAnVyttqa+xNUJhv7trLEKx6wngHgEawGAu9oM1/ZQE5AdaW+eEUK6tcHaz/ennI+7BmxLtFoftcc3p8vqrOKUNQQAAABwD3cLR6l7AXe77gFwfYK1AMCdNQvX1oRSz4qOR79SrQ0PnnWLrfmF7Of7zrrFnukdrN3avoDtuZpC2ezjOHt8AAAAAK7lyqEytTTIE+VeQpR5GCq1XgAAIABJREFUAMCKBGsBgLsb1rl2T01Ro1VXzqPXtgjW1m7r/d4WBaDcOQjYbis5jgAAAABwFasHadXroK2aRiVX5lrThvtSAOMJ1gIANArXlhRMWgVFt7bTqoBTWgxqEaxtWYg621ZJ5+CrFDK+9+1sn3LOyRWODwAAAAA8HuPDtGprQCsr3M8QTP6bsDbAXIK1AAC/DO1cu1e8OAs3nnWWfb9nxhft0oLM3px7FHlqgrWfr7tywPbtaC2era/Zx0KhCQAAAIA9Z7W8XrWl2TUzgBW5dgIwi2AtAMAfXcK1OV/6z4q2KUXd0s65tWO3KG7k/Pq2dZg1d1t3+6Vw6r4qcgEAAAAQxVmjgt7Uyu7nKk0YaM/aAIC1CNYCAPytOlw743FgOWMevT63S26KlPf37BbbcvwUdy6ORd/v6PMDAAAAoI1ZP4hXf7qnuzVhIF3ktRH5XkbUYxZN5HMIcAWCtQAA/2reubZ1cHNvjF5dZXtuu0RqwLZVqPZzO1uvj1wcG0XxBgAAAIAoRtbq1MWAVZQ0L4lihTmO4H4UwBhbodrHQ7AWAODx6BCuzZH7pfizoPD+/9/baFF0KP3CPqNrbKrcYG3uPK5S7Dk791fZTwAAAADW1zp0pPYFXMnKAVu2OX8AbQnWAgAcmxKuPepIe/aao/f0dDZOy2Dtd3FgrwCU46zgkBvUvXJBaiu4HX3f/HobAAAA4F78QBzgXPTup5HnFkH08wewMsFaAIBzzcO17y+5JUHZIyMLwiXB1RopYdWcAsLea1sWIO5Q0Fj5JsTKcwcAAACgjJoQwLmRzUKOxtq6x+I6DsAIgrUAAGmqw7UtgpzfxYJooc2cwkfuNj7/fq9TakkX39rwqwIOAAAAAKxlq/HBSq70dCwgjqOnA7a+5tyhMcls/lsBUG4vVPt4CNYCAGz52aqrbKtiwQq/1M3d19T5v49jTrD2aNul5yXa8QYAAAAA/nZU+1sxZPue84pzB+ZKuQ9y1Cim9/WmpIEKfwgsA7QhWAsAkO+fzrWlX95LvtyOKhTUfvEu6VBbOl5Jx9pW24tWuPHr4zSKSgAAAAD3dFb3XKW+pr4FtLR33RsVsI18v+wqVvnvG0AUe8FaoVoAgGP/hGtrHAU5c7u35r5vtu95Rpx3xDnRnvMMAAAAcB9nP/aPHkBadd7Amo4CtiPG2Xstx3SvBSgnWAsAUK5puPZTTTGgRyEht5BR0q32ykYULRRHAAAAAKBM7RO1AO5i1L2IlHHucH8JgHkEawEA6nQL10aUU6Q4K0bfqeChIA8AAAAAa9gKc+kCC/C31IBt7bXTtbcf/20DOLYVrBWqBQDIc6twbYmZX8wjdHL12KLYZq8PAAAAAOKJUFdMscIcgdhqriM6fq/Fj0cA0gnWAgC0IVwb3FEhfETBYORjixSw6ikiAQAAALBFAAm4mlb3FFwb17HKj0cAZtkK1T4egrUAAKWEaxcwu7DTY/ytYr6iCAAAAAC0odYGXNnMpiTE4scjAL8I1gIAtCdcy3Dvotf7fz+LHgogAAAAABDbZ6gtYj0vSuhO4At8DmjPj0cA/iVYCwDQx4/Pf1DgoDcFDwAAAAC4jkj1vufzeTifs79vPZfRY0IEo+4zbY3jHtd9uc4CdyZYCwDQj861dKWg0Y9jCwAAAAC/5NTKenfSVLeDMYRp72ure60uycDd7IVqHw/BWgCAVoRrbyxCkVehox3HEgAAAIA7ilDnfIs0l17usI9AfFsBW4C7EKwFABhDuPaCVikmCIMCAAAAAL181h971UxTtnv1OujV9w+i+wxY3T1QpXstcHVCtQAAYwnXLmqVAO0exQ0AAAAAGKtX6GhmmGmrTtp7LqvXZoHrOApZ3YHutcCdCNYCAIwnXBvcFYoCgrQAAAAAMF6v0FGUMFP0YK26KDDa87//5/YBK91rgas5+yHF3a/7AAA9CddOEKHw/KbAsKZIawgAAAAAWoeZzrYVPVgLMMLrP/9D99ogP/gAaE2oFgBgPuHaQtG/qAvN3ovzDQAAAMBI0cJMI+pjufuseyL84rMw1tW710b6bw9AL0fB2itf4wEAonk+Ho/X43GfcN6VvnTf5Zzxr+91bC0wk/UIAAAAcfX83l677aNa7dG2SrrW9joOKfXmq9VK1IJIcaV1ssR9pf/7//79d//1f4ZOoeQc9zq2K6834N50qwUAiOW0c23JF9sRX1qXKGY0oggAAAAAALAtN1jbc+ytsd7/Tp2XO7vTPZ27co4B6uhWCwAQz1+da33xHUchlVIlnTmgpyt1oQAAAICridy5dmsbKdtKHbdk263MHLs3tSBSuN80QYDutTO5FgGrEqoFAIjrx/v/KHTke71exX+gFesJAAAAgAha1Zg/613P5/OvP6nzmB1uPQr8qsVzB+rWE9wsSOu+G3AFgrUAALH9b+faO/Elm5XpDEE01iQAAADE1ft7e+32z57S1DKIWttZt/TYzQ76tqYWRI6rhMlXWedbIa1R4azSc73KsQVobS9YK1QLABDHz9QX5ny5HVUsifKFu0WBFQAAAABgdc/nM6lGOjpwWhusrR17a1upxwpWZo2P9frP/zjsgth1bOcaIIlutQAA69gM19Z+Ab7TF+ir/OqaNVhvAAAAAKwup8a1F0zNeX+J1nU4AVtglud//4+wFkAAZz9+cK0GAIjn+VK5K3b2yDJozSPXiMi6BAAAgLhGfG9PqZOmhlWP5pcbyi3Vs6vuFWrKakEQ31aAS2gLYA6hWgCAdf2YPQEAAAAAANa1Fa58Pp9//Wk1zvtPyd+fOZprqwCpICowy1m4C4D2BGsBANb2c/YErkRhFAAAAAAgzev1Kg7ebr33+XxWBWuPxsrdhloxMNPrP/9DmBZgIqFaAIBreL5U+Yp5/BUjXeGRcVyTayEAAADENfJ7e05Q9j2PmvmdjXe2rdr3n21vr6Nv7TizqQXBOvbCXUJdAH0I1QIAXItwbQVFREay3ojK2gQAAIC4Znxv3wutpoRNawOtrZQcp5ouvCtRC4K1CNgCjHEUrHXNBQBYk3BtBUVERrlCRwuuy7UQAAAA4or+vb3V/FqFbGuPT8k8op2TM9HXFPAvgS+AfnSrBQC4LuHaCoqIjGKtEdnM9fk5ts8FAAAA/Ct6Xanlj8prA7atjk3OPKKdjxTR1xSwTxdbgHaEagEArk+4toIiIqNYa0Q3I+Sa84hJAAAAuKsV6kq95pgScu15PK5au1hhTQH7BGwB6ukIDgBwD8K1FRQRGcVag7+d3RzzGQEAAIBfVqgrtexeS38rrCngnJAtQD7dagEA7kW4toIiIqNYa/Cvo4CtzwgAAAD8skJdSbh2LSusKSCNgC1AGqFaAIB7Eq6toIjICG4urCflkYORrLaeZj/SEQAAAFaySg1zlXniXMHVeLQ5wDHXSQCA+xKuraCIyAjW2TpWC9Vekc8HAAAA/E1tidasKbgmXWwB/qZbLQAAwrUVFBGvLSco2fPcW2exCdTG4HMBAAAA29SWaM2agusSsAUQqgUA4A/h2gqKiOuLEIw8WzfWWVwR1s/d+TwAAADAMbUlWrOm4NoEbIE7OwrWug4CANyPcG0FRcT1CEOmm7meP89T1M/V2VqKOu8tK34uVjq+AAAAMNNWDVNdkxrWD9zDVsBMsAy4Kt1qAQDYIlxbQRFxHSuGB6PIWdc9j3Okz9fRfkaaJwAAAECLeo16B29b68n6gOvSxRa4OqFaAACOCNdWEK5dQ80NhNRzeofwbsqx6H0conzG3EQAAAAAVjGibqUucg9qYnBPArbA1ZwFah8P1zgAAH4Rrq0gXBtfys2D2edtlWCucO3ffP4BAACA6KLVndRP1rW3lpxTuAcBW+AqBGsBAMghXFtBuC6+HkXfkYXknmMdbbumC0XPmzaRPmO9Pv+f2420vwAAAMB6juo0n3WHaCHckdRf9p2tC8cO7uUokCaIBkQnVAsAQAnh2grCtfG1PEepNxlar4MRIc6W220p8hxHrK1I+wsAAACsqcUPee8cvo2uZf0o5zyrW8F96WILrMaPAwAAKCVcWyFy8I9fWp2j3BsI1kIbkT9jtXNLWVOR9hcAAABgj/DtvahZAYJqwApcqwAAqCVcWyFy8I9fRgQgt1gLbUT+jJXOTQcQAAAA4K6EcNenXgW8nT1iXXANmOHs2vR4uD4BAJBOuLZC5OAfv2wV7FuFID+3UzMO+yJ/xnLnJlQLAAAAEI/A7zF1KuCMkC0QQUqo9vFwTQIAII9wbYXIwT/+KDlPR0X1o/cL2bYV+XjmrKuUmzRR9gsAAACAdbQOB6tRASWE2oCZdKsFAKAX4doKwrVraNVhtNf72HeFcG1pUBsAAAAAAFYiZAuMpHM2AAC9CddWiBz8448WHUZTz6uAbXtRQ+w14doo+wAAAAAAAK0J2QI9CdUCADCKcG2lqME//qjtMJp7ToUp24r6GVs5XPs5p55zGTUOAAAAQK13HUMNA6AdIVuglZTriWsJAACtCddWihr8448ZIUjrop2ox3J0aLvVdmvmU7vP3+8RvgUAAAAiiPjjaICrEbQFSrh2AAAwk3BtpajBP/5IOUetC+hHY6YGCp/P57D1FLkzR9TPWM68WgZsj4KrR9tOeV9JWPb7fanjRD2vAAAAwL30+mE0ANsE5YAUrhUAAEQgXFtJQCy+knBt666i7+2lFutLOoSWdgSN3pkj6mcsd14tbtSkBmu/t5vzvpL3nq3v3DFH0j0XAAAA7iv16TsAtJcanHs8hOfgTlKuDa4JAACMIlxbKWrwjz+ihGtTi/U5Rf2ccVI79u69dpaIn7HSQHLN8S4NyJYEXnPfe7a+U18/49xGXF8AAABAO6U/BlYjABhDyBbQpRYAgKiEaysJZsUXIVx7JifMOKIjaaR1HPEzVjOnkoBtyntyg9Zn579FSPvo/Wfh2lEdZSOuLwAAAKAd4VqAdQjawr0I1QIAEJ1wbSXBrPhWCNfmEK6dP7faOe0FS1MDsjUB19wus0dj7o27F6BN6by8t82jOdSIuL4AAACAdoRrAdYjZAvX5fMNAMBKhGsrRXm0OdtqgoktupHuKQ04vt+bMu5RMPNs7EhrOGL4scWcegaw94wM1qbI6bZbsv3SOQAAAADXklJvUCMAiEkQD65Bl1oAAFYkXNuAwmtcOecmt1tmbTi2Z7i25RhH3tvvueajfb5aBupHBmxbB2sfjz4dfGvnlMsPJAAAAIDHI14NCoC/CdnCenxuAQBYnXBtAwqvceWem95hx9Sus7XbaD3Op7NuuS1FDD6WfN4/39Pi3OQ6C9Ye/X2vrrV720ihey0AAADQmvoAwDoE9iA2XWoBALgK4doGckNpjFMbhCyRGlTsFa7d2sdWHUtTHqHXUsSbGrWB7e/X7/19zTnLee/Re3p2rd0bM2Vud1hnAAAAwFgRf+QNwLGckO3jIcgHPQm9AwBwRcK1DYzs5Eme0tBcbfB1VOg1JbiZErjcCgSfhUDP5rb1vtrOphE+T6PCtXt/XzLmnpKgdumcUrdTO7cSbp4BAAAAj0fMWhQAaQRtYQ5dagEAuDLh2kaEs2Lq3V0ztbNnSRgytWvn3jgtQ6AtgrUpc2j9/h4ihGvPxm/1ntRwbel5yen6PTpgG2GtAQAAAGOpDwCsLzdk+3gI/UEuXWoBALgL4dqGajp00t6VAs+5a6tFt9PUcG1OuFO4tqwja2kn5ZRt585l67UlHaG3uiUfbU+4FgAAAOhNfQDgWgRtoS1dagEAuBvhWrqIEDS+czG8Zbi2VbAzZQ6pc5qlxXE90nJbOdvd2nZOELcm8F0zburYKaKtNQAAAGA89QGA6xK0hTK61AIAcGe3Dte2DA2WuuLhb9W1tPU8asZ/b2uF81UaQNw6XjODtY9HvBsarUKle0o6wPbaZm7INVfpuewVsI221gAAAIDx1AcA7kHQFrb5bAAAwN8uGa6NEJodbcZpzD3Oq4Vrj/Yv8semVbi2lRah5hbbaqF0PinHtkX4uOX2eoZra89jj87YPbviAgAAAGuIVosCoD9hQvA5AACAPcuFa+8YnL2KlcK1vcKQI/QMgOa4YjfRXoHt2ftVoma9tFobrY9btPUGAAAAjKU2AHBvJQHDx0PIkDUJ1AIAwLmw4Voh2muJ0Fm3dffW1O21DJmebaum+2bETr2RbmjobPqv6N2rc0VabwAAAMB4agMAvAnaciWl6/nNugYA4K6mh2tnh2hnF0hn738vs4/r45FfDG8VFGzVnbQk7Nqra61wbay50IdzDAAAAPemNgDAFh0+WU1NmNbaBQCAP7qEayMERu9W+Jx1zCMf55xieKuurS1Cqqnn8r2tz+64rQPFs89vpBsakeZCH84xAAAA3JvaAABnckKLQoqMUNuV9vGwVgEAYE9VuFagk5Y+Q6KttvcpN1zbstNs6rZbf6ZGBIp7inRDI9Jc6MM5BgAAgHtTGwAgl662jNQiSPvJWgQAgGPF4doRwVrFy/toXbjOCcuODtbubb/HZ6o0xBvlsxflhkaLNXK23SjH/M56nWcAAABgDVFqUQCsqSb4KOTIlpZhWmsMAADyFYVrR3bX5Pp6BNpSC+EzgrVbY+xtI/V1Ke9N3Uakz2OUGxo95hFl3+7oqEu28wIAAAD3pS4AQK0WYUghyHvSlRYAAOLpHq5VgORIaqi0dru9gnSlQfPPcXoEa7fen7KNaJ/XKDc0hGvzvfdv5jlL+Qycfc6udl4AAACAfeoCALTSOij5JjC5pl7r4c26AACAPpqEaxUZ57nCY+Vnda6tHbemg/N7nNQ5tOiOe7adiOsnyrVmZLg2N5Qa5Rg9HnHW19mx3fq7s/cCAAAA16cuAMAIgrfX0Ts0u8V5BgCAcYRrF3aV87BiuLYmWPs5Vuk8U7efs62I6yfKGm85jxYdiM+2M+o4Rexivve5Lu0QHfFzAQAAAPShLgDADKMCmkKZeWYEZ7c4bwAAMI9w7cJGnYe9x6u33P63WeHalj7HzAn8nb2vZPxPK31+o8y1Zh6tgtip26wJkud81luFhHuoCf1GWXMAAADAeOoCAMwWJdCZKnrw0/EEAABqCNc29Hlczo5JzmvP3l+zndxxVhkjdZutArYpc04d6+gR9kfvGbUmRopwrZnd4fh7vBbB2q33HB3r79Bt7lo+8t5W6Wtrj7FwLQAAAPCmLgBAdKuFRflDcBYAANYjXNtITgCv9vilPt681soB3pxt9ugsWjNWbrg25fWrfkYjXGtK59CyM/LZOa7pzHwUzC7Zh9rjM6LLdM71YNXPDgAAAJDvij9eB+A+BG/nEJoFAIDrEq5tZHa4dkToddQ4o8O1e+9JUdt1OKfDccrYVwvYRrjW1MyhR4fXlPfldj3OfU/qPPbkrNPWwdqtMY7GW/FzAwAAAJRTGwDgqoRv8wnOAgDAvQnXNnK1cO3ILg2t19MKHSaez2dxh8+SLrzR9j9VhGtN5PB3TsB6L0TbIly7N5ctZ+N8bmdkV+m9MVf97AAAAABl1AYAIN0KgV0BWQAAoJRwbUOpx6V1uHblrrVbY7UO195tfV5p/yPsS5Twd+n15fO1R9sYEWTN6eR7FBLO2Y+I11cAAAAgLrUBAAAAAODxeDx+zp4AY30Wh3MKw6OCtdRT8L+vnGBtr/FzQr+53tvuOQYAAAAAAAAAAMCUcG1pwHO297xnzrkmPJb63lEBtZHdcVnH3QKSrdZ8r2DtWdfb73+/FbDNHT/SteEoMAwAAAAAAAAAAFzTj9EDbgWxct+TOs77fe////2nZFtb/zzTlUJfV9oXykT5XF1Ji2Dt0Xa3XtP6PJZeG0re5zoEAAAAAAAAAAAM7VxbGpL9/N+UsFfqmKXbvLJIHSNnm3Hu73qsH4+Yn7Uec3q9XlO7Q+85m9fW37+7uh79Xe99Pdv+qp3SAQAAAAAAAACAeYaGa/fsPXY7t7tsaxHDfvQR5VynzuNqIcEox/9Mq+Me9fydzes7LDtzP0p/rBH12AMAAAAAAAAAAHGECNfOthW46hX2ixwiHDm3KMchyjxy1cxbuHBNIzvepszjex31ml/tDy8AAAAAAAAAAAByDQvXRgpDnYXAtv5uVHCsV2fFnEenfxoVxBwd+Iy0HkfL3fde5+bO56DU0bk4uka1vn6951F6XamZ1127OwMAAAAAAAAAAOM0CdeOfNR26lip4a/c7ZZKmcf7Ne//7dlN93Pbs4O1LdWG/b4J/cacE9tKw7clareV+tlKGSdKV18AAAAAAAAAAOAaisK1PYJM3+HWVtvfm+vev997bYmcfSjZ3xXDrzOs1OmyZeAQvrVa45HW39k+Cd4CAAAAAAAAAAC5mnSuLREx8NQyWFs77ijRzsEMEUK1uWrmvMo5j3iN4Jezc3P0Q4mWYdi9bX3/+xU/4wAAAECekU9XAwAAAACub1q4djV7Ya/a8N8dg7VRApN3Lbbn7nfP85UStCSm1HNTEqbNCe9+v8eaAQAAgPt51xHe/6s+8LfPOotjAwAAAABpQoZrVwhfrt5V82zuI4usox9Vr4Ccx/Git72wbIvtAAAAAP21rpPWfsf3A9x9jg0AAAAApAkZro3grMBYEuRcOYwbXaSwMAAAAABcyei6ZovxhEgBAAAAgBqhwrVRwqcpRdeUzrWKt+PsnQ/nAAAAAADSRanRtpCyLylNFlrXGAV/AQAAACC+IeHavSJmSkA1qve8UzvTpgRxoxyLVQu7q84biM0NLwAAAK4uSl1yhpR9/35NTZ3gva2t+vIoah0AAAAAcG5K59qcwl1p6PRdIDx679bf780tUvi1xNG+rrxfMEvLmyp72yzl5kid1a/3AAAAsKfn992W9Yjo38tbzm9E0HWr1iFgCwAAAADHpoRrU+0V91r+qn9E0LflHFqPE71QDdHsfWYifZZaPPIQAAAA6OPoKV+9x6gxspZQMlak2kxEArYAAAAAkGd6uLZVYHWvOLj1utpxWolYuIw4J4jiSjdpzrp68zc3mwAAAGjh6Pt4pLrDit+Bv+cc6XhG4Wk9AAAAAJDux+wJPB7bxdrPf7diMffb9z6c7fNVKd5CfM/n868/d7TX6fuuxwMAAIB60b9Tvl6v//1zBaX7MapuG+V4R1+XAAAAADDL81VYvfsuuh1tJue1Nc4Kgb0LlT065Z5tv2aM3vNNGXN28RiO5FxTWt2IaPGZ6H1T5Oqf25Tjd/VjAAAAQHtRQox3+07b67ivfBxn1IUBAAAAYDU/RwwS4XFTs4qDIx4l3moMBVRIE73zdMpcaq7JV7oBM/u/TQAAANzX93fp1t9RV/2u3trecag53qsf2616/Yg6NgAAAACsZEi49vGoKzimdo/cC/HOLAqOGFvRE/rYuqZc5fOW0208xdF7ohwzQVoAAAAi+Q4zRvn+fBfv451bL7jKeYrQEAMAAAAAInu+CquBIwJnKxY2P+c84piUjjErhHzVoCJc2egbLSXXhVFzdM0CAACghtpYfCv8gLiVaI0qAAAAACCSYZ1rc0X91fzZ47FGBmpbHiNFU2BP78dUfotw/XdNBAAAgHvqUXuNaqt77Vn9GwAAAADuImS4NmLh8nNO7//fu8i4dxxmzAXgbet6E/G6ncr1EwAAgFkEGddyxfO1FbAFAAAAAAKGa3MeuzWq6DejuNh7TEVToKWjG0uRrjVXuwEGAADAWtTk1qfZAQAAAADcQ6hw7VZhea9IeeXHko8aWwEYGCH3WlN6DXRNAwAAAFo5C0KPDtl+zkUNBAAAAAD6CxOurQ3WtiwongW7PscqLaLmPkJMVwvgLtwgAgAAAEbbCq9u1YEjyK0tR9s+AAAAAKzgx+wJPB75Ydlehb3n83lYJH29XrsF1bP3fo+z957ewWEAAAAAAP5IrdFu1WkjhW5LqT8DAAAAwL9ChGu/pRTz3sXMvaLm45Fe2EwJxn6HakuLpimPEtsbFwAAAAC4liuEM1e2d/z3/v1VA7bfrrhPAAAAAJBjeri2V5HuqDts6vhb4d2a+QrWAgAAAMC9qfnFcVbrzQnYru6K+wQAAAAANaaHa7+1KOLldKzNmUfKdluFhWuPQ013XQAAAADgWtQL+3JsAQAAAOBafs6eQEs5BcyRXQdKOyDkvmbrde9/1nkAAAAAAO5HvXDb3pPEUuuwOa/t4fl87p7DVuf4aAwAAAAAuLqlw7WlxcuSYG3rsY58zqNFYPj9dwqhAAAAAHAfuqmmi147TQ3zfr4mN2Q7OzAMAAAAAJGEC9duhUBrC3opYdUowdqS9yl6AgAAAACf1Auv77uWvnfONV4AAAAAgHw/Zk9gq6i39ev60m2nFA17FBZHFq8VygEAAACAt6MGA6k10ytr9bSwmtd+vufzT6mz96ohAwAAAECe6eHaPaXFxJIC8dFYpQXRvbmNchZaBgAAAACuZ6sGGDVQ2yJU2sLnsck5TrXHdGu/j47H3nh75xwAAAAAKBciXNui0DejQJwz5uv1OiwSn20rpwvv+3UKqAAAAABwHyuFLL/nGiFkO1KrTrM5TSPudHwBAAAAoNbP2RN4Owufzhpn7/W9OhhELXYDAAAAADH1fpLW9/Z7dGz9/Lur10hr6uCj6uhvdzgfAAAAALAlROfat3fX1d7Futztf85ra35nHWdbzaem823KNgAAAACAtYwO1r7/3ew6Y4Q5tNSjJl6yTUFaAAAAAPglTOfab+8iXq8CaesiYen2RgSJtx6xtjVu6w4UAAAAAEA/M4K1W3+fM15KvfesW+rnNkrmMFPtU9IAAAAAgDHChmsfj7xg7cguBSXFzp7zizYfAAAAAKCv3sHa97ZahGHPxnhvI0X0uubRsRgdrI1+rAAAAAAgsjDh2pUKfa3m2qKjQ8o2UovgAAAAAEB8I0OaOQHblvPYCqkezSM14JvajTdVTe31bL5qugAAAAAwz/Rw7Z0LhLVoAxlIAAAIMklEQVT7nlOozi3yehQZAAAAAMQzuvvpnpJQ6dHrWzQIOAvYlmy/ZVh4NjVfAAAAAEg3LVwboZi4uh7HUIEVAAAAAGKaEaw9GnMrELsXcK2d+977Z9eZt8ZP6aLb+rzldPkFAAAAAM5NCdeu3kH1yoXJs32LeD4AAAAA4I4i1OpSAral9dSUkGqOszBu6jx71Idbb7PlcWt9HgAAAABgBdM6125ZpUBXMs+rBHJT9mOV8wgAAAAAq4hSX9yq/eV0sD3bdup+7m37bNy9uaaOkRvATdmn3K6+vddChI7AAAAAADBbiHDtHcKYrTsFRJZTDNb1AAAAAADyRaup9QpkpjxpK3K9tCRYWzpOtDUBAAAAACubEq5V5KuzYlA3p1MDAAAAAPDH6vW0rZrgXo0zpX54Vh9tETStmV+Ko22onwMAAADAfCE61zJPbqG2tnC8+o0AAAAAAJhtlfDlUcg1cqfVs3lt/X2ruuf3tj+3OyJUDAAAAAD8IlxLlpTirAAtAAAAANxPq66uudtpOe5MR8Ha9z+/Xi9PBwMAAACAAYRraa5n5wYAAAAAYD2tArOzA7Cp3vNM2efUeuoq+w4AAAAAV/Bj9gS4B4VfAAAAAFhfzY/oc2uE7y6tn39abXtLywYB722dzTlisFajBAAAAADQuZaBPK4MAAAAANbSuqbXMyS6yg/8W8yzR61V7RYAAAAA/tC5lqFWKXADAAAAQAQRA4/P5zPkvFId1ShH7NfRGLVda3PPzfv1K59PAAAAAOhB51qG08EWAAAAAMrM+PH6Xj3v+Xz6MX2Cmnro0fE92q76KwAAAADUEa5lCkV3AAAAAIjlM5D5Xb87CtiyLTd8XHIsNTIAAAAAgD5+zJ4AAAAAAABzpQQ0/WC+n63jn3q8W56X1+vlPAMAAADAQ+daAAAAAIBby+l8+g5ert4t9ajja27H2RJnY+SO//36knMKAAAAAPwhXAsAAAAAsIjWwc/SkOxROPX993eR2vX3+3U9A8p3Ov4AAAAA0INwLQAAAADAILmByrMQa4+5pAYzBTh/2TpHNcfGcQUAAACA+bqFa1sWEwEAAAAArqikbtqie21tsJa/pRy3lKC04w8AAAAAMfzosdGej7MCAAAAALiT1oFLwdpfZuzv0Zh3O/4AAAAAEFmzzrUCtQAAAAAAY7zrsbmBTMHaNC26A+9xrAEAAAAgvmbh2iOKhQAAAAAA5V6v12YwtkXTgzvXb/eOKwAAAABwbz9K35hScH29XrcuzAIAAAAAtNK61qp++4tjAAAAAAB8q+pce/SrfgVJAAAAAIA/WnaZrd2W+u3fHA8AAAAA4FNVuPbxUHQEAAAAAChRU1utCdmq6ZLr+XxaNwAAAADcSnW4FgAAAACAOQQe6eHoqXUAAAAAcAc/Zk8AAAAAAAAAAAAAAKIQrgUAAAAAAAAAAACA34RrAQAAAAAAAAAAAOA34VoAAAAAAAAAAAAA+E24FgAAAACgs+fzOXsKAAAAAAAkEq4FAAAAABjs9XrNngIAAAAAADuEawEAAAAAAAAAAADgN+FaAAAAAAAAAAAAAPhNuBYAAAAAAAAAAAAAfhOuBQAAAADo6Pl8zp4CAAAAAAAZhGsBAAAAAAAAAAAA4DfhWgAAAACAgV6v1+wpAAAAAABw4OfsCQAAAAAAAHmez2fW62tD3c/nUzAcAAAAgNsQrgUAAAAAgKByQ7Sl2/kOzr5er2ZjAwAAAMBqhGsBAAAAAGCy2UHW7/F1qQUAAADgzn7MngAAAAAAwJ3MDlESy/P5DLkmIs4JAAAAAEbRuRYAAAAAAAZoHVjN6S7bYuzn86mjLQAAAAC38HyphAEAAAAAdPUdbFSWvb6WQdoR6yV3vtYwAAAAAFemcy0AAAAAAFRoFaSdGVj9HDtlf96vEbIFAAAA4IqEawEAAAAAIEHLbrSfogVUv+fTa78BAAAAICrhWgAAAAAA+HKXIG2K1+slYAsAAADArQjXAgAAAADAo32gdsUg7Z73vgjZAgAAAHAHwrUAAAAAANyOIG2Zu+wnAAAAAPcmXAsAAAAAwGUJ0QIAAAAAuYRrAQAAAAA6ah3u5FyrYy5ICwAAAAD3JFwLAAAAAMCydKYFAAAAAFoTrgUAAAAAmGArFCrYmUZnWgAAAACgJ+FaAAAAAIDB9sKh3/9e+POPmkCt4wgAAAAA5Hi+VBUBAAAAALqq7bR6pzKurrQAAAAAwGw61wIAAAAABPcOnF45MKozLQAAAAAQhc61AAAAAAAD7IVHP0u0uQHTFcu7OtMCAAAAANEJ1wIAAAAABLV62LZVkPYt2v4BAAAAANckXAsAAAAAEFiLgGptGbh1SPaMsjUAAAAAMJNwLQAAAADAIkaHXEdTrgYAAAAAIvg5ewIAAAAAAKT5Dp+uGrYVogUAAAAAIhOuBQAAAABY1AphW0FaAAAAAGA1wrUAAAAAABexF2RtEboVkgUAAAAA7kK4FgAAAADg4gRjAQAAAADS/Zg9AQAAAAAAAAAAAACIQrgWAAAAAAAAAAAAAH4TrgUAAAAAAAAAAACA34RrAQAAAAAAAAAAAOA34VoAAAAAAAAAAAAA+E24FgAAAAAAAAAAAAB+E64FAAAAAAAAAAAAgN+EawEAAAAAAAAAAADgN+FaAAAAAAAAAAAAAPhNuBYAAAAAAAAAAAAAfhOuBQAAAAAAAAAAAIDfhGsBAAAAAAAAAAAA4DfhWgAAAAAAAAAAAAD4TbgWAAAAAAAAAAAAAH4TrgUAAAAAAAAAAACA34RrAQAAAAAAAAAAAOC3/w+d6ct+HgJYiAAAAABJRU5ErkJggg==;" vertex="1" parent="WIyWlLk6GJQsqaUBKTNV-1">
          <mxGeometry x="90" y="31" width="709.8" height="409" as="geometry" />
        </mxCell>
        <mxCell id="_UJg27Rl1VnWqQIB9TGI-58" value="Add new card" style="rounded=1;whiteSpace=wrap;html=1;fontSize=12;glass=0;strokeWidth=1;shadow=0;fontFamily=Courier New;fontStyle=1" vertex="1" parent="WIyWlLk6GJQsqaUBKTNV-1">
          <mxGeometry x="-120" y="850" width="117" height="40" as="geometry" />
        </mxCell>
        <mxCell id="_UJg27Rl1VnWqQIB9TGI-63" value="" style="edgeStyle=orthogonalEdgeStyle;rounded=0;orthogonalLoop=1;jettySize=auto;html=1;fontFamily=Courier New;" edge="1" parent="WIyWlLk6GJQsqaUBKTNV-1" source="_UJg27Rl1VnWqQIB9TGI-60" target="_UJg27Rl1VnWqQIB9TGI-62">
          <mxGeometry relative="1" as="geometry" />
        </mxCell>
        <mxCell id="_UJg27Rl1VnWqQIB9TGI-65" value="" style="edgeStyle=orthogonalEdgeStyle;rounded=0;orthogonalLoop=1;jettySize=auto;html=1;fontFamily=Courier New;" edge="1" parent="WIyWlLk6GJQsqaUBKTNV-1" source="_UJg27Rl1VnWqQIB9TGI-60" target="_UJg27Rl1VnWqQIB9TGI-64">
          <mxGeometry relative="1" as="geometry" />
        </mxCell>
        <mxCell id="_UJg27Rl1VnWqQIB9TGI-69" value="" style="edgeStyle=orthogonalEdgeStyle;rounded=0;orthogonalLoop=1;jettySize=auto;html=1;fontFamily=Courier New;exitX=1;exitY=0.5;exitDx=0;exitDy=0;" edge="1" parent="WIyWlLk6GJQsqaUBKTNV-1" source="_UJg27Rl1VnWqQIB9TGI-60" target="_UJg27Rl1VnWqQIB9TGI-68">
          <mxGeometry relative="1" as="geometry">
            <mxPoint x="170" y="950" as="sourcePoint" />
          </mxGeometry>
        </mxCell>
        <mxCell id="_UJg27Rl1VnWqQIB9TGI-60" value="See all transactions" style="rounded=1;whiteSpace=wrap;html=1;fontSize=12;glass=0;strokeWidth=1;shadow=0;fontFamily=Courier New;fontStyle=1" vertex="1" parent="WIyWlLk6GJQsqaUBKTNV-1">
          <mxGeometry x="50" y="930" width="117" height="40" as="geometry" />
        </mxCell>
        <mxCell id="_UJg27Rl1VnWqQIB9TGI-67" value="" style="edgeStyle=orthogonalEdgeStyle;rounded=0;orthogonalLoop=1;jettySize=auto;html=1;fontFamily=Courier New;" edge="1" parent="WIyWlLk6GJQsqaUBKTNV-1" source="_UJg27Rl1VnWqQIB9TGI-62" target="_UJg27Rl1VnWqQIB9TGI-66">
          <mxGeometry relative="1" as="geometry" />
        </mxCell>
        <mxCell id="_UJg27Rl1VnWqQIB9TGI-62" value="Transaction history" style="rounded=1;whiteSpace=wrap;html=1;fontSize=12;glass=0;strokeWidth=1;shadow=0;fontFamily=Courier New;fontStyle=1" vertex="1" parent="WIyWlLk6GJQsqaUBKTNV-1">
          <mxGeometry x="50" y="990" width="117" height="40" as="geometry" />
        </mxCell>
        <mxCell id="_UJg27Rl1VnWqQIB9TGI-64" value="Saving and expenses graph" style="rounded=1;whiteSpace=wrap;html=1;fontSize=12;glass=0;strokeWidth=1;shadow=0;fontFamily=Courier New;fontStyle=1" vertex="1" parent="WIyWlLk6GJQsqaUBKTNV-1">
          <mxGeometry x="-100" y="990" width="117" height="40" as="geometry" />
        </mxCell>
        <mxCell id="_UJg27Rl1VnWqQIB9TGI-66" value="Search Transaction hsitory" style="rounded=1;whiteSpace=wrap;html=1;fontSize=12;glass=0;strokeWidth=1;shadow=0;fontFamily=Courier New;fontStyle=1" vertex="1" parent="WIyWlLk6GJQsqaUBKTNV-1">
          <mxGeometry x="50" y="1050" width="117" height="40" as="geometry" />
        </mxCell>
        <mxCell id="_UJg27Rl1VnWqQIB9TGI-70" value="" style="edgeStyle=orthogonalEdgeStyle;rounded=0;orthogonalLoop=1;jettySize=auto;html=1;fontFamily=Courier New;" edge="1" parent="WIyWlLk6GJQsqaUBKTNV-1" source="_UJg27Rl1VnWqQIB9TGI-68" target="_UJg27Rl1VnWqQIB9TGI-60">
          <mxGeometry relative="1" as="geometry" />
        </mxCell>
        <mxCell id="_UJg27Rl1VnWqQIB9TGI-68" value="change card" style="rounded=1;whiteSpace=wrap;html=1;fontSize=12;glass=0;strokeWidth=1;shadow=0;fontFamily=Courier New;fontStyle=1" vertex="1" parent="WIyWlLk6GJQsqaUBKTNV-1">
          <mxGeometry x="220" y="930" width="117" height="40" as="geometry" />
        </mxCell>
        <mxCell id="_UJg27Rl1VnWqQIB9TGI-72" value="Add/Remove friends" style="rounded=1;whiteSpace=wrap;html=1;fontSize=12;glass=0;strokeWidth=1;shadow=0;fontFamily=Courier New;fontStyle=1" vertex="1" parent="WIyWlLk6GJQsqaUBKTNV-1">
          <mxGeometry x="397" y="850" width="117" height="40" as="geometry" />
        </mxCell>
        <mxCell id="_UJg27Rl1VnWqQIB9TGI-102" value="" style="edgeStyle=orthogonalEdgeStyle;rounded=0;orthogonalLoop=1;jettySize=auto;html=1;fontFamily=Courier New;" edge="1" parent="WIyWlLk6GJQsqaUBKTNV-1" source="_UJg27Rl1VnWqQIB9TGI-76" target="_UJg27Rl1VnWqQIB9TGI-98">
          <mxGeometry relative="1" as="geometry">
            <Array as="points">
              <mxPoint x="750" y="960" />
              <mxPoint x="750" y="960" />
            </Array>
          </mxGeometry>
        </mxCell>
        <mxCell id="_UJg27Rl1VnWqQIB9TGI-76" value="Search friends" style="rounded=1;whiteSpace=wrap;html=1;fontSize=12;glass=0;strokeWidth=1;shadow=0;fontFamily=Courier New;fontStyle=1" vertex="1" parent="WIyWlLk6GJQsqaUBKTNV-1">
          <mxGeometry x="700" y="850" width="117" height="40" as="geometry" />
        </mxCell>
        <mxCell id="_UJg27Rl1VnWqQIB9TGI-106" value="" style="edgeStyle=orthogonalEdgeStyle;rounded=0;orthogonalLoop=1;jettySize=auto;html=1;fontFamily=Courier New;" edge="1" parent="WIyWlLk6GJQsqaUBKTNV-1" source="_UJg27Rl1VnWqQIB9TGI-98" target="_UJg27Rl1VnWqQIB9TGI-105">
          <mxGeometry relative="1" as="geometry" />
        </mxCell>
        <mxCell id="_UJg27Rl1VnWqQIB9TGI-98" value="Select amount" style="rounded=1;whiteSpace=wrap;html=1;fontSize=12;glass=0;strokeWidth=1;shadow=0;fontFamily=Courier New;fontStyle=1" vertex="1" parent="WIyWlLk6GJQsqaUBKTNV-1">
          <mxGeometry x="700" y="990" width="117" height="40" as="geometry" />
        </mxCell>
        <mxCell id="_UJg27Rl1VnWqQIB9TGI-104" value="" style="edgeStyle=orthogonalEdgeStyle;rounded=0;orthogonalLoop=1;jettySize=auto;html=1;fontFamily=Courier New;entryX=0;entryY=0.75;entryDx=0;entryDy=0;" edge="1" parent="WIyWlLk6GJQsqaUBKTNV-1" source="_UJg27Rl1VnWqQIB9TGI-100" target="_UJg27Rl1VnWqQIB9TGI-98">
          <mxGeometry relative="1" as="geometry">
            <mxPoint x="520" y="1070" as="targetPoint" />
            <Array as="points">
              <mxPoint x="468" y="1020" />
              <mxPoint x="700" y="1020" />
            </Array>
          </mxGeometry>
        </mxCell>
        <mxCell id="_UJg27Rl1VnWqQIB9TGI-100" value="Friend&#39;s profile" style="rounded=1;whiteSpace=wrap;html=1;fontSize=12;glass=0;strokeWidth=1;shadow=0;fontFamily=Courier New;fontStyle=1" vertex="1" parent="WIyWlLk6GJQsqaUBKTNV-1">
          <mxGeometry x="410" y="920" width="117" height="40" as="geometry" />
        </mxCell>
        <mxCell id="_UJg27Rl1VnWqQIB9TGI-110" value="" style="edgeStyle=orthogonalEdgeStyle;rounded=0;orthogonalLoop=1;jettySize=auto;html=1;fontFamily=Courier New;entryX=0.504;entryY=0.064;entryDx=0;entryDy=0;entryPerimeter=0;" edge="1" parent="WIyWlLk6GJQsqaUBKTNV-1" source="_UJg27Rl1VnWqQIB9TGI-105" target="_UJg27Rl1VnWqQIB9TGI-109">
          <mxGeometry relative="1" as="geometry" />
        </mxCell>
        <mxCell id="_UJg27Rl1VnWqQIB9TGI-113" value="" style="edgeStyle=orthogonalEdgeStyle;rounded=0;orthogonalLoop=1;jettySize=auto;html=1;fontFamily=Courier New;entryX=0.496;entryY=0.057;entryDx=0;entryDy=0;entryPerimeter=0;" edge="1" parent="WIyWlLk6GJQsqaUBKTNV-1" target="_UJg27Rl1VnWqQIB9TGI-112">
          <mxGeometry relative="1" as="geometry">
            <mxPoint x="817" y="1127" as="sourcePoint" />
            <mxPoint x="880" y="1167" as="targetPoint" />
          </mxGeometry>
        </mxCell>
        <mxCell id="_UJg27Rl1VnWqQIB9TGI-105" value="Are you sure?" style="rounded=1;whiteSpace=wrap;html=1;fontSize=12;glass=0;strokeWidth=1;shadow=0;fontFamily=Courier New;fontStyle=1" vertex="1" parent="WIyWlLk6GJQsqaUBKTNV-1">
          <mxGeometry x="700" y="1110" width="117" height="40" as="geometry" />
        </mxCell>
        <mxCell id="_UJg27Rl1VnWqQIB9TGI-109" value="Yes" style="rhombus;whiteSpace=wrap;html=1;fontFamily=Courier New;rounded=1;glass=0;strokeWidth=1;shadow=0;fontStyle=1;" vertex="1" parent="WIyWlLk6GJQsqaUBKTNV-1">
          <mxGeometry x="600" y="1170" width="80" height="80" as="geometry" />
        </mxCell>
        <mxCell id="_UJg27Rl1VnWqQIB9TGI-117" style="edgeStyle=orthogonalEdgeStyle;rounded=0;orthogonalLoop=1;jettySize=auto;html=1;fontFamily=Courier New;" edge="1" parent="WIyWlLk6GJQsqaUBKTNV-1">
          <mxGeometry relative="1" as="geometry">
            <mxPoint x="916" y="1210" as="sourcePoint" />
            <mxPoint x="816" y="1010" as="targetPoint" />
            <Array as="points">
              <mxPoint x="946" y="1210" />
              <mxPoint x="946" y="1010" />
            </Array>
          </mxGeometry>
        </mxCell>
        <mxCell id="_UJg27Rl1VnWqQIB9TGI-112" value="No" style="rhombus;whiteSpace=wrap;html=1;fontFamily=Courier New;rounded=1;glass=0;strokeWidth=1;shadow=0;fontStyle=1;" vertex="1" parent="WIyWlLk6GJQsqaUBKTNV-1">
          <mxGeometry x="840" y="1170" width="80" height="80" as="geometry" />
        </mxCell>
      </root>
    </mxGraphModel>
  </diagram>
</mxfile>
